<?xml version="1.0" encoding="UTF-8"?>
<svg id="Layer_1" xmlns="http://www.w3.org/2000/svg" version="1.1" viewBox="0 0 680 180">
  <!-- Generator: Adobe Illustrator 30.2.1, SVG Export Plug-In . SVG Version: 2.1.1 Build 1)  -->
  <defs>
    <style>
      .st0 {
        fill: #111;
      }

      .st1 {
        fill: #d8d6d0;
      }

      .st2 {
        fill: #c8c6c0;
      }

      .st3 {
        isolation: isolate;
      }

      .st4 {
        fill: #999992;
      }

      .st5 {
        opacity: .8;
      }

      .st6 {
        fill: #f0efeb;
      }

      .st7 {
        fill: #ff4713;
      }
    </style>
  </defs>
  <rect class="st6" width="680" height="180"/>
  <g class="st5">
    <rect class="st1" y="39.75" width="680" height=".5"/>
    <rect class="st1" y="79.75" width="680" height=".5"/>
    <rect class="st1" y="119.75" width="680" height=".5"/>
    <rect class="st1" y="159.75" width="680" height=".5"/>
    <rect class="st1" x="39.75" width=".5" height="180"/>
    <rect class="st1" x="79.75" width=".5" height="180"/>
    <rect class="st1" x="119.75" width=".5" height="180"/>
    <rect class="st1" x="159.75" width=".5" height="180"/>
    <rect class="st1" x="199.75" width=".5" height="180"/>
    <rect class="st1" x="239.75" width=".5" height="180"/>
    <rect class="st1" x="279.75" width=".5" height="180"/>
    <rect class="st1" x="319.75" width=".5" height="180"/>
    <rect class="st1" x="359.75" width=".5" height="180"/>
    <rect class="st1" x="399.75" width=".5" height="180"/>
    <rect class="st1" x="439.75" width=".5" height="180"/>
    <rect class="st1" x="479.75" width=".5" height="180"/>
    <rect class="st1" x="519.75" width=".5" height="180"/>
    <rect class="st1" x="559.75" width=".5" height="180"/>
    <rect class="st1" x="599.75" width=".5" height="180"/>
    <rect class="st1" x="639.75" width=".5" height="180"/>
  </g>
  <polygon class="st7" points="1.2 20.6 0 20.6 0 0 20.6 0 20.6 1.2 1.2 1.2 1.2 20.6"/>
  <polygon class="st7" points="680 20.6 678.8 20.6 678.8 1.2 659.4 1.2 659.4 0 680 0 680 20.6"/>
  <polygon class="st7" points="20.6 180 0 180 0 159.4 1.2 159.4 1.2 178.8 20.6 178.8 20.6 180"/>
  <polygon class="st7" points="680 180 659.4 180 659.4 178.8 678.8 178.8 678.8 159.4 680 159.4 680 180"/>
  <g class="st3">
    <path class="st0" d="M46.68,26v-4.44h.91v.52h.14c.07-.19.19-.32.35-.41.16-.09.36-.13.59-.13h.53v.84h-.57c-.3,0-.55.08-.74.25s-.29.42-.29.76v2.61h-.93Z"/>
    <path class="st0" d="M55.41,26.13c-.45,0-.84-.09-1.18-.28-.34-.19-.6-.46-.79-.8-.19-.34-.28-.75-.28-1.2v-.11c0-.46.09-.87.28-1.21s.45-.61.78-.8c.33-.19.72-.28,1.16-.28s.8.09,1.12.28c.32.19.57.45.75.79.18.34.27.73.27,1.18v.35h-3.41c.01.39.14.7.39.93.25.23.56.35.93.35.35,0,.61-.08.79-.23s.31-.34.41-.54l.77.4c-.08.17-.21.34-.36.53-.16.19-.37.34-.63.47-.26.13-.59.19-.99.19ZM54.12,23.33h2.46c-.02-.34-.14-.6-.36-.79-.22-.19-.5-.28-.85-.28s-.63.09-.85.28c-.22.19-.35.45-.4.79Z"/>
    <path class="st7" d="M62.55,26l-.93-6.3h.97l.76,5.64h.14l.97-5.64h1.7l.97,5.64h.14l.75-5.64h.97l-.93,6.3h-1.7l-.99-5.72h-.14l-.98,5.72h-1.71Z"/>
    <path class="st7" d="M73.84,20.96c-.18,0-.33-.06-.45-.18-.12-.12-.18-.27-.18-.45s.06-.34.18-.45c.12-.12.27-.18.45-.18s.34.06.46.18c.12.12.18.27.18.45s-.06.34-.18.45c-.12.12-.27.18-.46.18ZM73.37,26v-4.44h.93v4.44h-.93Z"/>
    <path class="st7" d="M79.05,26v-4.44h.91v.52h.14c.07-.19.19-.32.35-.41.16-.09.36-.13.59-.13h.53v.84h-.57c-.3,0-.55.08-.74.25s-.29.42-.29.76v2.61h-.93Z"/>
    <path class="st7" d="M87.78,26.13c-.45,0-.84-.09-1.18-.28-.34-.19-.6-.46-.79-.8-.19-.34-.28-.75-.28-1.2v-.11c0-.46.09-.87.28-1.21s.45-.61.78-.8c.33-.19.72-.28,1.16-.28s.8.09,1.12.28c.32.19.57.45.75.79.18.34.27.73.27,1.18v.35h-3.41c.01.39.14.7.39.93.25.23.56.35.93.35.35,0,.61-.08.79-.23s.31-.34.41-.54l.77.4c-.08.17-.21.34-.36.53-.16.19-.37.34-.63.47-.26.13-.59.19-.99.19ZM86.48,23.33h2.46c-.02-.34-.14-.6-.36-.79-.22-.19-.5-.28-.85-.28s-.63.09-.85.28c-.22.19-.35.45-.4.79Z"/>
    <path class="st7" d="M96.21,26.13c-.37,0-.71-.09-1.02-.27-.31-.18-.56-.44-.75-.78-.19-.34-.28-.75-.28-1.23v-.13c0-.47.09-.88.28-1.22s.44-.6.75-.78c.31-.18.65-.27,1.03-.27.29,0,.53.04.72.11.19.07.36.16.48.27.13.11.22.23.29.35h.14v-2.47h.93v6.3h-.91v-.63h-.14c-.11.19-.29.37-.52.52-.23.16-.56.23-.99.23ZM96.47,25.32c.4,0,.73-.13.99-.39.26-.26.39-.63.39-1.11v-.08c0-.47-.13-.84-.39-1.1-.26-.26-.59-.39-1-.39s-.72.13-.99.39c-.26.26-.39.62-.39,1.1v.08c0,.48.13.85.39,1.11.26.26.59.39.99.39Z"/>
    <path class="st7" d="M110.21,24.88c-.22,0-.41-.05-.59-.15-.18-.1-.32-.24-.43-.42s-.16-.38-.16-.6.05-.43.15-.61c.1-.18.24-.32.42-.42.18-.1.38-.15.61-.15s.43.05.61.15c.18.1.32.24.42.42.1.18.16.38.16.61s-.05.43-.16.61c-.11.18-.25.32-.43.42-.18.1-.39.15-.61.15Z"/>
    <path class="st7" d="M121.63,26v-6.3h3.89v.88h-2.92v1.82h2.68v.88h-2.68v2.72h-.97Z"/>
    <path class="st7" d="M129.86,26v-4.44h.91v.52h.14c.07-.19.19-.32.35-.41.16-.09.36-.13.59-.13h.53v.84h-.57c-.3,0-.55.08-.74.25s-.29.42-.29.76v2.61h-.93Z"/>
    <path class="st7" d="M138.59,26.13c-.45,0-.84-.09-1.18-.28-.34-.19-.6-.46-.79-.8-.19-.34-.28-.75-.28-1.2v-.11c0-.46.09-.87.28-1.21s.45-.61.78-.8c.33-.19.72-.28,1.16-.28s.8.09,1.12.28c.32.19.57.45.75.79.18.34.27.73.27,1.18v.35h-3.41c.01.39.14.7.39.93.25.23.56.35.93.35.35,0,.61-.08.79-.23s.31-.34.41-.54l.77.4c-.08.17-.21.34-.36.53-.16.19-.37.34-.63.47-.26.13-.59.19-.99.19ZM137.3,23.33h2.46c-.02-.34-.14-.6-.36-.79-.22-.19-.5-.28-.85-.28s-.63.09-.85.28c-.22.19-.35.45-.4.79Z"/>
    <path class="st7" d="M147.22,26.13c-.45,0-.84-.09-1.18-.28-.34-.19-.6-.46-.79-.8-.19-.34-.28-.75-.28-1.2v-.11c0-.46.09-.87.28-1.21s.45-.61.78-.8c.33-.19.72-.28,1.16-.28s.8.09,1.12.28c.32.19.57.45.75.79.18.34.27.73.27,1.18v.35h-3.41c.01.39.14.7.39.93.25.23.56.35.93.35.35,0,.61-.08.79-.23s.31-.34.41-.54l.77.4c-.08.17-.21.34-.36.53-.16.19-.37.34-.63.47-.26.13-.59.19-.99.19ZM145.93,23.33h2.46c-.02-.34-.14-.6-.36-.79-.22-.19-.5-.28-.85-.28s-.63.09-.85.28c-.22.19-.35.45-.4.79Z"/>
    <path class="st7" d="M156.38,26.13c-.43,0-.76-.08-.99-.23-.23-.16-.4-.33-.52-.52h-.14v.63h-.91v-6.3h.93v2.47h.14c.07-.12.17-.24.29-.35.12-.11.28-.2.48-.27.2-.07.44-.11.73-.11.37,0,.71.09,1.03.27s.56.44.75.78.28.75.28,1.22v.13c0,.48-.09.89-.28,1.23-.19.34-.44.6-.75.78-.31.18-.65.27-1.02.27ZM156.11,25.32c.4,0,.73-.13.99-.39.26-.26.39-.63.39-1.11v-.08c0-.47-.13-.84-.39-1.1-.26-.26-.59-.39-1-.39s-.72.13-.99.39c-.26.26-.39.62-.39,1.1v.08c0,.48.13.85.39,1.11.26.26.59.39.99.39Z"/>
    <path class="st7" d="M163.43,20.96c-.18,0-.33-.06-.45-.18-.12-.12-.18-.27-.18-.45s.06-.34.18-.45c.12-.12.27-.18.45-.18s.34.06.46.18c.12.12.18.27.18.45s-.06.34-.18.45c-.12.12-.27.18-.46.18ZM162.96,26v-4.44h.93v4.44h-.93Z"/>
    <path class="st7" d="M170.68,26.13c-.45,0-.84-.09-1.18-.28-.34-.19-.6-.46-.79-.8-.19-.34-.28-.75-.28-1.2v-.11c0-.46.09-.87.28-1.21s.45-.61.78-.8c.33-.19.72-.28,1.16-.28s.8.09,1.12.28c.32.19.57.45.75.79.18.34.27.73.27,1.18v.35h-3.41c.01.39.14.7.39.93.25.23.56.35.93.35.35,0,.61-.08.79-.23s.31-.34.41-.54l.77.4c-.08.17-.21.34-.36.53-.16.19-.37.34-.63.47-.26.13-.59.19-.99.19ZM169.38,23.33h2.46c-.02-.34-.14-.6-.36-.79-.22-.19-.5-.28-.85-.28s-.63.09-.85.28c-.22.19-.35.45-.4.79Z"/>
  </g>
  <g class="st3">
    <path class="st4" d="M573.78,26.11c-.42,0-.79-.08-1.12-.22s-.58-.37-.76-.66c-.18-.29-.28-.64-.28-1.06v-.2h.86v.2c0,.39.12.69.36.89s.55.3.95.3.7-.08.9-.25c.2-.17.3-.38.3-.65,0-.18-.05-.32-.14-.43-.1-.11-.23-.2-.41-.27-.18-.07-.39-.13-.63-.19l-.3-.07c-.36-.09-.67-.19-.93-.32-.26-.12-.47-.29-.61-.5s-.22-.47-.22-.8.08-.61.24-.85c.16-.24.39-.42.68-.54.29-.13.63-.19,1.02-.19s.74.07,1.04.2c.31.13.55.33.72.59s.26.59.26.98v.29h-.86v-.29c0-.24-.05-.44-.15-.58-.1-.15-.24-.26-.41-.33s-.38-.1-.62-.1c-.34,0-.61.07-.8.21-.19.14-.28.34-.28.59,0,.17.04.31.12.42.08.11.21.2.36.27.16.07.36.13.6.18l.29.07c.36.08.68.18.96.31.28.13.5.29.66.51.16.21.24.49.24.82s-.08.63-.25.88c-.17.25-.41.45-.72.59-.31.14-.67.21-1.1.21Z"/>
    <path class="st4" d="M579.75,26v-5.6h.86v2.33h.13l2.09-2.33h1.13l-2.53,2.76,2.62,2.84h-1.16l-2.14-2.38h-.13v2.38h-.86Z"/>
    <path class="st4" d="M587.7,26v-5.6h.86v5.6h-.86Z"/>
    <path class="st4" d="M592.73,26v-5.6h.86v4.82h2.7v.78h-3.56Z"/>
    <path class="st4" d="M600.08,26v-5.6h.87v4.82h2.7v.78h-3.56Z"/>
    <path class="st4" d="M611.6,27.6l2.35-7.2h.82l-2.35,7.2h-.82Z"/>
    <path class="st4" d="M624.43,26v-4.82h-1.72v-.78h4.3v.78h-1.72v4.82h-.86Z"/>
    <path class="st4" d="M632.67,26.11c-.69,0-1.23-.19-1.64-.58s-.61-.95-.61-1.68v-1.31c0-.73.2-1.29.61-1.68s.95-.58,1.64-.58,1.24.19,1.64.58.61.95.61,1.68v1.31c0,.73-.2,1.29-.61,1.68s-.96.58-1.64.58ZM632.67,25.34c.44,0,.79-.13,1.02-.39.24-.26.36-.61.36-1.06v-1.38c0-.45-.12-.8-.36-1.06-.24-.26-.58-.39-1.02-.39s-.77.13-1.02.39c-.25.26-.37.61-.37,1.06v1.38c0,.45.12.8.37,1.06.25.26.58.39,1.02.39Z"/>
    <path class="st4" d="M641.05,26.11c-.69,0-1.24-.19-1.64-.58s-.61-.95-.61-1.68v-1.31c0-.73.2-1.29.61-1.68s.95-.58,1.64-.58,1.24.19,1.64.58.61.95.61,1.68v1.31c0,.73-.2,1.29-.61,1.68s-.96.58-1.64.58ZM641.05,25.34c.44,0,.78-.13,1.02-.39s.36-.61.36-1.06v-1.38c0-.45-.12-.8-.36-1.06s-.58-.39-1.02-.39-.77.13-1.02.39-.37.61-.37,1.06v1.38c0,.45.12.8.37,1.06s.58.39,1.02.39Z"/>
    <path class="st4" d="M647.33,26v-5.6h.87v4.82h2.7v.78h-3.56Z"/>
  </g>
  <rect class="st2" x="28" y="32.75" width="624" height=".5"/>
  <rect class="st0" x="140" y="60" width="5" height="5" rx=".5" ry=".5"/>
  <rect class="st0" x="147" y="60" width="5" height="5" rx=".5" ry=".5"/>
  <rect class="st0" x="154" y="60" width="5" height="5" rx=".5" ry=".5"/>
  <rect class="st0" x="133" y="67" width="5" height="5" rx=".5" ry=".5"/>
  <rect class="st0" x="161" y="67" width="5" height="5" rx=".5" ry=".5"/>
  <rect class="st0" x="133" y="74" width="5" height="5" rx=".5" ry=".5"/>
  <rect class="st0" x="133" y="81" width="5" height="5" rx=".5" ry=".5"/>
  <rect class="st0" x="133" y="88" width="5" height="5" rx=".5" ry=".5"/>
  <rect class="st0" x="133" y="95" width="5" height="5" rx=".5" ry=".5"/>
  <rect class="st0" x="161" y="95" width="5" height="5" rx=".5" ry=".5"/>
  <rect class="st0" x="140" y="102" width="5" height="5" rx=".5" ry=".5"/>
  <rect class="st0" x="147" y="102" width="5" height="5" rx=".5" ry=".5"/>
  <rect class="st0" x="154" y="102" width="5" height="5" rx=".5" ry=".5"/>
  <rect class="st0" x="181" y="60" width="5" height="5" rx=".5" ry=".5"/>
  <rect class="st0" x="188" y="60" width="5" height="5" rx=".5" ry=".5"/>
  <rect class="st0" x="195" y="60" width="5" height="5" rx=".5" ry=".5"/>
  <rect class="st0" x="174" y="67" width="5" height="5" rx=".5" ry=".5"/>
  <rect class="st0" x="202" y="67" width="5" height="5" rx=".5" ry=".5"/>
  <rect class="st0" x="174" y="74" width="5" height="5" rx=".5" ry=".5"/>
  <rect class="st0" x="202" y="74" width="5" height="5" rx=".5" ry=".5"/>
  <rect class="st0" x="174" y="81" width="5" height="5" rx=".5" ry=".5"/>
  <rect class="st0" x="202" y="81" width="5" height="5" rx=".5" ry=".5"/>
  <rect class="st0" x="174" y="88" width="5" height="5" rx=".5" ry=".5"/>
  <rect class="st0" x="202" y="88" width="5" height="5" rx=".5" ry=".5"/>
  <rect class="st0" x="174" y="95" width="5" height="5" rx=".5" ry=".5"/>
  <rect class="st0" x="202" y="95" width="5" height="5" rx=".5" ry=".5"/>
  <rect class="st0" x="181" y="102" width="5" height="5" rx=".5" ry=".5"/>
  <rect class="st0" x="188" y="102" width="5" height="5" rx=".5" ry=".5"/>
  <rect class="st0" x="195" y="102" width="5" height="5" rx=".5" ry=".5"/>
  <rect class="st0" x="215" y="60" width="5" height="5" rx=".5" ry=".5"/>
  <rect class="st0" x="243" y="60" width="5" height="5" rx=".5" ry=".5"/>
  <rect class="st0" x="215" y="67" width="5" height="5" rx=".5" ry=".5"/>
  <rect class="st0" x="222" y="67" width="5" height="5" rx=".5" ry=".5"/>
  <rect class="st0" x="243" y="67" width="5" height="5" rx=".5" ry=".5"/>
  <rect class="st0" x="215" y="74" width="5" height="5" rx=".5" ry=".5"/>
  <rect class="st0" x="229" y="74" width="5" height="5" rx=".5" ry=".5"/>
  <rect class="st0" x="243" y="74" width="5" height="5" rx=".5" ry=".5"/>
  <rect class="st0" x="215" y="81" width="5" height="5" rx=".5" ry=".5"/>
  <rect class="st0" x="236" y="81" width="5" height="5" rx=".5" ry=".5"/>
  <rect class="st0" x="243" y="81" width="5" height="5" rx=".5" ry=".5"/>
  <rect class="st0" x="215" y="88" width="5" height="5" rx=".5" ry=".5"/>
  <rect class="st0" x="243" y="88" width="5" height="5" rx=".5" ry=".5"/>
  <rect class="st0" x="215" y="95" width="5" height="5" rx=".5" ry=".5"/>
  <rect class="st0" x="243" y="95" width="5" height="5" rx=".5" ry=".5"/>
  <rect class="st0" x="215" y="102" width="5" height="5" rx=".5" ry=".5"/>
  <rect class="st0" x="243" y="102" width="5" height="5" rx=".5" ry=".5"/>
  <rect class="st0" x="256" y="60" width="5" height="5" rx=".5" ry=".5"/>
  <rect class="st0" x="263" y="60" width="5" height="5" rx=".5" ry=".5"/>
  <rect class="st0" x="270" y="60" width="5" height="5" rx=".5" ry=".5"/>
  <rect class="st0" x="277" y="60" width="5" height="5" rx=".5" ry=".5"/>
  <rect class="st0" x="284" y="60" width="5" height="5" rx=".5" ry=".5"/>
  <rect class="st0" x="270" y="67" width="5" height="5" rx=".5" ry=".5"/>
  <rect class="st0" x="270" y="74" width="5" height="5" rx=".5" ry=".5"/>
  <rect class="st0" x="270" y="81" width="5" height="5" rx=".5" ry=".5"/>
  <rect class="st0" x="270" y="88" width="5" height="5" rx=".5" ry=".5"/>
  <rect class="st0" x="270" y="95" width="5" height="5" rx=".5" ry=".5"/>
  <rect class="st0" x="270" y="102" width="5" height="5" rx=".5" ry=".5"/>
  <rect class="st0" x="297" y="60" width="5" height="5" rx=".5" ry=".5"/>
  <rect class="st0" x="304" y="60" width="5" height="5" rx=".5" ry=".5"/>
  <rect class="st0" x="311" y="60" width="5" height="5" rx=".5" ry=".5"/>
  <rect class="st0" x="318" y="60" width="5" height="5" rx=".5" ry=".5"/>
  <rect class="st0" x="325" y="60" width="5" height="5" rx=".5" ry=".5"/>
  <rect class="st0" x="297" y="67" width="5" height="5" rx=".5" ry=".5"/>
  <rect class="st0" x="297" y="74" width="5" height="5" rx=".5" ry=".5"/>
  <rect class="st0" x="297" y="81" width="5" height="5" rx=".5" ry=".5"/>
  <rect class="st0" x="304" y="81" width="5" height="5" rx=".5" ry=".5"/>
  <rect class="st0" x="311" y="81" width="5" height="5" rx=".5" ry=".5"/>
  <rect class="st0" x="318" y="81" width="5" height="5" rx=".5" ry=".5"/>
  <rect class="st0" x="297" y="88" width="5" height="5" rx=".5" ry=".5"/>
  <rect class="st0" x="297" y="95" width="5" height="5" rx=".5" ry=".5"/>
  <rect class="st0" x="297" y="102" width="5" height="5" rx=".5" ry=".5"/>
  <rect class="st0" x="304" y="102" width="5" height="5" rx=".5" ry=".5"/>
  <rect class="st0" x="311" y="102" width="5" height="5" rx=".5" ry=".5"/>
  <rect class="st0" x="318" y="102" width="5" height="5" rx=".5" ry=".5"/>
  <rect class="st0" x="325" y="102" width="5" height="5" rx=".5" ry=".5"/>
  <rect class="st0" x="338" y="60" width="5" height="5" rx=".5" ry=".5"/>
  <rect class="st0" x="366" y="60" width="5" height="5" rx=".5" ry=".5"/>
  <rect class="st0" x="338" y="67" width="5" height="5" rx=".5" ry=".5"/>
  <rect class="st0" x="345" y="67" width="5" height="5" rx=".5" ry=".5"/>
  <rect class="st0" x="366" y="67" width="5" height="5" rx=".5" ry=".5"/>
  <rect class="st0" x="338" y="74" width="5" height="5" rx=".5" ry=".5"/>
  <rect class="st0" x="352" y="74" width="5" height="5" rx=".5" ry=".5"/>
  <rect class="st0" x="366" y="74" width="5" height="5" rx=".5" ry=".5"/>
  <rect class="st0" x="338" y="81" width="5" height="5" rx=".5" ry=".5"/>
  <rect class="st0" x="359" y="81" width="5" height="5" rx=".5" ry=".5"/>
  <rect class="st0" x="366" y="81" width="5" height="5" rx=".5" ry=".5"/>
  <rect class="st0" x="338" y="88" width="5" height="5" rx=".5" ry=".5"/>
  <rect class="st0" x="366" y="88" width="5" height="5" rx=".5" ry=".5"/>
  <rect class="st0" x="338" y="95" width="5" height="5" rx=".5" ry=".5"/>
  <rect class="st0" x="366" y="95" width="5" height="5" rx=".5" ry=".5"/>
  <rect class="st0" x="338" y="102" width="5" height="5" rx=".5" ry=".5"/>
  <rect class="st0" x="366" y="102" width="5" height="5" rx=".5" ry=".5"/>
  <rect class="st0" x="379" y="60" width="5" height="5" rx=".5" ry=".5"/>
  <rect class="st0" x="386" y="60" width="5" height="5" rx=".5" ry=".5"/>
  <rect class="st0" x="393" y="60" width="5" height="5" rx=".5" ry=".5"/>
  <rect class="st0" x="400" y="60" width="5" height="5" rx=".5" ry=".5"/>
  <rect class="st0" x="407" y="60" width="5" height="5" rx=".5" ry=".5"/>
  <rect class="st0" x="393" y="67" width="5" height="5" rx=".5" ry=".5"/>
  <rect class="st0" x="393" y="74" width="5" height="5" rx=".5" ry=".5"/>
  <rect class="st0" x="393" y="81" width="5" height="5" rx=".5" ry=".5"/>
  <rect class="st0" x="393" y="88" width="5" height="5" rx=".5" ry=".5"/>
  <rect class="st0" x="393" y="95" width="5" height="5" rx=".5" ry=".5"/>
  <rect class="st0" x="393" y="102" width="5" height="5" rx=".5" ry=".5"/>
  <rect class="st0" x="440" y="60" width="5" height="5" rx=".5" ry=".5"/>
  <rect class="st0" x="468" y="60" width="5" height="5" rx=".5" ry=".5"/>
  <rect class="st0" x="440" y="67" width="5" height="5" rx=".5" ry=".5"/>
  <rect class="st0" x="447" y="67" width="5" height="5" rx=".5" ry=".5"/>
  <rect class="st0" x="461" y="67" width="5" height="5" rx=".5" ry=".5"/>
  <rect class="st0" x="468" y="67" width="5" height="5" rx=".5" ry=".5"/>
  <rect class="st0" x="440" y="74" width="5" height="5" rx=".5" ry=".5"/>
  <rect class="st0" x="454" y="74" width="5" height="5" rx=".5" ry=".5"/>
  <rect class="st0" x="468" y="74" width="5" height="5" rx=".5" ry=".5"/>
  <rect class="st0" x="440" y="81" width="5" height="5" rx=".5" ry=".5"/>
  <rect class="st0" x="468" y="81" width="5" height="5" rx=".5" ry=".5"/>
  <rect class="st0" x="440" y="88" width="5" height="5" rx=".5" ry=".5"/>
  <rect class="st0" x="468" y="88" width="5" height="5" rx=".5" ry=".5"/>
  <rect class="st0" x="440" y="95" width="5" height="5" rx=".5" ry=".5"/>
  <rect class="st0" x="468" y="95" width="5" height="5" rx=".5" ry=".5"/>
  <rect class="st0" x="440" y="102" width="5" height="5" rx=".5" ry=".5"/>
  <rect class="st0" x="468" y="102" width="5" height="5" rx=".5" ry=".5"/>
  <rect class="st0" x="495" y="60" width="5" height="5" rx=".5" ry=".5"/>
  <rect class="st0" x="488" y="67" width="5" height="5" rx=".5" ry=".5"/>
  <rect class="st0" x="502" y="67" width="5" height="5" rx=".5" ry=".5"/>
  <rect class="st0" x="481" y="74" width="5" height="5" rx=".5" ry=".5"/>
  <rect class="st0" x="509" y="74" width="5" height="5" rx=".5" ry=".5"/>
  <rect class="st0" x="481" y="81" width="5" height="5" rx=".5" ry=".5"/>
  <rect class="st0" x="488" y="81" width="5" height="5" rx=".5" ry=".5"/>
  <rect class="st0" x="495" y="81" width="5" height="5" rx=".5" ry=".5"/>
  <rect class="st0" x="502" y="81" width="5" height="5" rx=".5" ry=".5"/>
  <rect class="st0" x="509" y="81" width="5" height="5" rx=".5" ry=".5"/>
  <rect class="st0" x="481" y="88" width="5" height="5" rx=".5" ry=".5"/>
  <rect class="st0" x="509" y="88" width="5" height="5" rx=".5" ry=".5"/>
  <rect class="st0" x="481" y="95" width="5" height="5" rx=".5" ry=".5"/>
  <rect class="st0" x="509" y="95" width="5" height="5" rx=".5" ry=".5"/>
  <rect class="st0" x="481" y="102" width="5" height="5" rx=".5" ry=".5"/>
  <rect class="st0" x="509" y="102" width="5" height="5" rx=".5" ry=".5"/>
  <rect class="st0" x="522" y="60" width="5" height="5" rx=".5" ry=".5"/>
  <rect class="st0" x="529" y="60" width="5" height="5" rx=".5" ry=".5"/>
  <rect class="st0" x="536" y="60" width="5" height="5" rx=".5" ry=".5"/>
  <rect class="st0" x="543" y="60" width="5" height="5" rx=".5" ry=".5"/>
  <rect class="st0" x="522" y="67" width="5" height="5" rx=".5" ry=".5"/>
  <rect class="st0" x="550" y="67" width="5" height="5" rx=".5" ry=".5"/>
  <rect class="st0" x="522" y="74" width="5" height="5" rx=".5" ry=".5"/>
  <rect class="st0" x="550" y="74" width="5" height="5" rx=".5" ry=".5"/>
  <rect class="st0" x="522" y="81" width="5" height="5" rx=".5" ry=".5"/>
  <rect class="st0" x="529" y="81" width="5" height="5" rx=".5" ry=".5"/>
  <rect class="st0" x="536" y="81" width="5" height="5" rx=".5" ry=".5"/>
  <rect class="st0" x="543" y="81" width="5" height="5" rx=".5" ry=".5"/>
  <rect class="st0" x="522" y="88" width="5" height="5" rx=".5" ry=".5"/>
  <rect class="st0" x="522" y="95" width="5" height="5" rx=".5" ry=".5"/>
  <rect class="st0" x="522" y="102" width="5" height="5" rx=".5" ry=".5"/>
  <rect class="st2" x="28" y="147.75" width="624" height=".5"/>
  <g class="st3">
    <path class="st4" d="M28.17,163l1.6-5.6h1.52l1.59,5.6h-.89l-.37-1.32h-2.19l-.37,1.32h-.9ZM29.65,160.88h1.76l-.82-2.94h-.13l-.82,2.94Z"/>
    <path class="st4" d="M38.18,163.07c-.3,0-.57-.07-.8-.2-.23-.13-.42-.32-.55-.57-.13-.25-.2-.54-.2-.88v-2.37h.82v2.31c0,.34.08.59.26.76s.41.24.71.24c.34,0,.61-.11.81-.34.21-.23.31-.55.31-.98v-1.99h.82v3.94h-.81v-.59h-.13c-.07.16-.21.31-.4.45-.19.14-.47.21-.85.21Z"/>
    <path class="st4" d="M46.06,163c-.24,0-.43-.07-.57-.22-.14-.14-.21-.34-.21-.58v-2.46h-1.09v-.7h1.09v-1.3h.82v1.3h1.18v.7h-1.18v2.31c0,.16.07.24.22.24h.82v.7h-1.09Z"/>
    <path class="st4" d="M51.24,163v-5.6h.82v2.22h.13c.05-.1.13-.2.23-.3.1-.1.23-.17.39-.24.16-.06.37-.09.62-.09.3,0,.56.07.8.2.23.13.41.32.55.56.13.24.2.54.2.88v2.37h-.82v-2.3c0-.34-.09-.59-.26-.76-.17-.16-.41-.24-.7-.24-.34,0-.61.11-.82.34-.21.22-.31.55-.31.98v1.99h-.82Z"/>
    <path class="st4" d="M61.01,163.11c-.4,0-.75-.08-1.05-.24-.31-.16-.55-.4-.72-.7-.18-.3-.26-.66-.26-1.08v-.12c0-.42.09-.77.26-1.08.18-.3.42-.53.72-.7.31-.17.66-.25,1.05-.25s.75.08,1.06.25c.31.17.55.4.73.7.18.3.26.66.26,1.08v.12c0,.42-.09.78-.26,1.08-.18.3-.42.54-.73.7-.31.16-.66.24-1.06.24ZM61.01,162.38c.36,0,.66-.12.88-.35.23-.23.34-.55.34-.96v-.07c0-.41-.11-.73-.34-.96-.22-.23-.52-.35-.89-.35s-.65.12-.88.35c-.23.23-.34.55-.34.96v.07c0,.41.11.73.34.96.23.23.52.35.88.35Z"/>
    <path class="st4" d="M67.08,163v-3.94h.81v.46h.13c.06-.17.17-.29.31-.36.14-.08.32-.12.52-.12h.47v.74h-.5c-.27,0-.49.07-.66.22-.17.15-.26.37-.26.68v2.32h-.82Z"/>
    <path class="st4" d="M73.67,160.26c-.19,0-.34-.06-.47-.18-.13-.12-.19-.28-.19-.47s.06-.35.19-.47c.12-.12.28-.18.47-.18s.34.06.47.18c.13.12.19.28.19.46s-.06.35-.19.47c-.12.12-.28.18-.47.18ZM73.67,163.11c-.19,0-.34-.06-.47-.18-.13-.12-.19-.28-.19-.47s.06-.35.19-.47c.12-.12.28-.18.47-.18s.34.06.47.18c.13.12.19.28.19.46s-.06.35-.19.47c-.12.12-.28.18-.47.18Z"/>
    <path class="st7" d="M83.19,163v-.77h.75v-4.06h-.75v-.77h2.24c.75,0,1.32.19,1.72.57.4.38.6.95.6,1.71v1.05c0,.76-.2,1.33-.6,1.71s-.97.56-1.72.56h-2.24ZM84.82,162.22h.62c.49,0,.85-.12,1.08-.37.23-.25.35-.61.35-1.1v-1.1c0-.49-.12-.86-.35-1.1-.23-.24-.59-.36-1.08-.36h-.62v4.02Z"/>
    <path class="st7" d="M91.74,163v-3.94h.81v.46h.13c.06-.17.17-.29.31-.36.14-.08.32-.12.52-.12h.47v.74h-.5c-.27,0-.49.07-.66.22-.17.15-.26.37-.26.68v2.32h-.82Z"/>
    <path class="st7" d="M99.5,163.11c-.4,0-.75-.08-1.05-.25-.3-.17-.53-.41-.7-.71s-.25-.66-.25-1.07v-.1c0-.41.08-.77.25-1.08.17-.31.4-.54.69-.71s.64-.25,1.03-.25.71.08,1,.25.51.4.67.7c.16.3.24.65.24,1.05v.31h-3.03c.01.35.13.62.35.83s.5.31.83.31c.31,0,.54-.07.7-.21s.28-.3.36-.48l.68.35c-.07.15-.18.31-.32.47-.14.17-.33.3-.56.42-.23.11-.52.17-.88.17ZM98.35,160.62h2.18c-.02-.3-.13-.53-.32-.7s-.44-.25-.75-.25-.56.08-.76.25c-.19.17-.31.4-.36.7Z"/>
    <path class="st7" d="M105.75,163l-.67-3.94h.82l.5,3.39h.13l.69-3.39h1.34l.68,3.39h.13l.5-3.39h.82l-.67,3.94h-1.38l-.68-3.38h-.13l-.68,3.38h-1.38Z"/>
    <path class="st7" d="M119.67,163v-5.6h1.62l1.22,5.02h.13l1.22-5.02h1.62v5.6h-.84v-4.99h-.13l-1.22,4.99h-1.46l-1.22-4.99h-.13v4.99h-.84Z"/>
    <path class="st7" d="M130.91,163.11c-.28,0-.53-.05-.76-.14-.22-.1-.4-.24-.53-.42-.13-.19-.2-.41-.2-.68s.07-.5.2-.68c.13-.18.31-.31.54-.4s.48-.14.77-.14h1.2v-.26c0-.23-.07-.41-.21-.55s-.35-.21-.64-.21-.5.07-.65.2c-.15.13-.25.31-.3.52l-.77-.25c.06-.21.17-.41.31-.58.14-.17.33-.31.56-.42.23-.11.52-.16.85-.16.51,0,.92.13,1.21.39.29.26.44.63.44,1.11v1.62c0,.16.07.24.22.24h.34v.69h-.62c-.19,0-.34-.05-.46-.14-.12-.1-.18-.23-.18-.39v-.02h-.12c-.04.08-.11.17-.19.28-.08.11-.21.2-.38.28-.17.08-.38.12-.66.12ZM131.03,162.43c.33,0,.6-.09.8-.28.2-.19.3-.45.3-.78v-.08h-1.15c-.22,0-.39.05-.53.14-.13.09-.2.23-.2.41s.07.33.21.43c.14.11.33.16.57.16Z"/>
    <path class="st7" d="M137.3,163v-3.94h.81v.46h.13c.06-.17.17-.29.31-.36.14-.08.32-.12.52-.12h.47v.74h-.5c-.27,0-.49.07-.66.22-.17.15-.26.37-.26.68v2.32h-.82Z"/>
    <path class="st7" d="M144.88,163c-.24,0-.43-.07-.57-.22-.14-.14-.21-.34-.21-.58v-2.46h-1.09v-.7h1.09v-1.3h.82v1.3h1.18v.7h-1.18v2.31c0,.16.07.24.22.24h.82v.7h-1.09Z"/>
    <path class="st7" d="M150.48,158.52c-.16,0-.29-.05-.4-.16-.11-.1-.16-.24-.16-.4s.05-.3.16-.4c.11-.1.24-.16.4-.16s.3.05.41.16c.11.1.16.24.16.4s-.05.3-.16.4c-.11.1-.24.16-.41.16ZM150.06,163v-3.94h.82v3.94h-.82Z"/>
    <path class="st7" d="M155.11,163v-3.94h.81v.59h.13c.07-.16.21-.31.4-.45.19-.14.48-.21.86-.21.3,0,.56.07.8.2.23.13.41.32.55.56.13.24.2.54.2.88v2.37h-.82v-2.3c0-.34-.09-.59-.26-.76-.17-.16-.41-.24-.7-.24-.34,0-.61.11-.82.34-.21.22-.31.55-.31.98v1.99h-.82Z"/>
    <path class="st7" d="M164.84,163.11c-.4,0-.75-.08-1.05-.25-.3-.17-.53-.41-.7-.71s-.25-.66-.25-1.07v-.1c0-.41.08-.77.25-1.08.17-.31.4-.54.69-.71s.64-.25,1.03-.25.71.08,1,.25.51.4.67.7c.16.3.24.65.24,1.05v.31h-3.03c.01.35.13.62.35.83s.5.31.83.31c.31,0,.54-.07.7-.21s.28-.3.36-.48l.68.35c-.07.15-.18.31-.32.47-.14.17-.33.3-.56.42-.23.11-.52.17-.88.17ZM163.69,160.62h2.18c-.02-.3-.13-.53-.32-.7s-.44-.25-.75-.25-.56.08-.76.25c-.19.17-.31.4-.36.7Z"/>
    <path class="st7" d="M170.44,163v-1.01l2.33-2.13v-.11h-2.25v-.7h3.14v1.02l-2.34,2.13v.1h2.4v.7h-3.29Z"/>
  </g>
  <g>
    <path class="st7" d="M527.16,165.48c-.68,0-1.22-.19-1.62-.58s-.6-.95-.6-1.68v-1.31c0-.73.2-1.29.6-1.68s.94-.58,1.62-.58,1.19.19,1.56.56c.37.37.55.88.55,1.53v.05h-.86v-.07c0-.38-.1-.69-.31-.93s-.52-.36-.94-.36-.76.13-1,.39-.36.62-.36,1.08v1.34c0,.45.12.81.36,1.07.24.26.57.39,1,.39s.73-.12.94-.36c.21-.24.31-.55.31-.92v-.14h.86v.11c0,.64-.18,1.15-.55,1.53-.37.37-.88.56-1.56.56Z"/>
    <path class="st7" d="M533.25,165.37v-5.6h.82v5.6h-.82Z"/>
    <path class="st7" d="M539.52,165.48c-.28,0-.53-.05-.76-.14-.22-.1-.4-.24-.53-.42s-.2-.41-.2-.68.07-.5.2-.68.31-.31.54-.4.48-.14.77-.14h1.2v-.26c0-.23-.07-.41-.21-.55s-.35-.21-.64-.21-.5.07-.65.2c-.15.13-.25.31-.3.52l-.77-.25c.06-.21.17-.41.31-.58.14-.17.33-.31.56-.42.23-.11.52-.16.85-.16.51,0,.91.13,1.21.39.29.26.44.63.44,1.11v1.62c0,.16.08.24.22.24h.34v.69h-.62c-.19,0-.34-.05-.46-.14-.12-.1-.18-.23-.18-.39v-.02h-.12c-.04.08-.11.17-.19.28-.08.11-.21.2-.38.28-.17.08-.38.12-.66.12ZM539.64,164.8c.33,0,.6-.09.8-.28.2-.19.3-.45.3-.78v-.08h-1.15c-.22,0-.39.05-.53.14-.13.09-.2.23-.2.41s.07.33.21.43c.14.11.33.16.57.16Z"/>
    <path class="st7" d="M547.32,165.44c-.3,0-.57-.07-.8-.2-.23-.13-.42-.32-.55-.57-.13-.25-.2-.54-.2-.88v-2.37h.82v2.31c0,.34.09.59.26.76.17.16.41.24.71.24.34,0,.61-.11.81-.34.21-.23.31-.55.31-.98v-1.99h.82v3.94h-.81v-.59h-.13c-.07.16-.21.31-.4.45-.19.14-.47.21-.85.21Z"/>
    <path class="st7" d="M555.35,165.48c-.33,0-.63-.08-.9-.24s-.5-.39-.67-.69c-.17-.3-.25-.67-.25-1.09v-.12c0-.42.08-.78.25-1.09s.39-.54.66-.7c.28-.16.58-.24.91-.24.26,0,.47.03.64.1.17.06.32.15.43.24.11.1.2.2.26.31h.13v-2.19h.82v5.6h-.81v-.56h-.13c-.1.17-.25.33-.46.46s-.5.21-.88.21ZM555.58,164.76c.36,0,.65-.11.88-.34.23-.23.35-.56.35-.98v-.07c0-.42-.12-.75-.34-.98-.23-.23-.53-.34-.89-.34s-.64.12-.88.34c-.23.23-.35.55-.35.98v.07c0,.43.12.75.35.98.23.23.52.34.88.34Z"/>
    <path class="st7" d="M563.65,165.48c-.4,0-.75-.08-1.05-.25-.3-.17-.53-.41-.7-.71s-.25-.66-.25-1.07v-.1c0-.41.08-.77.25-1.08.17-.31.4-.54.69-.71.3-.17.64-.25,1.03-.25s.71.08,1,.25.51.4.67.7c.16.3.24.65.24,1.05v.31h-3.03c.01.35.13.62.35.83.22.21.5.31.83.31.31,0,.54-.07.7-.21s.28-.3.36-.48l.68.35c-.07.15-.18.31-.32.47-.14.17-.33.3-.56.42-.23.11-.52.17-.88.17ZM562.5,162.99h2.18c-.02-.3-.13-.53-.32-.7s-.44-.25-.75-.25-.56.08-.76.25-.31.4-.36.7Z"/>
    <path class="st7" d="M576.61,165.48c-.68,0-1.22-.19-1.62-.58s-.6-.95-.6-1.68v-1.31c0-.73.2-1.29.6-1.68s.94-.58,1.62-.58,1.19.19,1.56.56c.37.37.55.88.55,1.53v.05h-.86v-.07c0-.38-.1-.69-.31-.93-.21-.24-.52-.36-.94-.36s-.76.13-1,.39c-.24.26-.36.62-.36,1.08v1.34c0,.45.12.81.36,1.07.24.26.57.39,1,.39s.73-.12.94-.36c.21-.24.31-.55.31-.92v-.14h.86v.11c0,.64-.18,1.15-.55,1.53-.37.37-.88.56-1.56.56Z"/>
    <path class="st7" d="M584.55,165.48c-.4,0-.75-.08-1.05-.24-.31-.16-.55-.4-.72-.7s-.26-.66-.26-1.08v-.12c0-.42.09-.77.26-1.08.18-.3.42-.53.72-.7.31-.17.66-.25,1.05-.25s.75.08,1.06.25c.31.17.55.4.73.7.18.3.26.66.26,1.08v.12c0,.42-.09.78-.26,1.08s-.42.54-.73.7c-.31.16-.66.24-1.06.24ZM584.55,164.74c.36,0,.66-.12.88-.35.23-.23.34-.55.34-.96v-.07c0-.41-.11-.73-.34-.96-.22-.23-.52-.35-.89-.35s-.65.12-.88.35c-.23.23-.34.55-.34.96v.07c0,.41.11.73.34.96.23.23.52.35.88.35Z"/>
    <path class="st7" d="M592.25,165.48c-.33,0-.63-.08-.9-.24s-.5-.39-.67-.69c-.17-.3-.25-.67-.25-1.09v-.12c0-.42.08-.78.25-1.09.17-.3.39-.54.66-.7.28-.16.58-.24.91-.24.26,0,.47.03.64.1.17.06.32.15.43.24.11.1.2.2.26.31h.13v-2.19h.82v5.6h-.81v-.56h-.13c-.1.17-.25.33-.46.46-.21.14-.5.21-.88.21ZM592.49,164.76c.36,0,.65-.11.88-.34.23-.23.35-.56.35-.98v-.07c0-.42-.11-.75-.34-.98-.23-.23-.53-.34-.89-.34s-.64.12-.88.34c-.23.23-.35.55-.35.98v.07c0,.43.12.75.35.98s.52.34.88.34Z"/>
    <path class="st7" d="M600.56,165.48c-.4,0-.75-.08-1.05-.25s-.53-.41-.7-.71-.25-.66-.25-1.07v-.1c0-.41.08-.77.25-1.08s.4-.54.69-.71c.29-.17.64-.25,1.03-.25s.71.08,1,.25.51.4.67.7c.16.3.24.65.24,1.05v.31h-3.03c.01.35.13.62.35.83.22.21.5.31.83.31.31,0,.54-.07.7-.21s.28-.3.36-.48l.68.35c-.08.15-.18.31-.32.47-.14.17-.33.3-.56.42-.23.11-.52.17-.88.17ZM599.41,162.99h2.18c-.02-.3-.13-.53-.32-.7s-.44-.25-.75-.25-.56.08-.76.25c-.2.17-.31.4-.36.7Z"/>
    <path class="st7" d="M613.34,165.48c-.42,0-.79-.08-1.12-.22s-.58-.37-.76-.66c-.18-.29-.28-.64-.28-1.06v-.2h.86v.2c0,.39.12.69.36.89s.55.3.95.3.7-.08.9-.25c.2-.17.3-.38.3-.65,0-.18-.05-.32-.14-.43-.1-.11-.23-.2-.41-.27-.18-.07-.39-.13-.63-.19l-.3-.07c-.36-.09-.67-.19-.93-.32-.26-.12-.47-.29-.61-.5s-.22-.47-.22-.8.08-.61.24-.85c.16-.24.39-.42.68-.54.29-.13.63-.19,1.02-.19s.74.07,1.04.2c.31.13.55.33.72.59s.26.59.26.98v.29h-.86v-.29c0-.24-.05-.44-.15-.58-.1-.15-.24-.26-.41-.33s-.38-.1-.62-.1c-.34,0-.61.07-.8.21-.19.14-.28.34-.28.59,0,.17.04.31.12.42.08.11.21.2.36.27.16.07.36.13.6.18l.29.07c.36.08.68.18.96.31.28.13.5.29.66.51.16.21.24.49.24.82s-.08.63-.25.88c-.17.25-.41.45-.72.59-.31.14-.67.21-1.1.21Z"/>
    <path class="st7" d="M619.33,165.37v-5.6h.82v3.19h.13l1.55-1.54h1.1l-1.99,1.91,2.06,2.03h-1.09l-1.62-1.64h-.13v1.64h-.82Z"/>
    <path class="st7" d="M627.16,160.89c-.16,0-.29-.05-.4-.16-.11-.1-.16-.24-.16-.4s.05-.3.16-.4c.11-.1.24-.16.4-.16s.3.05.41.16c.11.1.16.24.16.4s-.05.3-.16.4c-.11.1-.24.16-.41.16ZM626.74,165.37v-3.94h.82v3.94h-.82Z"/>
    <path class="st7" d="M631.79,165.37v-5.6h.82v5.6h-.82Z"/>
    <path class="st7" d="M636.84,165.37v-5.6h.82v5.6h-.82Z"/>
  </g>
  <circle class="st7" cx="647.89" cy="162.57" r="3"/>
</svg>