<?xml version="1.0" encoding="UTF-8"?>
<svg id="Layer_1" xmlns="http://www.w3.org/2000/svg" version="1.1" viewBox="0 0 960 580">
  <!-- Generator: Adobe Illustrator 30.2.1, SVG Export Plug-In . SVG Version: 2.1.1 Build 1)  -->
  <defs>
    <style>
      .st0 {
        fill: #24283b;
      }

      .st1 {
        fill: #565f89;
      }

      .st2 {
        fill: #f7768e;
      }

      .st3 {
        fill: #1a1b26;
      }

      .st4 {
        fill: #c0caf5;
      }

      .st5 {
        isolation: isolate;
      }

      .st6 {
        fill: #7aa2f7;
      }

      .st7 {
        fill: #e0af68;
      }

      .st8 {
        fill: #1f2335;
      }

      .st9 {
        fill: #ff4713;
      }

      .st10 {
        fill: #9ece6a;
      }
    </style>
  </defs>
  <rect class="st0" width="960" height="580" rx="12" ry="12"/>
  <rect class="st3" x="1" y="1" width="958" height="578" rx="11" ry="11"/>
  <rect class="st8" x="1" y="1" width="958" height="36" rx="11" ry="11"/>
  <rect class="st3" x="1" y="26" width="958" height="12"/>
  <circle class="st2" cx="24" cy="19" r="7"/>
  <circle class="st7" cx="48" cy="19" r="7"/>
  <circle class="st10" cx="72" cy="19" r="7"/>
  <g class="st5">
    <path class="st1" d="M451.31,24v-8.13h-2.77v-1.03h6.65v1.03h-2.77v8.13h-1.12Z"/>
    <path class="st1" d="M462.82,22.22c-.21,1.14-1.3,1.9-2.75,1.9-1.89,0-2.99-1.14-2.99-3.1v-1.04c0-1.81,1.16-3.01,2.91-3.01s2.84,1.19,2.84,3.18v.67h-4.69v.28c0,1.26.75,2.08,1.92,2.08.87,0,1.51-.37,1.7-.97h1.05ZM458.15,20.02h3.62c0-1.31-.67-2.11-1.78-2.11s-1.84.79-1.84,2.11Z"/>
    <path class="st1" d="M467.8,18.87c.25-1.28,1.11-1.94,2.44-1.94.39,0,.77.06,1,.15v1.21c-.32-.11-.76-.19-1.14-.19-1.52,0-2.42,1.05-2.42,2.81v2.22h2.13v.86h-4.58v-.86h1.39v-5.16h-1.53v-.86h2.57v1.76h.14Z"/>
    <path class="st1" d="M479.3,24h-.97v-4.75c0-.84-.3-1.28-.88-1.28s-.97.53-.97,1.38v4.65h-.96v-4.76c0-.83-.3-1.27-.89-1.27s-.99.53-.99,1.38v4.65h-.97v-6.89h.96v.97h.11c.17-.69.67-1.1,1.31-1.1s1.1.4,1.25,1.08h.11c.18-.66.73-1.08,1.42-1.08.96,0,1.46.67,1.46,1.94v5.07Z"/>
    <path class="st1" d="M481.32,24v-.89h2.36v-5.1h-2.34v-.89h3.41v5.99h2.28v.89h-5.71ZM483.24,14.54c0-.5.39-.88.89-.88s.89.38.89.88-.39.89-.89.89-.89-.38-.89-.89Z"/>
    <path class="st1" d="M489.24,17.11h1.03v1.21h.09c.37-.86,1.16-1.34,2.2-1.34,1.5,0,2.31.89,2.31,2.54v4.47h-1.08v-4.2c0-1.24-.51-1.83-1.58-1.83-1.14,0-1.9.79-1.9,1.97v4.06h-1.08v-6.89Z"/>
    <path class="st1" d="M497.2,22.04c0-1.22.88-1.94,2.44-2.03l1.89-.09v-.62c0-.86-.53-1.34-1.48-1.34-.79,0-1.35.34-1.53.93h-1.06c.13-1.11,1.19-1.86,2.6-1.86,1.62,0,2.55.83,2.55,2.26v4.72h-1.03v-1.03h-.11c-.33.74-1.08,1.15-2.08,1.15-1.31,0-2.19-.83-2.19-2.08ZM501.54,21.56v-.81l-1.77.08c-.96.04-1.47.46-1.47,1.17s.54,1.17,1.41,1.17c1.04,0,1.83-.69,1.83-1.61Z"/>
    <path class="st1" d="M505.43,24v-.89h2.35v-7.8h-2.34v-.9h3.42v8.7h2.27v.89h-5.71Z"/>
  </g>
  <g>
    <g class="st5">
      <path class="st6" d="M33.03,67.93s0-.13,0-.17c0-1.44.83-2.39,2.07-2.39.71,0,1.24.26,1.88.92.51.54.81.72,1.18.72.57,0,.9-.46.95-1.31h1.15v.16c0,1.44-.81,2.39-2.04,2.39-.72,0-1.25-.26-1.88-.91-.51-.54-.81-.72-1.14-.72-.61,0-.94.44-1,1.31h-1.16Z"/>
    </g>
    <g class="st5">
      <path class="st1" d="M53.43,66.18c2.1.52,2.96,1.39,2.96,2.97,0,1.74-1.25,2.92-3.2,3.08v.81h-.87v-.81c-1.93-.15-3.2-1.27-3.31-3.01h1.17c.12,1.05.94,1.77,2.14,1.91v-4.01l-.15-.04c-1.99-.49-2.89-1.41-2.89-2.93,0-1.65,1.19-2.78,3.05-2.93v-.81h.87v.82c1.74.15,2.93,1.26,3.02,2.87h-1.16c-.12-.98-.82-1.64-1.86-1.78v3.8l.24.07ZM52.31,62.3c-1.15.13-1.85.8-1.85,1.8,0,.9.52,1.42,1.85,1.78v-3.58ZM53.19,71.12c1.21-.15,2.01-.88,2.01-1.92,0-.96-.59-1.51-2.01-1.88v3.79Z"/>
    </g>
    <g class="st5">
      <path class="st4" d="M69.38,64.05h1.19v1.4h.1c.42-.99,1.33-1.55,2.54-1.55,1.73,0,2.67,1.03,2.67,2.94v5.16h-1.25v-4.84c0-1.44-.59-2.11-1.82-2.11-1.31,0-2.19.92-2.19,2.27v4.68h-1.25v-7.95Z"/>
      <path class="st4" d="M85.45,67.29v1.48c0,2.04-1.2,3.36-3.04,3.36-1.15,0-1.99-.49-2.34-1.36h-.14v3.91h-1.27v-10.63h1.23v1.22h.13c.42-.88,1.25-1.35,2.38-1.35,1.84,0,3.04,1.33,3.04,3.37ZM79.9,67.47v1.14c0,1.47.83,2.41,2.15,2.41s2.15-.94,2.15-2.41v-1.14c0-1.46-.83-2.4-2.15-2.4s-2.15.94-2.15,2.4Z"/>
      <path class="st4" d="M91.12,68.94l-2.01,3.06h-1.38l2.72-3.98-2.75-3.97h1.47l1.98,3.01h.1l1.97-3.01h1.4l-2.72,3.92,2.74,4.03h-1.44l-2-3.06h-.1Z"/>
      <path class="st4" d="M109.56,66.08c.29-1.47,1.28-2.23,2.81-2.23.45,0,.89.07,1.15.18v1.4c-.37-.13-.88-.22-1.31-.22-1.76,0-2.8,1.22-2.8,3.24v2.56h2.46v1h-5.28v-1h1.6v-5.96h-1.77v-1h2.97v2.03h.16Z"/>
      <path class="st4" d="M122.35,69.95c-.24,1.31-1.5,2.2-3.17,2.2-2.18,0-3.45-1.31-3.45-3.57v-1.19c0-2.1,1.34-3.47,3.36-3.47s3.28,1.37,3.28,3.67v.78h-5.41v.32c0,1.46.86,2.4,2.22,2.4,1,0,1.74-.43,1.96-1.12h1.21ZM116.96,67.41h4.18c0-1.52-.78-2.43-2.06-2.43s-2.12.91-2.12,2.43Z"/>
      <path class="st4" d="M130.86,72h-1.19l-1.35-6.2h-.09l-1.35,6.2h-1.19l-1.71-7.95h1.22l1.08,6.37h.13l1.28-6.37h1.17l1.28,6.37h.13l1.08-6.37h1.22l-1.71,7.95Z"/>
      <path class="st4" d="M134.43,72v-1.03h2.72v-5.88h-2.7v-1.03h3.93v6.91h2.63v1.03h-6.58ZM136.65,61.08c0-.58.45-1.02,1.03-1.02s1.03.44,1.03,1.02-.45,1.03-1.03,1.03-1.03-.44-1.03-1.03Z"/>
      <path class="st4" d="M146.65,66.08c.29-1.47,1.28-2.23,2.81-2.23.45,0,.89.07,1.15.18v1.4c-.37-.13-.88-.22-1.31-.22-1.76,0-2.8,1.22-2.8,3.24v2.56h2.46v1h-5.28v-1h1.6v-5.96h-1.77v-1h2.97v2.03h.16Z"/>
      <path class="st4" d="M159.44,69.95c-.24,1.31-1.5,2.2-3.17,2.2-2.18,0-3.45-1.31-3.45-3.57v-1.19c0-2.1,1.34-3.47,3.36-3.47s3.28,1.37,3.28,3.67v.78h-5.41v.32c0,1.46.86,2.4,2.22,2.4,1,0,1.74-.43,1.96-1.12h1.21ZM154.05,67.41h4.18c0-1.52-.78-2.43-2.06-2.43s-2.12.91-2.12,2.43Z"/>
      <path class="st4" d="M167.24,70.78c-.41.88-1.25,1.35-2.38,1.35-1.84,0-3.04-1.33-3.04-3.37v-1.48c0-2.04,1.2-3.36,3.04-3.36,1.15,0,2,.49,2.34,1.36h.13v-4.35h1.27v11.07h-1.22v-1.22h-.14ZM163.08,68.59c0,1.46.84,2.41,2.15,2.41s2.15-.94,2.15-2.41v-1.14c0-1.46-.84-2.4-2.15-2.4s-2.15.94-2.15,2.4v1.14Z"/>
      <path class="st4" d="M170.76,67.89v-1.16h7.75v1.16h-7.75Z"/>
      <path class="st4" d="M185.99,66.53c-.15-.93-.93-1.52-1.96-1.52-1.38,0-2.15.94-2.15,2.65v.72c0,1.71.77,2.64,2.15,2.64,1.03,0,1.8-.58,1.96-1.49h1.23c-.2,1.62-1.41,2.61-3.16,2.61-2.16,0-3.42-1.33-3.42-3.6v-1.04c0-2.28,1.26-3.6,3.42-3.6,1.76,0,2.96,1,3.16,2.63h-1.23Z"/>
      <path class="st4" d="M189.74,68.63v-1.2c0-2.15,1.34-3.52,3.44-3.52s3.44,1.37,3.44,3.52v1.2c0,2.15-1.34,3.52-3.44,3.52s-3.44-1.37-3.44-3.52ZM190.97,67.54v.97c0,1.57.85,2.53,2.21,2.53s2.21-.96,2.21-2.53v-.97c0-1.56-.85-2.53-2.21-2.53s-2.21.97-2.21,2.53Z"/>
      <path class="st4" d="M199.2,64.05h1.19v1.4h.1c.42-.99,1.33-1.55,2.54-1.55,1.73,0,2.67,1.03,2.67,2.94v5.16h-1.25v-4.84c0-1.44-.59-2.11-1.82-2.11-1.31,0-2.19.92-2.19,2.27v4.68h-1.25v-7.95Z"/>
      <path class="st4" d="M211.6,61.92v2.15h3.22v1.06h-3.21v4.48c0,.87.61,1.33,1.73,1.33.45,0,1.25-.02,1.46-.04v1.05c-.2.04-1.16.07-1.55.07-1.97,0-2.89-.75-2.89-2.4v-4.5h-2.12v-1.06h2.12v-2.15h1.23Z"/>
      <path class="st4" d="M224.35,69.95c-.24,1.31-1.5,2.2-3.17,2.2-2.18,0-3.45-1.31-3.45-3.57v-1.19c0-2.1,1.34-3.47,3.36-3.47s3.28,1.37,3.28,3.67v.78h-5.41v.32c0,1.46.86,2.4,2.22,2.4,1,0,1.74-.43,1.96-1.12h1.21ZM218.96,67.41h4.18c0-1.52-.78-2.43-2.06-2.43s-2.12.91-2.12,2.43Z"/>
      <path class="st4" d="M227.02,64.05h1.19v1.4h.1c.42-.99,1.33-1.55,2.54-1.55,1.73,0,2.67,1.03,2.67,2.94v5.16h-1.25v-4.84c0-1.44-.59-2.11-1.82-2.11-1.31,0-2.19.92-2.19,2.27v4.68h-1.25v-7.95Z"/>
      <path class="st4" d="M239.42,61.92v2.15h3.22v1.06h-3.21v4.48c0,.87.61,1.33,1.73,1.33.45,0,1.25-.02,1.46-.04v1.05c-.2.04-1.16.07-1.55.07-1.97,0-2.89-.75-2.89-2.4v-4.5h-2.12v-1.06h2.12v-2.15h1.23Z"/>
      <path class="st4" d="M244.94,67.89v-1.16h7.75v1.16h-7.75Z"/>
      <path class="st4" d="M261.92,72h-1.12v-5.49c0-.97-.35-1.47-1.02-1.47s-1.12.61-1.12,1.6v5.36h-1.11v-5.49c0-.96-.35-1.46-1.03-1.46s-1.14.61-1.14,1.6v5.36h-1.12v-7.95h1.11v1.12h.13c.2-.8.77-1.27,1.52-1.27s1.27.46,1.44,1.25h.13c.21-.76.84-1.25,1.64-1.25,1.11,0,1.68.77,1.68,2.24v5.85Z"/>
      <path class="st4" d="M264.03,69.74c0-1.41,1.01-2.24,2.82-2.34l2.18-.11v-.72c0-1-.61-1.54-1.71-1.54-.92,0-1.56.39-1.77,1.07h-1.22c.15-1.27,1.38-2.15,3-2.15,1.87,0,2.94.95,2.94,2.61v5.44h-1.19v-1.19h-.12c-.38.85-1.25,1.33-2.4,1.33-1.52,0-2.53-.95-2.53-2.39ZM269.03,69.19v-.94l-2.04.1c-1.11.05-1.7.53-1.7,1.35s.62,1.35,1.63,1.35c1.2,0,2.12-.8,2.12-1.86Z"/>
      <path class="st4" d="M280.17,67.29v1.48c0,2.04-1.2,3.36-3.04,3.36-1.15,0-1.99-.49-2.34-1.36h-.14v3.91h-1.27v-10.63h1.23v1.22h.13c.42-.88,1.25-1.35,2.38-1.35,1.84,0,3.04,1.33,3.04,3.37ZM274.62,67.47v1.14c0,1.47.83,2.41,2.15,2.41s2.15-.94,2.15-2.41v-1.14c0-1.46-.83-2.4-2.15-2.4s-2.15.94-2.15,2.4Z"/>
    </g>
    <g class="st5">
      <path class="st9" d="M40.04,109.95h8.04v13h-8.04v-13Z"/>
      <path class="st9" d="M48.07,109.95h8.04v13h-8.04v-13Z"/>
      <path class="st9" d="M56.11,109.95h8.04v13h-8.04v-13Z"/>
      <path class="st9" d="M64.14,109.95h8.04v13h-8.04v-13Z"/>
      <path class="st9" d="M72.18,109.95h8.04v13h-8.04v-13Z"/>
      <path class="st9" d="M80.22,109.95h8.04v13h-8.04v-13Z"/>
      <path class="st9" d="M92.76,125.33v-9.39h-5.48v-1.01h6.46v10.4h-.98ZM90.8,125.33v-7.37h-3.53v-1.01h4.51v8.38h-.98Z"/>
      <path class="st9" d="M104.33,109.95h8.04v13h-8.04v-13Z"/>
      <path class="st9" d="M112.36,109.95h8.04v13h-8.04v-13Z"/>
      <path class="st9" d="M120.4,109.95h8.04v13h-8.04v-13Z"/>
      <path class="st9" d="M128.43,109.95h8.04v13h-8.04v-13Z"/>
      <path class="st9" d="M136.47,109.95h8.04v13h-8.04v-13Z"/>
      <path class="st9" d="M144.51,109.95h8.04v13h-8.04v-13Z"/>
      <path class="st9" d="M157.05,125.33v-9.39h-5.48v-1.01h6.46v10.4h-.98ZM155.09,125.33v-7.37h-3.53v-1.01h4.51v8.38h-.98Z"/>
      <path class="st9" d="M168.61,109.95h8.04v13h-8.04v-13Z"/>
      <path class="st9" d="M176.65,109.95h8.04v13h-8.04v-13Z"/>
      <path class="st9" d="M184.69,109.95h8.04v13h-8.04v-13Z"/>
      <path class="st9" d="M197.23,125.33v-9.39h-5.48v-1.01h6.46v10.4h-.98ZM195.27,125.33v-7.37h-3.53v-1.01h4.51v8.38h-.98Z"/>
      <path class="st9" d="M224.87,109.95h8.04v13h-8.04v-13Z"/>
      <path class="st9" d="M232.9,109.95h8.04v13h-8.04v-13Z"/>
      <path class="st9" d="M245.45,125.33v-9.39h-5.48v-1.01h6.46v10.4h-.98ZM243.49,125.33v-7.37h-3.53v-1.01h4.51v8.38h-.98Z"/>
      <path class="st9" d="M248.98,109.95h8.04v13h-8.04v-13Z"/>
      <path class="st9" d="M257.01,109.95h8.04v13h-8.04v-13Z"/>
      <path class="st9" d="M265.05,109.95h8.04v13h-8.04v-13Z"/>
      <path class="st9" d="M273.08,109.95h8.04v13h-8.04v-13Z"/>
      <path class="st9" d="M281.12,109.95h8.04v13h-8.04v-13Z"/>
      <path class="st9" d="M289.16,109.95h8.04v13h-8.04v-13Z"/>
      <path class="st9" d="M297.19,109.95h8.04v13h-8.04v-13Z"/>
      <path class="st9" d="M305.23,109.95h8.04v13h-8.04v-13Z"/>
      <path class="st9" d="M317.77,125.33v-9.39h-5.48v-1.01h6.46v10.4h-.98ZM315.82,125.33v-7.37h-3.53v-1.01h4.51v8.38h-.98Z"/>
      <path class="st9" d="M321.3,109.95h8.04v13h-8.04v-13Z"/>
      <path class="st9" d="M329.34,109.95h8.04v13h-8.04v-13Z"/>
      <path class="st9" d="M337.37,109.95h8.04v13h-8.04v-13Z"/>
      <path class="st9" d="M345.41,109.95h8.04v13h-8.04v-13Z"/>
      <path class="st9" d="M353.45,109.95h8.04v13h-8.04v-13Z"/>
      <path class="st9" d="M361.48,109.95h8.04v13h-8.04v-13Z"/>
      <path class="st9" d="M369.52,109.95h8.04v13h-8.04v-13Z"/>
      <path class="st9" d="M382.06,125.33v-9.39h-5.48v-1.01h6.46v10.4h-.98ZM380.11,125.33v-7.37h-3.53v-1.01h4.51v8.38h-.98Z"/>
      <path class="st9" d="M385.59,109.95h8.04v13h-8.04v-13Z"/>
      <path class="st9" d="M393.63,109.95h8.04v13h-8.04v-13Z"/>
      <path class="st9" d="M401.66,109.95h8.04v13h-8.04v-13Z"/>
      <path class="st9" d="M414.21,125.33v-9.39h-5.48v-1.01h6.46v10.4h-.98ZM412.25,125.33v-7.37h-3.53v-1.01h4.51v8.38h-.98Z"/>
      <path class="st9" d="M441.84,109.95h8.04v13h-8.04v-13Z"/>
      <path class="st9" d="M449.88,109.95h8.04v13h-8.04v-13Z"/>
      <path class="st9" d="M462.42,125.33v-9.39h-5.48v-1.01h6.46v10.4h-.98ZM460.47,125.33v-7.37h-3.53v-1.01h4.51v8.38h-.98Z"/>
      <path class="st9" d="M465.95,109.95h8.04v13h-8.04v-13Z"/>
      <path class="st9" d="M473.99,109.95h8.04v13h-8.04v-13Z"/>
      <path class="st9" d="M482.02,109.95h8.04v13h-8.04v-13Z"/>
      <path class="st9" d="M490.06,109.95h8.04v13h-8.04v-13Z"/>
      <path class="st9" d="M498.1,109.95h8.04v13h-8.04v-13Z"/>
      <path class="st9" d="M506.13,109.95h8.04v13h-8.04v-13Z"/>
      <path class="st9" d="M514.17,109.95h8.04v13h-8.04v-13Z"/>
      <path class="st9" d="M522.2,109.95h8.04v13h-8.04v-13Z"/>
      <path class="st9" d="M534.75,125.33v-9.39h-5.48v-1.01h6.46v10.4h-.98ZM532.79,125.33v-7.37h-3.53v-1.01h4.51v8.38h-.98Z"/>
      <path class="st9" d="M570.42,109.95h8.04v13h-8.04v-13Z"/>
      <path class="st9" d="M578.46,109.95h8.04v13h-8.04v-13Z"/>
      <path class="st9" d="M586.49,109.95h8.04v13h-8.04v-13Z"/>
      <path class="st9" d="M599.04,125.33v-9.39h-5.48v-1.01h6.46v10.4h-.98ZM597.08,125.33v-7.37h-3.53v-1.01h4.51v8.38h-.98Z"/>
      <path class="st9" d="M626.67,109.95h8.04v13h-8.04v-13Z"/>
      <path class="st9" d="M634.71,109.95h8.04v13h-8.04v-13Z"/>
      <path class="st9" d="M642.75,109.95h8.04v13h-8.04v-13Z"/>
      <path class="st9" d="M655.29,125.33v-9.39h-5.48v-1.01h6.46v10.4h-.98ZM653.33,125.33v-7.37h-3.53v-1.01h4.51v8.38h-.98Z"/>
      <path class="st9" d="M666.85,109.95h8.04v13h-8.04v-13Z"/>
      <path class="st9" d="M674.89,109.95h8.04v13h-8.04v-13Z"/>
      <path class="st9" d="M682.93,109.95h8.04v13h-8.04v-13Z"/>
      <path class="st9" d="M690.96,109.95h8.04v13h-8.04v-13Z"/>
      <path class="st9" d="M699,109.95h8.04v13h-8.04v-13Z"/>
      <path class="st9" d="M711.54,125.33v-9.39h-5.48v-1.01h6.46v10.4h-.98ZM709.59,125.33v-7.37h-3.53v-1.01h4.51v8.38h-.98Z"/>
      <path class="st9" d="M723.11,109.95h8.04v13h-8.04v-13Z"/>
      <path class="st9" d="M731.14,109.95h8.04v13h-8.04v-13Z"/>
      <path class="st9" d="M739.18,109.95h8.04v13h-8.04v-13Z"/>
      <path class="st9" d="M747.22,109.95h8.04v13h-8.04v-13Z"/>
      <path class="st9" d="M755.25,109.95h8.04v13h-8.04v-13Z"/>
      <path class="st9" d="M763.29,109.95h8.04v13h-8.04v-13Z"/>
      <path class="st9" d="M775.83,125.33v-9.39h-5.48v-1.01h6.46v10.4h-.98ZM773.88,125.33v-7.37h-3.53v-1.01h4.51v8.38h-.98Z"/>
    </g>
    <g class="st5">
      <path class="st9" d="M32,127.95h8.04v13h-8.04v-13Z"/>
      <path class="st9" d="M40.04,127.95h8.04v13h-8.04v-13Z"/>
      <path class="st9" d="M51.6,133.94v9.39h-.98v-10.4h6.46v1.01h-5.48ZM53.56,135.96v7.37h-.98v-8.38h4.51v1.01h-3.53Z"/>
      <path class="st9" d="M55.13,132.93h9.99v1.01h-9.99v-1.01ZM55.13,134.95h9.99v1.01h-9.99v-1.01Z"/>
      <path class="st9" d="M63.17,132.93h9.99v1.01h-9.99v-1.01ZM63.17,134.95h9.99v1.01h-9.99v-1.01Z"/>
      <path class="st9" d="M71.2,132.93h9.99v1.01h-9.99v-1.01ZM71.2,134.95h9.99v1.01h-9.99v-1.01Z"/>
      <path class="st9" d="M79.24,132.93h9.99v1.01h-9.99v-1.01ZM79.24,134.95h9.99v1.01h-9.99v-1.01Z"/>
      <path class="st9" d="M87.28,135.96v-1.01h5.48v-9.39h.98v10.4h-6.46ZM87.28,133.94v-1.01h3.53v-7.37h.98v8.38h-4.51Z"/>
      <path class="st9" d="M96.29,127.95h8.04v13h-8.04v-13Z"/>
      <path class="st9" d="M104.33,127.95h8.04v13h-8.04v-13Z"/>
      <path class="st9" d="M115.89,133.94v9.39h-.98v-10.4h6.46v1.01h-5.48ZM117.85,135.96v7.37h-.98v-8.38h4.51v1.01h-3.53Z"/>
      <path class="st9" d="M119.42,132.93h9.99v1.01h-9.99v-1.01ZM119.42,134.95h9.99v1.01h-9.99v-1.01Z"/>
      <path class="st9" d="M127.46,132.93h9.99v1.01h-9.99v-1.01ZM127.46,134.95h9.99v1.01h-9.99v-1.01Z"/>
      <path class="st9" d="M135.49,132.93h9.99v1.01h-9.99v-1.01ZM135.49,134.95h9.99v1.01h-9.99v-1.01Z"/>
      <path class="st9" d="M144.51,127.95h8.04v13h-8.04v-13Z"/>
      <path class="st9" d="M152.54,127.95h8.04v13h-8.04v-13Z"/>
      <path class="st9" d="M165.08,143.33v-9.39h-5.48v-1.01h6.46v10.4h-.98ZM163.13,143.33v-7.37h-3.53v-1.01h4.51v8.38h-.98Z"/>
      <path class="st9" d="M168.61,127.95h8.04v13h-8.04v-13Z"/>
      <path class="st9" d="M176.65,127.95h8.04v13h-8.04v-13Z"/>
      <path class="st9" d="M184.69,127.95h8.04v13h-8.04v-13Z"/>
      <path class="st9" d="M192.72,127.95h8.04v13h-8.04v-13Z"/>
      <path class="st9" d="M205.27,143.33v-9.39h-5.48v-1.01h6.46v10.4h-.98ZM203.31,143.33v-7.37h-3.53v-1.01h4.51v8.38h-.98Z"/>
      <path class="st9" d="M224.87,127.95h8.04v13h-8.04v-13Z"/>
      <path class="st9" d="M232.9,127.95h8.04v13h-8.04v-13Z"/>
      <path class="st9" d="M243.49,125.56h.98v17.77h-.98v-17.77ZM245.45,125.56h.98v17.77h-.98v-17.77Z"/>
      <path class="st9" d="M251.53,125.56h.98v9.39h5.48v1.01h-6.46v-10.4ZM253.48,125.56h.98v7.37h3.53v1.01h-4.51v-8.38Z"/>
      <path class="st9" d="M256.03,132.93h9.99v1.01h-9.99v-1.01ZM256.03,134.95h9.99v1.01h-9.99v-1.01Z"/>
      <path class="st9" d="M264.07,132.93h9.99v1.01h-9.99v-1.01ZM264.07,134.95h9.99v1.01h-9.99v-1.01Z"/>
      <path class="st9" d="M273.08,127.95h8.04v13h-8.04v-13Z"/>
      <path class="st9" d="M281.12,127.95h8.04v13h-8.04v-13Z"/>
      <path class="st9" d="M292.69,133.94v9.39h-.98v-10.4h6.46v1.01h-5.48ZM294.64,135.96v7.37h-.98v-8.38h4.51v1.01h-3.53Z"/>
      <path class="st9" d="M296.21,132.93h9.99v1.01h-9.99v-1.01ZM296.21,134.95h9.99v1.01h-9.99v-1.01Z"/>
      <path class="st9" d="M304.25,132.93h9.99v1.01h-9.99v-1.01ZM304.25,134.95h9.99v1.01h-9.99v-1.01Z"/>
      <path class="st9" d="M312.29,135.96v-1.01h5.48v-9.39h.98v10.4h-6.46ZM312.29,133.94v-1.01h3.53v-7.37h.98v8.38h-4.51Z"/>
      <path class="st9" d="M321.3,127.95h8.04v13h-8.04v-13Z"/>
      <path class="st9" d="M329.34,127.95h8.04v13h-8.04v-13Z"/>
      <path class="st9" d="M340.9,133.94v9.39h-.98v-10.4h6.46v1.01h-5.48ZM342.86,135.96v7.37h-.98v-8.38h4.51v1.01h-3.53Z"/>
      <path class="st9" d="M344.43,132.93h9.99v1.01h-9.99v-1.01ZM344.43,134.95h9.99v1.01h-9.99v-1.01Z"/>
      <path class="st9" d="M352.47,132.93h9.99v1.01h-9.99v-1.01ZM352.47,134.95h9.99v1.01h-9.99v-1.01Z"/>
      <path class="st9" d="M360.5,132.93h9.99v1.01h-9.99v-1.01ZM360.5,134.95h9.99v1.01h-9.99v-1.01Z"/>
      <path class="st9" d="M368.54,132.93h9.99v1.01h-9.99v-1.01ZM368.54,134.95h9.99v1.01h-9.99v-1.01Z"/>
      <path class="st9" d="M376.58,135.96v-1.01h5.48v-9.39h.98v10.4h-6.46ZM376.58,133.94v-1.01h3.53v-7.37h.98v8.38h-4.51Z"/>
      <path class="st9" d="M385.59,127.95h8.04v13h-8.04v-13Z"/>
      <path class="st9" d="M393.63,127.95h8.04v13h-8.04v-13Z"/>
      <path class="st9" d="M401.66,127.95h8.04v13h-8.04v-13Z"/>
      <path class="st9" d="M409.7,127.95h8.04v13h-8.04v-13Z"/>
      <path class="st9" d="M422.24,143.33v-9.39h-5.48v-1.01h6.46v10.4h-.98ZM420.29,143.33v-7.37h-3.53v-1.01h4.51v8.38h-.98Z"/>
      <path class="st9" d="M441.84,127.95h8.04v13h-8.04v-13Z"/>
      <path class="st9" d="M449.88,127.95h8.04v13h-8.04v-13Z"/>
      <path class="st9" d="M460.47,125.56h.98v17.77h-.98v-17.77ZM462.42,125.56h.98v17.77h-.98v-17.77Z"/>
      <path class="st9" d="M468.5,125.56h.98v9.39h5.48v1.01h-6.46v-10.4ZM470.46,125.56h.98v7.37h3.53v1.01h-4.51v-8.38Z"/>
      <path class="st9" d="M473.01,132.93h9.99v1.01h-9.99v-1.01ZM473.01,134.95h9.99v1.01h-9.99v-1.01Z"/>
      <path class="st9" d="M481.05,132.93h9.99v1.01h-9.99v-1.01ZM481.05,134.95h9.99v1.01h-9.99v-1.01Z"/>
      <path class="st9" d="M490.06,127.95h8.04v13h-8.04v-13Z"/>
      <path class="st9" d="M498.1,127.95h8.04v13h-8.04v-13Z"/>
      <path class="st9" d="M509.66,133.94v9.39h-.98v-10.4h6.46v1.01h-5.48ZM511.62,135.96v7.37h-.98v-8.38h4.51v1.01h-3.53Z"/>
      <path class="st9" d="M513.19,132.93h9.99v1.01h-9.99v-1.01ZM513.19,134.95h9.99v1.01h-9.99v-1.01Z"/>
      <path class="st9" d="M521.23,132.93h9.99v1.01h-9.99v-1.01ZM521.23,134.95h9.99v1.01h-9.99v-1.01Z"/>
      <path class="st9" d="M529.26,135.96v-1.01h5.48v-9.39h.98v10.4h-6.46ZM529.26,133.94v-1.01h3.53v-7.37h.98v8.38h-4.51Z"/>
      <path class="st9" d="M570.42,127.95h8.04v13h-8.04v-13Z"/>
      <path class="st9" d="M578.46,127.95h8.04v13h-8.04v-13Z"/>
      <path class="st9" d="M586.49,127.95h8.04v13h-8.04v-13Z"/>
      <path class="st9" d="M594.53,127.95h8.04v13h-8.04v-13Z"/>
      <path class="st9" d="M607.07,143.33v-9.39h-5.48v-1.01h6.46v10.4h-.98ZM605.12,143.33v-7.37h-3.53v-1.01h4.51v8.38h-.98Z"/>
      <path class="st9" d="M618.64,127.95h8.04v13h-8.04v-13Z"/>
      <path class="st9" d="M626.67,127.95h8.04v13h-8.04v-13Z"/>
      <path class="st9" d="M634.71,127.95h8.04v13h-8.04v-13Z"/>
      <path class="st9" d="M642.75,127.95h8.04v13h-8.04v-13Z"/>
      <path class="st9" d="M653.33,125.56h.98v17.77h-.98v-17.77ZM655.29,125.56h.98v17.77h-.98v-17.77Z"/>
      <path class="st9" d="M658.82,127.95h8.04v13h-8.04v-13Z"/>
      <path class="st9" d="M666.85,127.95h8.04v13h-8.04v-13Z"/>
      <path class="st9" d="M678.42,133.94v9.39h-.98v-10.4h6.46v1.01h-5.48ZM680.38,135.96v7.37h-.98v-8.38h4.51v1.01h-3.53Z"/>
      <path class="st9" d="M681.95,132.93h9.99v1.01h-9.99v-1.01ZM681.95,134.95h9.99v1.01h-9.99v-1.01Z"/>
      <path class="st9" d="M689.99,132.93h9.99v1.01h-9.99v-1.01ZM689.99,134.95h9.99v1.01h-9.99v-1.01Z"/>
      <path class="st9" d="M699,127.95h8.04v13h-8.04v-13Z"/>
      <path class="st9" d="M707.04,127.95h8.04v13h-8.04v-13Z"/>
      <path class="st9" d="M719.58,143.33v-9.39h-5.48v-1.01h6.46v10.4h-.98ZM717.62,143.33v-7.37h-3.53v-1.01h4.51v8.38h-.98Z"/>
      <path class="st9" d="M723.11,127.95h8.04v13h-8.04v-13Z"/>
      <path class="st9" d="M731.14,127.95h8.04v13h-8.04v-13Z"/>
      <path class="st9" d="M742.71,133.94v9.39h-.98v-10.4h6.46v1.01h-5.48ZM744.66,135.96v7.37h-.98v-8.38h4.51v1.01h-3.53Z"/>
      <path class="st9" d="M746.24,132.93h9.99v1.01h-9.99v-1.01ZM746.24,134.95h9.99v1.01h-9.99v-1.01Z"/>
      <path class="st9" d="M754.27,132.93h9.99v1.01h-9.99v-1.01ZM754.27,134.95h9.99v1.01h-9.99v-1.01Z"/>
      <path class="st9" d="M763.29,127.95h8.04v13h-8.04v-13Z"/>
      <path class="st9" d="M771.32,127.95h8.04v13h-8.04v-13Z"/>
      <path class="st9" d="M783.87,143.33v-9.39h-5.48v-1.01h6.46v10.4h-.98ZM781.91,143.33v-7.37h-3.53v-1.01h4.51v8.38h-.98Z"/>
    </g>
    <g class="st5">
      <path class="st9" d="M32,145.95h8.04v13h-8.04v-13Z"/>
      <path class="st9" d="M40.04,145.95h8.04v13h-8.04v-13Z"/>
      <path class="st9" d="M50.62,143.56h.98v17.77h-.98v-17.77ZM52.58,143.56h.98v17.77h-.98v-17.77Z"/>
      <path class="st9" d="M96.29,145.95h8.04v13h-8.04v-13Z"/>
      <path class="st9" d="M104.33,145.95h8.04v13h-8.04v-13Z"/>
      <path class="st9" d="M114.91,143.56h.98v17.77h-.98v-17.77ZM116.87,143.56h.98v17.77h-.98v-17.77Z"/>
      <path class="st9" d="M144.51,145.95h8.04v13h-8.04v-13Z"/>
      <path class="st9" d="M152.54,145.95h8.04v13h-8.04v-13Z"/>
      <path class="st9" d="M163.13,143.56h.98v17.77h-.98v-17.77ZM165.08,143.56h.98v17.77h-.98v-17.77Z"/>
      <path class="st9" d="M168.61,145.95h8.04v13h-8.04v-13Z"/>
      <path class="st9" d="M176.65,145.95h8.04v13h-8.04v-13Z"/>
      <path class="st9" d="M188.22,151.94v9.39h-.98v-10.4h6.46v1.01h-5.48ZM190.17,153.96v7.37h-.98v-8.38h4.51v1.01h-3.53Z"/>
      <path class="st9" d="M192.72,145.95h8.04v13h-8.04v-13Z"/>
      <path class="st9" d="M200.76,145.95h8.04v13h-8.04v-13Z"/>
      <path class="st9" d="M213.3,161.33v-9.39h-5.48v-1.01h6.46v10.4h-.98ZM211.35,161.33v-7.37h-3.53v-1.01h4.51v8.38h-.98Z"/>
      <path class="st9" d="M224.87,145.95h8.04v13h-8.04v-13Z"/>
      <path class="st9" d="M232.9,145.95h8.04v13h-8.04v-13Z"/>
      <path class="st9" d="M243.49,143.56h.98v17.77h-.98v-17.77ZM245.45,143.56h.98v17.77h-.98v-17.77Z"/>
      <path class="st9" d="M273.08,145.95h8.04v13h-8.04v-13Z"/>
      <path class="st9" d="M281.12,145.95h8.04v13h-8.04v-13Z"/>
      <path class="st9" d="M291.71,143.56h.98v17.77h-.98v-17.77ZM293.66,143.56h.98v17.77h-.98v-17.77Z"/>
      <path class="st9" d="M321.3,145.95h8.04v13h-8.04v-13Z"/>
      <path class="st9" d="M329.34,145.95h8.04v13h-8.04v-13Z"/>
      <path class="st9" d="M337.37,145.95h8.04v13h-8.04v-13Z"/>
      <path class="st9" d="M345.41,145.95h8.04v13h-8.04v-13Z"/>
      <path class="st9" d="M353.45,145.95h8.04v13h-8.04v-13Z"/>
      <path class="st9" d="M365.99,161.33v-9.39h-5.48v-1.01h6.46v10.4h-.98ZM364.03,161.33v-7.37h-3.53v-1.01h4.51v8.38h-.98Z"/>
      <path class="st9" d="M385.59,145.95h8.04v13h-8.04v-13Z"/>
      <path class="st9" d="M393.63,145.95h8.04v13h-8.04v-13Z"/>
      <path class="st9" d="M405.19,151.94v9.39h-.98v-10.4h6.46v1.01h-5.48ZM407.15,153.96v7.37h-.98v-8.38h4.51v1.01h-3.53Z"/>
      <path class="st9" d="M409.7,145.95h8.04v13h-8.04v-13Z"/>
      <path class="st9" d="M417.73,145.95h8.04v13h-8.04v-13Z"/>
      <path class="st9" d="M430.28,161.33v-9.39h-5.48v-1.01h6.46v10.4h-.98ZM428.32,161.33v-7.37h-3.53v-1.01h4.51v8.38h-.98Z"/>
      <path class="st9" d="M441.84,145.95h8.04v13h-8.04v-13Z"/>
      <path class="st9" d="M449.88,145.95h8.04v13h-8.04v-13Z"/>
      <path class="st9" d="M460.47,143.56h.98v17.77h-.98v-17.77ZM462.42,143.56h.98v17.77h-.98v-17.77Z"/>
      <path class="st9" d="M490.06,145.95h8.04v13h-8.04v-13Z"/>
      <path class="st9" d="M498.1,145.95h8.04v13h-8.04v-13Z"/>
      <path class="st9" d="M508.68,143.56h.98v17.77h-.98v-17.77ZM510.64,143.56h.98v17.77h-.98v-17.77Z"/>
      <path class="st9" d="M570.42,145.95h8.04v13h-8.04v-13Z"/>
      <path class="st9" d="M578.46,145.95h8.04v13h-8.04v-13Z"/>
      <path class="st9" d="M590.02,151.94v9.39h-.98v-10.4h6.46v1.01h-5.48ZM591.98,153.96v7.37h-.98v-8.38h4.51v1.01h-3.53Z"/>
      <path class="st9" d="M594.53,145.95h8.04v13h-8.04v-13Z"/>
      <path class="st9" d="M602.57,145.95h8.04v13h-8.04v-13Z"/>
      <path class="st9" d="M610.6,145.95h8.04v13h-8.04v-13Z"/>
      <path class="st9" d="M618.64,145.95h8.04v13h-8.04v-13Z"/>
      <path class="st9" d="M630.2,151.94v9.39h-.98v-10.4h6.46v1.01h-5.48ZM632.16,153.96v7.37h-.98v-8.38h4.51v1.01h-3.53Z"/>
      <path class="st9" d="M634.71,145.95h8.04v13h-8.04v-13Z"/>
      <path class="st9" d="M642.75,145.95h8.04v13h-8.04v-13Z"/>
      <path class="st9" d="M653.33,143.56h.98v17.77h-.98v-17.77ZM655.29,143.56h.98v17.77h-.98v-17.77Z"/>
      <path class="st9" d="M658.82,145.95h8.04v13h-8.04v-13Z"/>
      <path class="st9" d="M666.85,145.95h8.04v13h-8.04v-13Z"/>
      <path class="st9" d="M674.89,145.95h8.04v13h-8.04v-13Z"/>
      <path class="st9" d="M682.93,145.95h8.04v13h-8.04v-13Z"/>
      <path class="st9" d="M690.96,145.95h8.04v13h-8.04v-13Z"/>
      <path class="st9" d="M699,145.95h8.04v13h-8.04v-13Z"/>
      <path class="st9" d="M707.04,145.95h8.04v13h-8.04v-13Z"/>
      <path class="st9" d="M717.62,143.56h.98v17.77h-.98v-17.77ZM719.58,143.56h.98v17.77h-.98v-17.77Z"/>
      <path class="st9" d="M723.11,145.95h8.04v13h-8.04v-13Z"/>
      <path class="st9" d="M731.14,145.95h8.04v13h-8.04v-13Z"/>
      <path class="st9" d="M739.18,145.95h8.04v13h-8.04v-13Z"/>
      <path class="st9" d="M747.22,145.95h8.04v13h-8.04v-13Z"/>
      <path class="st9" d="M755.25,145.95h8.04v13h-8.04v-13Z"/>
      <path class="st9" d="M763.29,145.95h8.04v13h-8.04v-13Z"/>
      <path class="st9" d="M774.85,151.94v9.39h-.98v-10.4h6.46v1.01h-5.48ZM776.81,153.96v7.37h-.98v-8.38h4.51v1.01h-3.53Z"/>
      <path class="st9" d="M778.38,153.96v-1.01h5.48v-9.39h.98v10.4h-6.46ZM778.38,151.94v-1.01h3.53v-7.37h.98v8.38h-4.51Z"/>
    </g>
    <g class="st5">
      <path class="st9" d="M32,163.95h8.04v13h-8.04v-13Z"/>
      <path class="st9" d="M40.04,163.95h8.04v13h-8.04v-13Z"/>
      <path class="st9" d="M50.62,161.56h.98v17.77h-.98v-17.77ZM52.58,161.56h.98v17.77h-.98v-17.77Z"/>
      <path class="st9" d="M96.29,163.95h8.04v13h-8.04v-13Z"/>
      <path class="st9" d="M104.33,163.95h8.04v13h-8.04v-13Z"/>
      <path class="st9" d="M114.91,161.56h.98v17.77h-.98v-17.77ZM116.87,161.56h.98v17.77h-.98v-17.77Z"/>
      <path class="st9" d="M144.51,163.95h8.04v13h-8.04v-13Z"/>
      <path class="st9" d="M152.54,163.95h8.04v13h-8.04v-13Z"/>
      <path class="st9" d="M163.13,161.56h.98v17.77h-.98v-17.77ZM165.08,161.56h.98v17.77h-.98v-17.77Z"/>
      <path class="st9" d="M168.61,163.95h8.04v13h-8.04v-13Z"/>
      <path class="st9" d="M176.65,163.95h8.04v13h-8.04v-13Z"/>
      <path class="st9" d="M187.24,161.56h.98v17.77h-.98v-17.77ZM189.19,161.56h.98v17.77h-.98v-17.77Z"/>
      <path class="st9" d="M195.27,161.56h.98v9.39h5.48v1.01h-6.46v-10.4ZM197.23,161.56h.98v7.37h3.53v1.01h-4.51v-8.38Z"/>
      <path class="st9" d="M200.76,163.95h8.04v13h-8.04v-13Z"/>
      <path class="st9" d="M208.79,163.95h8.04v13h-8.04v-13Z"/>
      <path class="st9" d="M221.34,179.33v-9.39h-5.48v-1.01h6.46v10.4h-.98ZM219.38,179.33v-7.37h-3.53v-1.01h4.51v8.38h-.98Z"/>
      <path class="st9" d="M224.87,163.95h8.04v13h-8.04v-13Z"/>
      <path class="st9" d="M232.9,163.95h8.04v13h-8.04v-13Z"/>
      <path class="st9" d="M243.49,161.56h.98v17.77h-.98v-17.77ZM245.45,161.56h.98v17.77h-.98v-17.77Z"/>
      <path class="st9" d="M273.08,163.95h8.04v13h-8.04v-13Z"/>
      <path class="st9" d="M281.12,163.95h8.04v13h-8.04v-13Z"/>
      <path class="st9" d="M291.71,161.56h.98v17.77h-.98v-17.77ZM293.66,161.56h.98v17.77h-.98v-17.77Z"/>
      <path class="st9" d="M321.3,163.95h8.04v13h-8.04v-13Z"/>
      <path class="st9" d="M329.34,163.95h8.04v13h-8.04v-13Z"/>
      <path class="st9" d="M340.9,169.94v9.39h-.98v-10.4h6.46v1.01h-5.48ZM342.86,171.96v7.37h-.98v-8.38h4.51v1.01h-3.53Z"/>
      <path class="st9" d="M344.43,168.93h9.99v1.01h-9.99v-1.01ZM344.43,170.95h9.99v1.01h-9.99v-1.01Z"/>
      <path class="st9" d="M352.47,168.93h9.99v1.01h-9.99v-1.01ZM352.47,170.95h9.99v1.01h-9.99v-1.01Z"/>
      <path class="st9" d="M360.5,171.96v-1.01h5.48v-9.39h.98v10.4h-6.46ZM360.5,169.94v-1.01h3.53v-7.37h.98v8.38h-4.51Z"/>
      <path class="st9" d="M385.59,163.95h8.04v13h-8.04v-13Z"/>
      <path class="st9" d="M393.63,163.95h8.04v13h-8.04v-13Z"/>
      <path class="st9" d="M404.21,161.56h.98v17.77h-.98v-17.77ZM406.17,161.56h.98v17.77h-.98v-17.77Z"/>
      <path class="st9" d="M412.25,161.56h.98v9.39h5.48v1.01h-6.46v-10.4ZM414.21,161.56h.98v7.37h3.53v1.01h-4.51v-8.38Z"/>
      <path class="st9" d="M417.73,163.95h8.04v13h-8.04v-13Z"/>
      <path class="st9" d="M425.77,163.95h8.04v13h-8.04v-13Z"/>
      <path class="st9" d="M438.31,179.33v-9.39h-5.48v-1.01h6.46v10.4h-.98ZM436.36,179.33v-7.37h-3.53v-1.01h4.51v8.38h-.98Z"/>
      <path class="st9" d="M441.84,163.95h8.04v13h-8.04v-13Z"/>
      <path class="st9" d="M449.88,163.95h8.04v13h-8.04v-13Z"/>
      <path class="st9" d="M460.47,161.56h.98v17.77h-.98v-17.77ZM462.42,161.56h.98v17.77h-.98v-17.77Z"/>
      <path class="st9" d="M490.06,163.95h8.04v13h-8.04v-13Z"/>
      <path class="st9" d="M498.1,163.95h8.04v13h-8.04v-13Z"/>
      <path class="st9" d="M508.68,161.56h.98v17.77h-.98v-17.77ZM510.64,161.56h.98v17.77h-.98v-17.77Z"/>
      <path class="st9" d="M570.42,163.95h8.04v13h-8.04v-13Z"/>
      <path class="st9" d="M578.46,163.95h8.04v13h-8.04v-13Z"/>
      <path class="st9" d="M589.04,161.56h.98v17.77h-.98v-17.77ZM591,161.56h.98v17.77h-.98v-17.77Z"/>
      <path class="st9" d="M597.08,161.56h.98v9.39h5.48v1.01h-6.46v-10.4ZM599.04,161.56h.98v7.37h3.53v1.01h-4.51v-8.38Z"/>
      <path class="st9" d="M602.57,163.95h8.04v13h-8.04v-13Z"/>
      <path class="st9" d="M610.6,163.95h8.04v13h-8.04v-13Z"/>
      <path class="st9" d="M622.17,169.94v9.39h-.98v-10.4h6.46v1.01h-5.48ZM624.12,171.96v7.37h-.98v-8.38h4.51v1.01h-3.53Z"/>
      <path class="st9" d="M625.7,171.96v-1.01h5.48v-9.39h.98v10.4h-6.46ZM625.7,169.94v-1.01h3.53v-7.37h.98v8.38h-4.51Z"/>
      <path class="st9" d="M634.71,163.95h8.04v13h-8.04v-13Z"/>
      <path class="st9" d="M642.75,163.95h8.04v13h-8.04v-13Z"/>
      <path class="st9" d="M653.33,161.56h.98v17.77h-.98v-17.77ZM655.29,161.56h.98v17.77h-.98v-17.77Z"/>
      <path class="st9" d="M658.82,163.95h8.04v13h-8.04v-13Z"/>
      <path class="st9" d="M666.85,163.95h8.04v13h-8.04v-13Z"/>
      <path class="st9" d="M678.42,169.94v9.39h-.98v-10.4h6.46v1.01h-5.48ZM680.38,171.96v7.37h-.98v-8.38h4.51v1.01h-3.53Z"/>
      <path class="st9" d="M681.95,168.93h9.99v1.01h-9.99v-1.01ZM681.95,170.95h9.99v1.01h-9.99v-1.01Z"/>
      <path class="st9" d="M689.99,168.93h9.99v1.01h-9.99v-1.01ZM689.99,170.95h9.99v1.01h-9.99v-1.01Z"/>
      <path class="st9" d="M699,163.95h8.04v13h-8.04v-13Z"/>
      <path class="st9" d="M707.04,163.95h8.04v13h-8.04v-13Z"/>
      <path class="st9" d="M717.62,161.56h.98v17.77h-.98v-17.77ZM719.58,161.56h.98v17.77h-.98v-17.77Z"/>
      <path class="st9" d="M723.11,163.95h8.04v13h-8.04v-13Z"/>
      <path class="st9" d="M731.14,163.95h8.04v13h-8.04v-13Z"/>
      <path class="st9" d="M742.71,169.94v9.39h-.98v-10.4h6.46v1.01h-5.48ZM744.66,171.96v7.37h-.98v-8.38h4.51v1.01h-3.53Z"/>
      <path class="st9" d="M746.24,168.93h9.99v1.01h-9.99v-1.01ZM746.24,170.95h9.99v1.01h-9.99v-1.01Z"/>
      <path class="st9" d="M754.27,168.93h9.99v1.01h-9.99v-1.01ZM754.27,170.95h9.99v1.01h-9.99v-1.01Z"/>
      <path class="st9" d="M762.31,168.93h9.99v1.01h-9.99v-1.01ZM762.31,170.95h9.99v1.01h-9.99v-1.01Z"/>
      <path class="st9" d="M770.35,171.96v-1.01h5.48v-9.39h.98v10.4h-6.46ZM770.35,169.94v-1.01h3.53v-7.37h.98v8.38h-4.51Z"/>
    </g>
    <g class="st5">
      <path class="st9" d="M34.55,179.56h.98v9.39h5.48v1.01h-6.46v-10.4ZM36.51,179.56h.98v7.37h3.53v1.01h-4.51v-8.38Z"/>
      <path class="st9" d="M40.04,181.95h8.04v13h-8.04v-13Z"/>
      <path class="st9" d="M48.07,181.95h8.04v13h-8.04v-13Z"/>
      <path class="st9" d="M56.11,181.95h8.04v13h-8.04v-13Z"/>
      <path class="st9" d="M64.14,181.95h8.04v13h-8.04v-13Z"/>
      <path class="st9" d="M72.18,181.95h8.04v13h-8.04v-13Z"/>
      <path class="st9" d="M80.22,181.95h8.04v13h-8.04v-13Z"/>
      <path class="st9" d="M92.76,197.33v-9.39h-5.48v-1.01h6.46v10.4h-.98ZM90.8,197.33v-7.37h-3.53v-1.01h4.51v8.38h-.98Z"/>
      <path class="st9" d="M98.84,179.56h.98v9.39h5.48v1.01h-6.46v-10.4ZM100.8,179.56h.98v7.37h3.53v1.01h-4.51v-8.38Z"/>
      <path class="st9" d="M104.33,181.95h8.04v13h-8.04v-13Z"/>
      <path class="st9" d="M112.36,181.95h8.04v13h-8.04v-13Z"/>
      <path class="st9" d="M120.4,181.95h8.04v13h-8.04v-13Z"/>
      <path class="st9" d="M128.43,181.95h8.04v13h-8.04v-13Z"/>
      <path class="st9" d="M136.47,181.95h8.04v13h-8.04v-13Z"/>
      <path class="st9" d="M144.51,181.95h8.04v13h-8.04v-13Z"/>
      <path class="st9" d="M156.07,187.94v9.39h-.98v-10.4h6.46v1.01h-5.48ZM158.03,189.96v7.37h-.98v-8.38h4.51v1.01h-3.53Z"/>
      <path class="st9" d="M159.6,189.96v-1.01h5.48v-9.39h.98v10.4h-6.46ZM159.6,187.94v-1.01h3.53v-7.37h.98v8.38h-4.51Z"/>
      <path class="st9" d="M168.61,181.95h8.04v13h-8.04v-13Z"/>
      <path class="st9" d="M176.65,181.95h8.04v13h-8.04v-13Z"/>
      <path class="st9" d="M187.24,179.56h.98v17.77h-.98v-17.77ZM189.19,179.56h.98v17.77h-.98v-17.77Z"/>
      <path class="st9" d="M203.31,179.56h.98v9.39h5.48v1.01h-6.46v-10.4ZM205.27,179.56h.98v7.37h3.53v1.01h-4.51v-8.38Z"/>
      <path class="st9" d="M208.79,181.95h8.04v13h-8.04v-13Z"/>
      <path class="st9" d="M216.83,181.95h8.04v13h-8.04v-13Z"/>
      <path class="st9" d="M224.87,181.95h8.04v13h-8.04v-13Z"/>
      <path class="st9" d="M232.9,181.95h8.04v13h-8.04v-13Z"/>
      <path class="st9" d="M243.49,179.56h.98v17.77h-.98v-17.77ZM245.45,179.56h.98v17.77h-.98v-17.77Z"/>
      <path class="st9" d="M273.08,181.95h8.04v13h-8.04v-13Z"/>
      <path class="st9" d="M281.12,181.95h8.04v13h-8.04v-13Z"/>
      <path class="st9" d="M291.71,179.56h.98v17.77h-.98v-17.77ZM293.66,179.56h.98v17.77h-.98v-17.77Z"/>
      <path class="st9" d="M321.3,181.95h8.04v13h-8.04v-13Z"/>
      <path class="st9" d="M329.34,181.95h8.04v13h-8.04v-13Z"/>
      <path class="st9" d="M337.37,181.95h8.04v13h-8.04v-13Z"/>
      <path class="st9" d="M345.41,181.95h8.04v13h-8.04v-13Z"/>
      <path class="st9" d="M353.45,181.95h8.04v13h-8.04v-13Z"/>
      <path class="st9" d="M361.48,181.95h8.04v13h-8.04v-13Z"/>
      <path class="st9" d="M369.52,181.95h8.04v13h-8.04v-13Z"/>
      <path class="st9" d="M382.06,197.33v-9.39h-5.48v-1.01h6.46v10.4h-.98ZM380.11,197.33v-7.37h-3.53v-1.01h4.51v8.38h-.98Z"/>
      <path class="st9" d="M385.59,181.95h8.04v13h-8.04v-13Z"/>
      <path class="st9" d="M393.63,181.95h8.04v13h-8.04v-13Z"/>
      <path class="st9" d="M404.21,179.56h.98v17.77h-.98v-17.77ZM406.17,179.56h.98v17.77h-.98v-17.77Z"/>
      <path class="st9" d="M420.29,179.56h.98v9.39h5.48v1.01h-6.46v-10.4ZM422.24,179.56h.98v7.37h3.53v1.01h-4.51v-8.38Z"/>
      <path class="st9" d="M425.77,181.95h8.04v13h-8.04v-13Z"/>
      <path class="st9" d="M433.81,181.95h8.04v13h-8.04v-13Z"/>
      <path class="st9" d="M441.84,181.95h8.04v13h-8.04v-13Z"/>
      <path class="st9" d="M449.88,181.95h8.04v13h-8.04v-13Z"/>
      <path class="st9" d="M460.47,179.56h.98v17.77h-.98v-17.77ZM462.42,179.56h.98v17.77h-.98v-17.77Z"/>
      <path class="st9" d="M490.06,181.95h8.04v13h-8.04v-13Z"/>
      <path class="st9" d="M498.1,181.95h8.04v13h-8.04v-13Z"/>
      <path class="st9" d="M508.68,179.56h.98v17.77h-.98v-17.77ZM510.64,179.56h.98v17.77h-.98v-17.77Z"/>
      <path class="st9" d="M570.42,181.95h8.04v13h-8.04v-13Z"/>
      <path class="st9" d="M578.46,181.95h8.04v13h-8.04v-13Z"/>
      <path class="st9" d="M589.04,179.56h.98v17.77h-.98v-17.77ZM591,179.56h.98v17.77h-.98v-17.77Z"/>
      <path class="st9" d="M605.12,179.56h.98v9.39h5.48v1.01h-6.46v-10.4ZM607.07,179.56h.98v7.37h3.53v1.01h-4.51v-8.38Z"/>
      <path class="st9" d="M609.62,186.93h9.99v1.01h-9.99v-1.01ZM609.62,188.95h9.99v1.01h-9.99v-1.01Z"/>
      <path class="st9" d="M617.66,189.96v-1.01h5.48v-9.39h.98v10.4h-6.46ZM617.66,187.94v-1.01h3.53v-7.37h.98v8.38h-4.51Z"/>
      <path class="st9" d="M634.71,181.95h8.04v13h-8.04v-13Z"/>
      <path class="st9" d="M642.75,181.95h8.04v13h-8.04v-13Z"/>
      <path class="st9" d="M653.33,179.56h.98v17.77h-.98v-17.77ZM655.29,179.56h.98v17.77h-.98v-17.77Z"/>
      <path class="st9" d="M658.82,181.95h8.04v13h-8.04v-13Z"/>
      <path class="st9" d="M666.85,181.95h8.04v13h-8.04v-13Z"/>
      <path class="st9" d="M677.44,179.56h.98v17.77h-.98v-17.77ZM679.4,179.56h.98v17.77h-.98v-17.77Z"/>
      <path class="st9" d="M699,181.95h8.04v13h-8.04v-13Z"/>
      <path class="st9" d="M707.04,181.95h8.04v13h-8.04v-13Z"/>
      <path class="st9" d="M717.62,179.56h.98v17.77h-.98v-17.77ZM719.58,179.56h.98v17.77h-.98v-17.77Z"/>
      <path class="st9" d="M723.11,181.95h8.04v13h-8.04v-13Z"/>
      <path class="st9" d="M731.14,181.95h8.04v13h-8.04v-13Z"/>
      <path class="st9" d="M741.73,179.56h.98v17.77h-.98v-17.77ZM743.69,179.56h.98v17.77h-.98v-17.77Z"/>
    </g>
    <g class="st5">
      <path class="st9" d="M42.59,197.56h.98v9.39h5.48v1.01h-6.46v-10.4ZM44.54,197.56h.98v7.37h3.53v1.01h-4.51v-8.38Z"/>
      <path class="st9" d="M47.09,204.93h9.99v1.01h-9.99v-1.01ZM47.09,206.95h9.99v1.01h-9.99v-1.01Z"/>
      <path class="st9" d="M55.13,204.93h9.99v1.01h-9.99v-1.01ZM55.13,206.95h9.99v1.01h-9.99v-1.01Z"/>
      <path class="st9" d="M63.17,204.93h9.99v1.01h-9.99v-1.01ZM63.17,206.95h9.99v1.01h-9.99v-1.01Z"/>
      <path class="st9" d="M71.2,204.93h9.99v1.01h-9.99v-1.01ZM71.2,206.95h9.99v1.01h-9.99v-1.01Z"/>
      <path class="st9" d="M79.24,204.93h9.99v1.01h-9.99v-1.01ZM79.24,206.95h9.99v1.01h-9.99v-1.01Z"/>
      <path class="st9" d="M87.28,207.96v-1.01h5.48v-9.39h.98v10.4h-6.46ZM87.28,205.94v-1.01h3.53v-7.37h.98v8.38h-4.51Z"/>
      <path class="st9" d="M106.88,197.56h.98v9.39h5.48v1.01h-6.46v-10.4ZM108.83,197.56h.98v7.37h3.53v1.01h-4.51v-8.38Z"/>
      <path class="st9" d="M111.38,204.93h9.99v1.01h-9.99v-1.01ZM111.38,206.95h9.99v1.01h-9.99v-1.01Z"/>
      <path class="st9" d="M119.42,204.93h9.99v1.01h-9.99v-1.01ZM119.42,206.95h9.99v1.01h-9.99v-1.01Z"/>
      <path class="st9" d="M127.46,204.93h9.99v1.01h-9.99v-1.01ZM127.46,206.95h9.99v1.01h-9.99v-1.01Z"/>
      <path class="st9" d="M135.49,204.93h9.99v1.01h-9.99v-1.01ZM135.49,206.95h9.99v1.01h-9.99v-1.01Z"/>
      <path class="st9" d="M143.53,204.93h9.99v1.01h-9.99v-1.01ZM143.53,206.95h9.99v1.01h-9.99v-1.01Z"/>
      <path class="st9" d="M151.56,207.96v-1.01h5.48v-9.39h.98v10.4h-6.46ZM151.56,205.94v-1.01h3.53v-7.37h.98v8.38h-4.51Z"/>
      <path class="st9" d="M171.17,197.56h.98v9.39h5.48v1.01h-6.46v-10.4ZM173.12,197.56h.98v7.37h3.53v1.01h-4.51v-8.38Z"/>
      <path class="st9" d="M175.67,204.93h9.99v1.01h-9.99v-1.01ZM175.67,206.95h9.99v1.01h-9.99v-1.01Z"/>
      <path class="st9" d="M183.71,207.96v-1.01h5.48v-9.39h.98v10.4h-6.46ZM183.71,205.94v-1.01h3.53v-7.37h.98v8.38h-4.51Z"/>
      <path class="st9" d="M211.35,197.56h.98v9.39h5.48v1.01h-6.46v-10.4ZM213.3,197.56h.98v7.37h3.53v1.01h-4.51v-8.38Z"/>
      <path class="st9" d="M215.85,204.93h9.99v1.01h-9.99v-1.01ZM215.85,206.95h9.99v1.01h-9.99v-1.01Z"/>
      <path class="st9" d="M223.89,204.93h9.99v1.01h-9.99v-1.01ZM223.89,206.95h9.99v1.01h-9.99v-1.01Z"/>
      <path class="st9" d="M231.93,204.93h9.99v1.01h-9.99v-1.01ZM231.93,206.95h9.99v1.01h-9.99v-1.01Z"/>
      <path class="st9" d="M239.96,207.96v-1.01h5.48v-9.39h.98v10.4h-6.46ZM239.96,205.94v-1.01h3.53v-7.37h.98v8.38h-4.51Z"/>
      <path class="st9" d="M275.64,197.56h.98v9.39h5.48v1.01h-6.46v-10.4ZM277.59,197.56h.98v7.37h3.53v1.01h-4.51v-8.38Z"/>
      <path class="st9" d="M280.14,204.93h9.99v1.01h-9.99v-1.01ZM280.14,206.95h9.99v1.01h-9.99v-1.01Z"/>
      <path class="st9" d="M288.18,207.96v-1.01h5.48v-9.39h.98v10.4h-6.46ZM288.18,205.94v-1.01h3.53v-7.37h.98v8.38h-4.51Z"/>
      <path class="st9" d="M323.85,197.56h.98v9.39h5.48v1.01h-6.46v-10.4ZM325.81,197.56h.98v7.37h3.53v1.01h-4.51v-8.38Z"/>
      <path class="st9" d="M328.36,204.93h9.99v1.01h-9.99v-1.01ZM328.36,206.95h9.99v1.01h-9.99v-1.01Z"/>
      <path class="st9" d="M336.4,204.93h9.99v1.01h-9.99v-1.01ZM336.4,206.95h9.99v1.01h-9.99v-1.01Z"/>
      <path class="st9" d="M344.43,204.93h9.99v1.01h-9.99v-1.01ZM344.43,206.95h9.99v1.01h-9.99v-1.01Z"/>
      <path class="st9" d="M352.47,204.93h9.99v1.01h-9.99v-1.01ZM352.47,206.95h9.99v1.01h-9.99v-1.01Z"/>
      <path class="st9" d="M360.5,204.93h9.99v1.01h-9.99v-1.01ZM360.5,206.95h9.99v1.01h-9.99v-1.01Z"/>
      <path class="st9" d="M368.54,204.93h9.99v1.01h-9.99v-1.01ZM368.54,206.95h9.99v1.01h-9.99v-1.01Z"/>
      <path class="st9" d="M376.58,207.96v-1.01h5.48v-9.39h.98v10.4h-6.46ZM376.58,205.94v-1.01h3.53v-7.37h.98v8.38h-4.51Z"/>
      <path class="st9" d="M388.14,197.56h.98v9.39h5.48v1.01h-6.46v-10.4ZM390.1,197.56h.98v7.37h3.53v1.01h-4.51v-8.38Z"/>
      <path class="st9" d="M392.65,204.93h9.99v1.01h-9.99v-1.01ZM392.65,206.95h9.99v1.01h-9.99v-1.01Z"/>
      <path class="st9" d="M400.68,207.96v-1.01h5.48v-9.39h.98v10.4h-6.46ZM400.68,205.94v-1.01h3.53v-7.37h.98v8.38h-4.51Z"/>
      <path class="st9" d="M428.32,197.56h.98v9.39h5.48v1.01h-6.46v-10.4ZM430.28,197.56h.98v7.37h3.53v1.01h-4.51v-8.38Z"/>
      <path class="st9" d="M432.83,204.93h9.99v1.01h-9.99v-1.01ZM432.83,206.95h9.99v1.01h-9.99v-1.01Z"/>
      <path class="st9" d="M440.87,204.93h9.99v1.01h-9.99v-1.01ZM440.87,206.95h9.99v1.01h-9.99v-1.01Z"/>
      <path class="st9" d="M448.9,204.93h9.99v1.01h-9.99v-1.01ZM448.9,206.95h9.99v1.01h-9.99v-1.01Z"/>
      <path class="st9" d="M456.94,207.96v-1.01h5.48v-9.39h.98v10.4h-6.46ZM456.94,205.94v-1.01h3.53v-7.37h.98v8.38h-4.51Z"/>
      <path class="st9" d="M492.61,197.56h.98v9.39h5.48v1.01h-6.46v-10.4ZM494.57,197.56h.98v7.37h3.53v1.01h-4.51v-8.38Z"/>
      <path class="st9" d="M497.12,204.93h9.99v1.01h-9.99v-1.01ZM497.12,206.95h9.99v1.01h-9.99v-1.01Z"/>
      <path class="st9" d="M505.15,207.96v-1.01h5.48v-9.39h.98v10.4h-6.46ZM505.15,205.94v-1.01h3.53v-7.37h.98v8.38h-4.51Z"/>
      <path class="st9" d="M572.97,197.56h.98v9.39h5.48v1.01h-6.46v-10.4ZM574.93,197.56h.98v7.37h3.53v1.01h-4.51v-8.38Z"/>
      <path class="st9" d="M577.48,204.93h9.99v1.01h-9.99v-1.01ZM577.48,206.95h9.99v1.01h-9.99v-1.01Z"/>
      <path class="st9" d="M585.52,207.96v-1.01h5.48v-9.39h.98v10.4h-6.46ZM585.52,205.94v-1.01h3.53v-7.37h.98v8.38h-4.51Z"/>
      <path class="st9" d="M637.26,197.56h.98v9.39h5.48v1.01h-6.46v-10.4ZM639.22,197.56h.98v7.37h3.53v1.01h-4.51v-8.38Z"/>
      <path class="st9" d="M641.77,204.93h9.99v1.01h-9.99v-1.01ZM641.77,206.95h9.99v1.01h-9.99v-1.01Z"/>
      <path class="st9" d="M649.8,207.96v-1.01h5.48v-9.39h.98v10.4h-6.46ZM649.8,205.94v-1.01h3.53v-7.37h.98v8.38h-4.51Z"/>
      <path class="st9" d="M661.37,197.56h.98v9.39h5.48v1.01h-6.46v-10.4ZM663.33,197.56h.98v7.37h3.53v1.01h-4.51v-8.38Z"/>
      <path class="st9" d="M665.88,204.93h9.99v1.01h-9.99v-1.01ZM665.88,206.95h9.99v1.01h-9.99v-1.01Z"/>
      <path class="st9" d="M673.91,207.96v-1.01h5.48v-9.39h.98v10.4h-6.46ZM673.91,205.94v-1.01h3.53v-7.37h.98v8.38h-4.51Z"/>
      <path class="st9" d="M701.55,197.56h.98v9.39h5.48v1.01h-6.46v-10.4ZM703.51,197.56h.98v7.37h3.53v1.01h-4.51v-8.38Z"/>
      <path class="st9" d="M706.06,204.93h9.99v1.01h-9.99v-1.01ZM706.06,206.95h9.99v1.01h-9.99v-1.01Z"/>
      <path class="st9" d="M714.09,207.96v-1.01h5.48v-9.39h.98v10.4h-6.46ZM714.09,205.94v-1.01h3.53v-7.37h.98v8.38h-4.51Z"/>
      <path class="st9" d="M725.66,197.56h.98v9.39h5.48v1.01h-6.46v-10.4ZM727.61,197.56h.98v7.37h3.53v1.01h-4.51v-8.38Z"/>
      <path class="st9" d="M730.17,204.93h9.99v1.01h-9.99v-1.01ZM730.17,206.95h9.99v1.01h-9.99v-1.01Z"/>
      <path class="st9" d="M738.2,207.96v-1.01h5.48v-9.39h.98v10.4h-6.46ZM738.2,205.94v-1.01h3.53v-7.37h.98v8.38h-4.51Z"/>
    </g>
    <g class="st5">
      <g class="st5">
        <path class="st4" d="M39.21,250.79h1.3c0,2.04-1.48,3.43-3.64,3.43-2.48,0-3.93-1.68-3.93-4.56v-1.88c0-2.89,1.44-4.56,3.93-4.56,2.23,0,3.6,1.36,3.65,3.61h-1.31c-.04-1.43-.99-2.39-2.34-2.39-1.71,0-2.6,1.15-2.6,3.34v1.88c0,2.19.89,3.34,2.61,3.34,1.41,0,2.3-.84,2.34-2.2Z"/>
        <path class="st4" d="M42.47,250.63v-1.2c0-2.15,1.34-3.52,3.44-3.52s3.44,1.37,3.44,3.52v1.2c0,2.15-1.34,3.52-3.44,3.52s-3.44-1.37-3.44-3.52ZM43.7,249.54v.97c0,1.57.85,2.53,2.21,2.53s2.21-.96,2.21-2.53v-.97c0-1.56-.85-2.53-2.21-2.53s-2.21.97-2.21,2.53Z"/>
        <path class="st4" d="M51.93,246.05h1.19v1.4h.1c.42-.99,1.33-1.55,2.54-1.55,1.73,0,2.67,1.03,2.67,2.94v5.16h-1.25v-4.84c0-1.44-.59-2.11-1.82-2.11-1.31,0-2.19.92-2.19,2.27v4.68h-1.25v-7.95Z"/>
        <path class="st4" d="M64.33,243.92v2.15h3.22v1.06h-3.21v4.48c0,.87.61,1.33,1.73,1.33.45,0,1.25-.02,1.46-.04v1.05c-.2.04-1.16.07-1.55.07-1.97,0-2.89-.75-2.89-2.4v-4.5h-2.12v-1.06h2.12v-2.15h1.23Z"/>
        <path class="st4" d="M77.08,251.95c-.24,1.31-1.5,2.2-3.17,2.2-2.18,0-3.45-1.31-3.45-3.57v-1.19c0-2.1,1.34-3.47,3.36-3.47s3.28,1.37,3.28,3.67v.78h-5.41v.32c0,1.46.86,2.4,2.22,2.4,1,0,1.74-.43,1.96-1.12h1.21ZM71.69,249.41h4.18c0-1.52-.78-2.43-2.06-2.43s-2.12.91-2.12,2.43Z"/>
        <path class="st4" d="M79.75,246.05h1.19v1.4h.1c.42-.99,1.33-1.55,2.54-1.55,1.73,0,2.67,1.03,2.67,2.94v5.16h-1.25v-4.84c0-1.44-.59-2.11-1.82-2.11-1.31,0-2.19.92-2.19,2.27v4.68h-1.25v-7.95Z"/>
        <path class="st4" d="M92.15,243.92v2.15h3.22v1.06h-3.21v4.48c0,.87.61,1.33,1.73,1.33.45,0,1.25-.02,1.46-.04v1.05c-.2.04-1.16.07-1.55.07-1.97,0-2.89-.75-2.89-2.4v-4.5h-2.12v-1.06h2.12v-2.15h1.23Z"/>
        <path class="st4" d="M108.06,254h-1.16v-10.57h1.43l2.44,6.54h.1l2.43-6.54h1.43v10.57h-1.16v-4.05l.07-4.28h-.1l-2.23,5.85h-1.01l-2.23-5.85h-.1l.07,4.28v4.05Z"/>
        <path class="st4" d="M116.76,251.74c0-1.41,1.01-2.24,2.82-2.34l2.18-.11v-.72c0-1-.61-1.54-1.71-1.54-.92,0-1.56.39-1.77,1.07h-1.22c.15-1.27,1.38-2.15,3-2.15,1.87,0,2.94.95,2.94,2.61v5.44h-1.19v-1.19h-.12c-.38.85-1.25,1.33-2.4,1.33-1.52,0-2.53-.95-2.53-2.39ZM121.76,251.19v-.94l-2.04.1c-1.11.05-1.7.53-1.7,1.35s.62,1.35,1.63,1.35c1.2,0,2.12-.8,2.12-1.86Z"/>
        <path class="st4" d="M132.9,249.29v1.48c0,2.04-1.2,3.36-3.04,3.36-1.15,0-1.99-.49-2.34-1.36h-.14v3.91h-1.27v-10.63h1.23v1.22h.13c.42-.88,1.25-1.35,2.38-1.35,1.84,0,3.04,1.33,3.04,3.37ZM127.35,249.47v1.14c0,1.47.83,2.41,2.15,2.41s2.15-.94,2.15-2.41v-1.14c0-1.46-.83-2.4-2.15-2.4s-2.15.94-2.15,2.4Z"/>
      </g>
    </g>
    <g class="st5">
      <path class="st4" d="M38.45,274.97h-3.68l-.92,3.03h-1.31l3.41-10.57h1.38l3.41,10.57h-1.36l-.92-3.03ZM38.12,273.86l-1.48-4.88h-.04l-1.49,4.88h3Z"/>
      <path class="st4" d="M57.76,274.79h1.3c0,2.04-1.48,3.43-3.64,3.43-2.48,0-3.93-1.68-3.93-4.56v-1.88c0-2.89,1.44-4.56,3.93-4.56,2.23,0,3.6,1.36,3.65,3.61h-1.31c-.04-1.43-.99-2.39-2.34-2.39-1.71,0-2.6,1.15-2.6,3.34v1.88c0,2.19.89,3.34,2.61,3.34,1.41,0,2.3-.84,2.34-2.2Z"/>
      <path class="st4" d="M61.34,278v-1.03h2.72v-9h-2.7v-1.03h3.94v10.03h2.62v1.03h-6.58Z"/>
      <path class="st4" d="M70.39,275.74c0-1.41,1.01-2.24,2.82-2.34l2.18-.11v-.72c0-1-.61-1.54-1.71-1.54-.92,0-1.56.39-1.77,1.07h-1.22c.15-1.27,1.38-2.15,3-2.15,1.87,0,2.94.95,2.94,2.61v5.44h-1.19v-1.19h-.12c-.38.85-1.25,1.33-2.4,1.33-1.52,0-2.53-.95-2.53-2.39ZM75.4,275.19v-.94l-2.04.1c-1.11.05-1.7.53-1.7,1.35s.62,1.35,1.63,1.35c1.2,0,2.12-.8,2.12-1.86Z"/>
      <path class="st4" d="M86.25,278h-1.19v-1.4h-.1c-.42.99-1.33,1.54-2.54,1.54-1.73,0-2.67-1.03-2.67-2.94v-5.16h1.25v4.84c0,1.44.59,2.11,1.82,2.11,1.31,0,2.19-.92,2.19-2.27v-4.68h1.25v7.95Z"/>
      <path class="st4" d="M94.15,276.78c-.41.88-1.25,1.35-2.38,1.35-1.84,0-3.04-1.33-3.04-3.37v-1.48c0-2.04,1.2-3.36,3.04-3.36,1.15,0,2,.49,2.34,1.36h.13v-4.35h1.27v11.07h-1.22v-1.22h-.14ZM89.99,274.59c0,1.46.84,2.41,2.15,2.41s2.15-.94,2.15-2.41v-1.14c0-1.46-.84-2.4-2.15-2.4s-2.15.94-2.15,2.4v1.14Z"/>
      <path class="st4" d="M104.9,275.95c-.24,1.31-1.5,2.2-3.17,2.2-2.18,0-3.45-1.31-3.45-3.57v-1.19c0-2.1,1.34-3.47,3.36-3.47s3.28,1.37,3.28,3.67v.78h-5.41v.32c0,1.46.86,2.4,2.22,2.4,1,0,1.74-.43,1.96-1.12h1.21ZM99.51,273.41h4.18c0-1.52-.78-2.43-2.06-2.43s-2.12.91-2.12,2.43Z"/>
      <path class="st4" d="M122.67,274.79h1.3c0,2.04-1.48,3.43-3.64,3.43-2.48,0-3.93-1.68-3.93-4.56v-1.88c0-2.89,1.44-4.56,3.93-4.56,2.23,0,3.6,1.36,3.65,3.61h-1.31c-.04-1.43-.99-2.39-2.34-2.39-1.71,0-2.6,1.15-2.6,3.34v1.88c0,2.19.89,3.34,2.61,3.34,1.41,0,2.3-.84,2.34-2.2Z"/>
      <path class="st4" d="M125.92,274.63v-1.2c0-2.15,1.34-3.52,3.44-3.52s3.44,1.37,3.44,3.52v1.2c0,2.15-1.34,3.52-3.44,3.52s-3.44-1.37-3.44-3.52ZM127.15,273.54v.97c0,1.57.85,2.53,2.21,2.53s2.21-.96,2.21-2.53v-.97c0-1.56-.85-2.53-2.21-2.53s-2.21.97-2.21,2.53Z"/>
      <path class="st4" d="M140.52,276.78c-.41.88-1.25,1.35-2.38,1.35-1.84,0-3.04-1.33-3.04-3.37v-1.48c0-2.04,1.2-3.36,3.04-3.36,1.15,0,2,.49,2.34,1.36h.13v-4.35h1.27v11.07h-1.22v-1.22h-.14ZM136.35,274.59c0,1.46.84,2.41,2.15,2.41s2.15-.94,2.15-2.41v-1.14c0-1.46-.84-2.4-2.15-2.4s-2.15.94-2.15,2.4v1.14Z"/>
      <path class="st4" d="M151.26,275.95c-.24,1.31-1.5,2.2-3.17,2.2-2.18,0-3.45-1.31-3.45-3.57v-1.19c0-2.1,1.34-3.47,3.36-3.47s3.28,1.37,3.28,3.67v.78h-5.41v.32c0,1.46.86,2.4,2.22,2.4,1,0,1.74-.43,1.96-1.12h1.21ZM145.87,273.41h4.18c0-1.52-.78-2.43-2.06-2.43s-2.12.91-2.12,2.43Z"/>
      <path class="st4" d="M166.48,269.9c1.66,0,2.78.83,2.92,2.15h-1.2c-.15-.7-.81-1.12-1.74-1.12-1.01,0-1.66.47-1.66,1.19,0,.61.41.95,1.41,1.17l1.12.26c1.55.35,2.25,1.03,2.25,2.17,0,1.46-1.22,2.42-3.11,2.42s-3-.84-3.13-2.21h1.27c.18.73.89,1.16,1.91,1.16,1.08,0,1.77-.49,1.77-1.25,0-.63-.39-.97-1.4-1.19l-1.18-.27c-1.44-.33-2.15-1.05-2.15-2.18,0-1.38,1.17-2.3,2.92-2.3Z"/>
      <path class="st4" d="M178.11,278l-2.72-3.95-1.09,1.05v2.89h-1.25v-11.07h1.25v6.69h.1l3.46-3.57h1.51l-3.08,3.14,3.3,4.8h-1.48Z"/>
      <path class="st4" d="M181.88,278v-1.03h2.72v-5.88h-2.7v-1.03h3.93v6.91h2.63v1.03h-6.58ZM184.1,267.08c0-.58.45-1.02,1.03-1.02s1.03.44,1.03,1.02-.45,1.03-1.03,1.03-1.03-.44-1.03-1.03Z"/>
      <path class="st4" d="M191.16,278v-1.03h2.72v-9h-2.7v-1.03h3.94v10.03h2.62v1.03h-6.58Z"/>
      <path class="st4" d="M200.43,278v-1.03h2.72v-9h-2.7v-1.03h3.94v10.03h2.62v1.03h-6.58Z"/>
      <path class="st4" d="M220.91,271.14h-2.13v-1.06h2.13v-.8c0-1.54.95-2.26,2.91-2.26.46,0,1.57.04,1.83.07v1.02c-.34-.04-1.37-.07-1.82-.07-1.11,0-1.69.41-1.69,1.21v.82h3.51v1.06h-3.49v6.86h-1.25v-6.86Z"/>
      <path class="st4" d="M227.92,274.63v-1.2c0-2.15,1.34-3.52,3.44-3.52s3.44,1.37,3.44,3.52v1.2c0,2.15-1.34,3.52-3.44,3.52s-3.44-1.37-3.44-3.52ZM229.15,273.54v.97c0,1.57.85,2.53,2.21,2.53s2.21-.96,2.21-2.53v-.97c0-1.56-.85-2.53-2.21-2.53s-2.21.97-2.21,2.53Z"/>
      <path class="st4" d="M240.46,272.08c.29-1.47,1.28-2.23,2.81-2.23.45,0,.89.07,1.15.18v1.4c-.37-.13-.88-.22-1.31-.22-1.76,0-2.8,1.22-2.8,3.24v2.56h2.46v1h-5.28v-1h1.6v-5.96h-1.77v-1h2.97v2.03h.16Z"/>
      <path class="st4" d="M263.01,278h-1.12v-5.49c0-.97-.35-1.47-1.02-1.47s-1.12.61-1.12,1.6v5.36h-1.11v-5.49c0-.96-.35-1.46-1.03-1.46s-1.14.61-1.14,1.6v5.36h-1.12v-7.95h1.11v1.12h.13c.2-.8.77-1.27,1.52-1.27s1.27.46,1.44,1.25h.13c.21-.76.84-1.25,1.64-1.25,1.11,0,1.68.77,1.68,2.24v5.85Z"/>
      <path class="st4" d="M265.12,275.74c0-1.41,1.01-2.24,2.82-2.34l2.18-.11v-.72c0-1-.61-1.54-1.71-1.54-.92,0-1.56.39-1.77,1.07h-1.22c.15-1.27,1.38-2.15,3-2.15,1.87,0,2.94.95,2.94,2.61v5.44h-1.19v-1.19h-.12c-.38.85-1.25,1.33-2.4,1.33-1.52,0-2.53-.95-2.53-2.39ZM270.12,275.19v-.94l-2.04.1c-1.11.05-1.7.53-1.7,1.35s.62,1.35,1.63,1.35c1.2,0,2.12-.8,2.12-1.86Z"/>
      <path class="st4" d="M281.26,273.29v1.48c0,2.04-1.2,3.36-3.04,3.36-1.15,0-1.99-.49-2.34-1.36h-.14v3.91h-1.27v-10.63h1.23v1.22h.13c.42-.88,1.25-1.35,2.38-1.35,1.84,0,3.04,1.33,3.04,3.37ZM275.71,273.47v1.14c0,1.47.83,2.41,2.15,2.41s2.15-.94,2.15-2.41v-1.14c0-1.46-.83-2.4-2.15-2.4s-2.15.94-2.15,2.4Z"/>
      <path class="st4" d="M290.53,273.29v1.48c0,2.04-1.2,3.36-3.04,3.36-1.15,0-1.99-.49-2.34-1.36h-.14v3.91h-1.27v-10.63h1.23v1.22h.13c.42-.88,1.25-1.35,2.38-1.35,1.84,0,3.04,1.33,3.04,3.37ZM284.99,273.47v1.14c0,1.47.83,2.41,2.15,2.41s2.15-.94,2.15-2.41v-1.14c0-1.46-.83-2.4-2.15-2.4s-2.15.94-2.15,2.4Z"/>
      <path class="st4" d="M293.15,278v-1.03h2.72v-5.88h-2.7v-1.03h3.93v6.91h2.63v1.03h-6.58ZM295.37,267.08c0-.58.45-1.02,1.03-1.02s1.03.44,1.03,1.02-.45,1.03-1.03,1.03-1.03-.44-1.03-1.03Z"/>
      <path class="st4" d="M302.29,270.05h1.19v1.4h.1c.42-.99,1.33-1.55,2.54-1.55,1.73,0,2.67,1.03,2.67,2.94v5.16h-1.24v-4.84c0-1.44-.59-2.11-1.82-2.11-1.31,0-2.19.92-2.19,2.27v4.68h-1.25v-7.95Z"/>
      <path class="st4" d="M311.35,278.86h1.23c.16.66.96,1.09,2.02,1.09,1.39,0,2.16-.7,2.16-1.98v-1.24h-.13c-.35.84-1.23,1.34-2.39,1.34-1.84,0-3.05-1.33-3.05-3.36v-1.43c0-2.04,1.22-3.36,3.08-3.36,1.15,0,2.02.5,2.37,1.36h.14v-1.23h1.23v7.95c0,1.87-1.28,2.98-3.43,2.98-1.84,0-3.07-.8-3.23-2.12ZM314.61,276.95c1.31,0,2.15-.95,2.15-2.41v-1.09c0-1.46-.84-2.4-2.15-2.4s-2.17.94-2.17,2.4v1.09c0,1.46.85,2.41,2.17,2.41Z"/>
      <path class="st4" d="M322.39,280.45l.95-5.23h1.68l-1.33,5.23h-1.31Z"/>
      <path class="st4" d="M339.29,275.74c0-1.41,1.01-2.24,2.82-2.34l2.18-.11v-.72c0-1-.61-1.54-1.71-1.54-.92,0-1.56.39-1.77,1.07h-1.22c.15-1.27,1.38-2.15,3-2.15,1.87,0,2.94.95,2.94,2.61v5.44h-1.19v-1.19h-.12c-.38.85-1.25,1.33-2.4,1.33-1.52,0-2.53-.95-2.53-2.39ZM344.3,275.19v-.94l-2.04.1c-1.11.05-1.7.53-1.7,1.35s.62,1.35,1.63,1.35c1.2,0,2.12-.8,2.12-1.86Z"/>
      <path class="st4" d="M355.15,278h-1.19v-1.4h-.1c-.42.99-1.33,1.54-2.54,1.54-1.73,0-2.67-1.03-2.67-2.94v-5.16h1.24v4.84c0,1.44.59,2.11,1.82,2.11,1.31,0,2.19-.92,2.19-2.27v-4.68h1.25v7.95Z"/>
      <path class="st4" d="M363.05,276.78c-.41.88-1.25,1.35-2.38,1.35-1.84,0-3.04-1.33-3.04-3.37v-1.48c0-2.04,1.2-3.36,3.04-3.36,1.15,0,2,.49,2.34,1.36h.13v-4.35h1.27v11.07h-1.22v-1.22h-.14ZM358.89,274.59c0,1.46.84,2.41,2.15,2.41s2.15-.94,2.15-2.41v-1.14c0-1.46-.84-2.4-2.15-2.4s-2.15.94-2.15,2.4v1.14Z"/>
      <path class="st4" d="M367.33,278v-1.03h2.72v-5.88h-2.7v-1.03h3.93v6.91h2.63v1.03h-6.58ZM369.55,267.08c0-.58.45-1.02,1.03-1.02s1.03.44,1.03,1.02-.45,1.03-1.03,1.03-1.03-.44-1.03-1.03Z"/>
      <path class="st4" d="M379.59,267.92v2.15h3.22v1.06h-3.21v4.48c0,.87.61,1.33,1.73,1.33.45,0,1.25-.02,1.46-.04v1.05c-.2.04-1.16.07-1.54.07-1.97,0-2.89-.75-2.89-2.4v-4.5h-2.12v-1.06h2.12v-2.15h1.23Z"/>
      <path class="st4" d="M385.88,278v-1.03h2.72v-5.88h-2.7v-1.03h3.93v6.91h2.63v1.03h-6.58ZM388.1,267.08c0-.58.45-1.02,1.03-1.02s1.03.44,1.03,1.02-.45,1.03-1.03,1.03-1.03-.44-1.03-1.03Z"/>
      <path class="st4" d="M395.01,270.05h1.19v1.4h.1c.42-.99,1.33-1.55,2.54-1.55,1.73,0,2.67,1.03,2.67,2.94v5.16h-1.24v-4.84c0-1.44-.59-2.11-1.82-2.11-1.31,0-2.19.92-2.19,2.27v4.68h-1.25v-7.95Z"/>
      <path class="st4" d="M404.07,278.86h1.23c.16.66.96,1.09,2.02,1.09,1.39,0,2.16-.7,2.16-1.98v-1.24h-.13c-.35.84-1.23,1.34-2.39,1.34-1.84,0-3.05-1.33-3.05-3.36v-1.43c0-2.04,1.22-3.36,3.08-3.36,1.15,0,2.02.5,2.37,1.36h.14v-1.23h1.23v7.95c0,1.87-1.28,2.98-3.43,2.98-1.84,0-3.07-.8-3.23-2.12ZM407.34,276.95c1.31,0,2.15-.95,2.15-2.41v-1.09c0-1.46-.84-2.4-2.15-2.4s-2.17.94-2.17,2.4v1.09c0,1.46.85,2.41,2.17,2.41Z"/>
      <path class="st4" d="M415.12,280.45l.95-5.23h1.68l-1.33,5.23h-1.31Z"/>
      <path class="st4" d="M432.02,275.74c0-1.41,1.01-2.24,2.82-2.34l2.18-.11v-.72c0-1-.61-1.54-1.71-1.54-.92,0-1.56.39-1.77,1.07h-1.22c.15-1.27,1.38-2.15,3-2.15,1.87,0,2.94.95,2.94,2.61v5.44h-1.19v-1.19h-.12c-.38.85-1.25,1.33-2.4,1.33-1.52,0-2.53-.95-2.53-2.39ZM437.02,275.19v-.94l-2.04.1c-1.11.05-1.7.53-1.7,1.35s.62,1.35,1.63,1.35c1.2,0,2.12-.8,2.12-1.86Z"/>
      <path class="st4" d="M441.37,270.05h1.19v1.4h.1c.42-.99,1.33-1.55,2.54-1.55,1.73,0,2.67,1.03,2.67,2.94v5.16h-1.25v-4.84c0-1.44-.59-2.11-1.82-2.11-1.31,0-2.19.92-2.19,2.27v4.68h-1.24v-7.95Z"/>
      <path class="st4" d="M455.78,276.78c-.41.88-1.25,1.35-2.38,1.35-1.84,0-3.04-1.33-3.04-3.37v-1.48c0-2.04,1.2-3.36,3.04-3.36,1.15,0,2,.49,2.34,1.36h.13v-4.35h1.27v11.07h-1.22v-1.22h-.14ZM451.61,274.59c0,1.46.84,2.41,2.15,2.41s2.15-.94,2.15-2.41v-1.14c0-1.46-.84-2.4-2.15-2.4s-2.15.94-2.15,2.4v1.14Z"/>
      <path class="st4" d="M475.98,273.29v1.48c0,2.04-1.2,3.36-3.04,3.36-1.15,0-1.99-.49-2.34-1.36h-.14v3.91h-1.27v-10.63h1.23v1.22h.13c.42-.88,1.25-1.35,2.38-1.35,1.84,0,3.04,1.33,3.04,3.37ZM470.44,273.47v1.14c0,1.47.83,2.41,2.15,2.41s2.15-.94,2.15-2.41v-1.14c0-1.46-.83-2.4-2.15-2.4s-2.15.94-2.15,2.4Z"/>
      <path class="st4" d="M478.6,278v-1.03h2.72v-9h-2.7v-1.03h3.94v10.03h2.62v1.03h-6.58Z"/>
      <path class="st4" d="M487.65,275.74c0-1.41,1.01-2.24,2.82-2.34l2.18-.11v-.72c0-1-.61-1.54-1.71-1.54-.92,0-1.56.39-1.77,1.07h-1.22c.15-1.27,1.38-2.15,3-2.15,1.87,0,2.94.95,2.94,2.61v5.44h-1.19v-1.19h-.12c-.38.85-1.25,1.33-2.4,1.33-1.52,0-2.53-.95-2.53-2.39ZM492.66,275.19v-.94l-2.04.1c-1.11.05-1.7.53-1.7,1.35s.62,1.35,1.63,1.35c1.2,0,2.12-.8,2.12-1.86Z"/>
      <path class="st4" d="M497.01,270.05h1.19v1.4h.1c.42-.99,1.33-1.55,2.54-1.55,1.73,0,2.67,1.03,2.67,2.94v5.16h-1.25v-4.84c0-1.44-.59-2.11-1.82-2.11-1.31,0-2.19.92-2.19,2.27v4.68h-1.24v-7.95Z"/>
      <path class="st4" d="M506.28,270.05h1.19v1.4h.1c.42-.99,1.33-1.55,2.54-1.55,1.73,0,2.67,1.03,2.67,2.94v5.16h-1.24v-4.84c0-1.44-.59-2.11-1.82-2.11-1.31,0-2.19.92-2.19,2.27v4.68h-1.25v-7.95Z"/>
      <path class="st4" d="M515.69,278v-1.03h2.72v-5.88h-2.7v-1.03h3.93v6.91h2.63v1.03h-6.58ZM517.91,267.08c0-.58.45-1.02,1.03-1.02s1.03.44,1.03,1.02-.45,1.03-1.03,1.03-1.03-.44-1.03-1.03Z"/>
      <path class="st4" d="M524.82,270.05h1.19v1.4h.1c.42-.99,1.33-1.55,2.54-1.55,1.73,0,2.67,1.03,2.67,2.94v5.16h-1.24v-4.84c0-1.44-.59-2.11-1.82-2.11-1.31,0-2.19.92-2.19,2.27v4.68h-1.25v-7.95Z"/>
      <path class="st4" d="M533.88,278.86h1.23c.16.66.96,1.09,2.02,1.09,1.39,0,2.16-.7,2.16-1.98v-1.24h-.13c-.35.84-1.23,1.34-2.39,1.34-1.84,0-3.05-1.33-3.05-3.36v-1.43c0-2.04,1.22-3.36,3.08-3.36,1.15,0,2.02.5,2.37,1.36h.14v-1.23h1.23v7.95c0,1.87-1.28,2.98-3.43,2.98-1.84,0-3.07-.8-3.23-2.12ZM537.15,276.95c1.31,0,2.15-.95,2.15-2.41v-1.09c0-1.46-.84-2.4-2.15-2.4s-2.17.94-2.17,2.4v1.09c0,1.46.85,2.41,2.17,2.41Z"/>
    </g>
    <g>
      <g class="st5">
        <path class="st4" d="M38.72,292.53c-.15-.93-.93-1.52-1.96-1.52-1.38,0-2.15.94-2.15,2.65v.72c0,1.71.77,2.64,2.15,2.64,1.03,0,1.8-.58,1.96-1.49h1.23c-.2,1.62-1.41,2.61-3.16,2.61-2.16,0-3.42-1.33-3.42-3.6v-1.04c0-2.28,1.26-3.6,3.42-3.6,1.76,0,2.96,1,3.16,2.63h-1.23Z"/>
        <path class="st4" d="M42.47,294.63v-1.2c0-2.15,1.34-3.52,3.44-3.52s3.44,1.37,3.44,3.52v1.2c0,2.15-1.34,3.52-3.44,3.52s-3.44-1.37-3.44-3.52ZM43.7,293.54v.97c0,1.57.85,2.53,2.21,2.53s2.21-.96,2.21-2.53v-.97c0-1.56-.85-2.53-2.21-2.53s-2.21.97-2.21,2.53Z"/>
        <path class="st4" d="M51.93,290.05h1.19v1.4h.1c.42-.99,1.33-1.55,2.54-1.55,1.73,0,2.67,1.03,2.67,2.94v5.16h-1.25v-4.84c0-1.44-.59-2.11-1.82-2.11-1.31,0-2.19.92-2.19,2.27v4.68h-1.25v-7.95Z"/>
        <path class="st4" d="M64.33,287.92v2.15h3.22v1.06h-3.21v4.48c0,.87.61,1.33,1.73,1.33.45,0,1.25-.02,1.46-.04v1.05c-.2.04-1.16.07-1.55.07-1.97,0-2.89-.75-2.89-2.4v-4.5h-2.12v-1.06h2.12v-2.15h1.23Z"/>
        <path class="st4" d="M77.08,295.95c-.24,1.31-1.5,2.2-3.17,2.2-2.18,0-3.45-1.31-3.45-3.57v-1.19c0-2.1,1.34-3.47,3.36-3.47s3.28,1.37,3.28,3.67v.78h-5.41v.32c0,1.46.86,2.4,2.22,2.4,1,0,1.74-.43,1.96-1.12h1.21ZM71.69,293.41h4.18c0-1.52-.78-2.43-2.06-2.43s-2.12.91-2.12,2.43Z"/>
        <path class="st4" d="M79.75,290.05h1.19v1.4h.1c.42-.99,1.33-1.55,2.54-1.55,1.73,0,2.67,1.03,2.67,2.94v5.16h-1.25v-4.84c0-1.44-.59-2.11-1.82-2.11-1.31,0-2.19.92-2.19,2.27v4.68h-1.25v-7.95Z"/>
        <path class="st4" d="M92.15,287.92v2.15h3.22v1.06h-3.21v4.48c0,.87.61,1.33,1.73,1.33.45,0,1.25-.02,1.46-.04v1.05c-.2.04-1.16.07-1.55.07-1.97,0-2.89-.75-2.89-2.4v-4.5h-2.12v-1.06h2.12v-2.15h1.23Z"/>
        <path class="st4" d="M110.85,289.9c1.66,0,2.78.83,2.92,2.15h-1.2c-.15-.7-.81-1.12-1.74-1.12-1.01,0-1.66.47-1.66,1.19,0,.61.41.95,1.41,1.17l1.12.26c1.55.35,2.25,1.03,2.25,2.17,0,1.46-1.22,2.42-3.11,2.42s-3-.84-3.13-2.21h1.27c.18.73.89,1.16,1.91,1.16,1.08,0,1.77-.49,1.77-1.25,0-.63-.39-.97-1.4-1.19l-1.18-.27c-1.44-.33-2.15-1.05-2.15-2.18,0-1.38,1.17-2.3,2.92-2.3Z"/>
        <path class="st4" d="M119.96,287.92v2.15h3.22v1.06h-3.21v4.48c0,.87.61,1.33,1.73,1.33.45,0,1.25-.02,1.46-.04v1.05c-.2.04-1.16.07-1.55.07-1.97,0-2.89-.75-2.89-2.4v-4.5h-2.12v-1.06h2.12v-2.15h1.23Z"/>
        <path class="st4" d="M129.19,292.08c.29-1.47,1.28-2.23,2.81-2.23.45,0,.89.07,1.15.18v1.4c-.37-.13-.88-.22-1.31-.22-1.76,0-2.8,1.22-2.8,3.24v2.56h2.46v1h-5.28v-1h1.6v-5.96h-1.77v-1h2.97v2.03h.16Z"/>
        <path class="st4" d="M135.3,295.74c0-1.41,1.01-2.24,2.82-2.34l2.18-.11v-.72c0-1-.61-1.54-1.71-1.54-.92,0-1.56.39-1.77,1.07h-1.22c.15-1.27,1.38-2.15,3-2.15,1.87,0,2.94.95,2.94,2.61v5.44h-1.19v-1.19h-.12c-.38.85-1.25,1.33-2.4,1.33-1.52,0-2.53-.95-2.53-2.39ZM140.3,295.19v-.94l-2.04.1c-1.11.05-1.7.53-1.7,1.35s.62,1.35,1.63,1.35c1.2,0,2.12-.8,2.12-1.86Z"/>
        <path class="st4" d="M147.78,287.92v2.15h3.22v1.06h-3.21v4.48c0,.87.61,1.33,1.73,1.33.45,0,1.25-.02,1.46-.04v1.05c-.2.04-1.16.07-1.55.07-1.97,0-2.89-.75-2.89-2.4v-4.5h-2.12v-1.06h2.12v-2.15h1.23Z"/>
        <path class="st4" d="M160.53,295.95c-.24,1.31-1.5,2.2-3.17,2.2-2.18,0-3.45-1.31-3.45-3.57v-1.19c0-2.1,1.34-3.47,3.36-3.47s3.28,1.37,3.28,3.67v.78h-5.41v.32c0,1.46.86,2.4,2.22,2.4,1,0,1.74-.43,1.96-1.12h1.21ZM155.14,293.41h4.18c0-1.52-.78-2.43-2.06-2.43s-2.12.91-2.12,2.43Z"/>
        <path class="st4" d="M162.99,298.86h1.23c.16.66.96,1.09,2.02,1.09,1.39,0,2.16-.7,2.16-1.98v-1.24h-.13c-.35.84-1.23,1.34-2.39,1.34-1.84,0-3.05-1.33-3.05-3.36v-1.43c0-2.04,1.22-3.36,3.08-3.36,1.15,0,2.02.5,2.37,1.36h.14v-1.23h1.23v7.95c0,1.87-1.27,2.98-3.43,2.98-1.84,0-3.07-.8-3.23-2.12ZM166.25,296.95c1.31,0,2.15-.95,2.15-2.41v-1.09c0-1.46-.84-2.4-2.15-2.4s-2.17.94-2.17,2.4v1.09c0,1.46.85,2.41,2.17,2.41Z"/>
        <path class="st4" d="M172.96,300.8v-1.09c.1.02.32.03.44.03.75,0,1.16-.34,1.49-1.26l.14-.43-2.92-8h1.35l2.23,6.65h.1l2.22-6.65h1.33l-3,8.24c-.7,1.96-1.36,2.53-2.83,2.53-.18,0-.42,0-.53-.02Z"/>
        <path class="st4" d="M189.63,293.89v-1.16h9.27v1.16h-9.27Z"/>
        <path class="st4" d="M210.93,296.78h-.14v1.22h-1.22v-11.07h1.27v4.35h.13c.35-.87,1.19-1.36,2.34-1.36,1.84,0,3.04,1.33,3.04,3.36v1.48c0,2.04-1.2,3.37-3.04,3.37-1.14,0-1.97-.47-2.38-1.35ZM215.1,294.59v-1.14c0-1.46-.83-2.4-2.15-2.4s-2.14.94-2.14,2.4v1.14c0,1.47.83,2.41,2.14,2.41s2.15-.94,2.15-2.41Z"/>
        <path class="st4" d="M219.32,300.8v-1.09c.1.02.32.03.44.03.75,0,1.16-.34,1.49-1.26l.14-.43-2.92-8h1.35l2.23,6.65h.1l2.22-6.65h1.33l-3,8.24c-.7,1.96-1.36,2.53-2.83,2.53-.18,0-.42,0-.53-.02Z"/>
      </g>
      <g class="st5">
        <path class="st9" d="M240.46,292.08c.29-1.47,1.28-2.23,2.81-2.23.45,0,.89.07,1.15.18v1.4c-.37-.13-.88-.22-1.31-.22-1.76,0-2.8,1.22-2.8,3.24v2.56h2.46v1h-5.28v-1h1.6v-5.96h-1.77v-1h2.97v2.03h.16Z"/>
        <path class="st9" d="M253.26,295.95c-.24,1.31-1.5,2.2-3.17,2.2-2.18,0-3.45-1.31-3.45-3.57v-1.19c0-2.1,1.34-3.47,3.36-3.47s3.28,1.37,3.28,3.67v.78h-5.41v.32c0,1.46.86,2.4,2.22,2.4,1,0,1.74-.43,1.96-1.12h1.21ZM247.87,293.41h4.18c0-1.52-.78-2.43-2.06-2.43s-2.12.91-2.12,2.43Z"/>
        <path class="st9" d="M259.13,291.45l-1.56,6.55h-1.22l-1.82-10.57h1.22l.64,4.23.64,4.4h.08l1.48-6.22h1.16l1.48,6.22h.08l.64-4.4.64-4.23h1.22l-1.82,10.57h-1.22l-1.56-6.55h-.09Z"/>
        <path class="st9" d="M265.33,298v-1.03h2.72v-5.88h-2.7v-1.03h3.93v6.91h2.63v1.03h-6.58ZM267.55,287.08c0-.58.45-1.02,1.03-1.02s1.03.44,1.03,1.02-.45,1.03-1.03,1.03-1.03-.44-1.03-1.03Z"/>
        <path class="st9" d="M277.55,292.08c.29-1.47,1.28-2.23,2.81-2.23.45,0,.89.07,1.15.18v1.4c-.37-.13-.88-.22-1.31-.22-1.76,0-2.8,1.22-2.8,3.24v2.56h2.46v1h-5.28v-1h1.6v-5.96h-1.77v-1h2.97v2.03h.16Z"/>
        <path class="st9" d="M290.35,295.95c-.24,1.31-1.5,2.2-3.17,2.2-2.18,0-3.45-1.31-3.45-3.57v-1.19c0-2.1,1.34-3.47,3.36-3.47s3.28,1.37,3.28,3.67v.78h-5.41v.32c0,1.46.86,2.4,2.22,2.4,1,0,1.74-.43,1.96-1.12h1.21ZM284.96,293.41h4.18c0-1.52-.78-2.43-2.06-2.43s-2.12.91-2.12,2.43Z"/>
        <path class="st9" d="M298.15,296.78c-.41.88-1.25,1.35-2.38,1.35-1.84,0-3.04-1.33-3.04-3.37v-1.48c0-2.04,1.2-3.36,3.04-3.36,1.15,0,2,.49,2.34,1.36h.13v-4.35h1.27v11.07h-1.22v-1.22h-.14ZM293.98,294.59c0,1.46.84,2.41,2.15,2.41s2.15-.94,2.15-2.41v-1.14c0-1.46-.84-2.4-2.15-2.4s-2.15.94-2.15,2.4v1.14Z"/>
      </g>
      <path class="st4" d="M304.21,296.69c0-.74.6-1.35,1.33-1.35s1.33.61,1.33,1.35-.6,1.35-1.33,1.35-1.33-.61-1.33-1.35Z"/>
    </g>
    <g class="st5">
      <g class="st5">
        <path class="st10" d="M32,337.12l.8-.85,2.58,2.53,5.1-5.07.8.85-5.9,5.91-3.38-3.37Z"/>
      </g>
      <g class="st5">
        <path class="st4" d="M58.76,342h-6.29v-10.57h1.28v9.37h5.01v1.2Z"/>
        <path class="st4" d="M61.01,338.63v-1.2c0-2.15,1.34-3.52,3.44-3.52s3.44,1.37,3.44,3.52v1.2c0,2.15-1.34,3.52-3.44,3.52s-3.44-1.37-3.44-3.52ZM62.24,337.54v.97c0,1.57.85,2.53,2.21,2.53s2.21-.96,2.21-2.53v-.97c0-1.56-.85-2.53-2.21-2.53s-2.21.97-2.21,2.53Z"/>
        <path class="st4" d="M70.39,339.74c0-1.41,1.01-2.24,2.82-2.34l2.18-.11v-.72c0-1-.61-1.54-1.71-1.54-.92,0-1.56.39-1.77,1.07h-1.22c.15-1.27,1.38-2.15,3-2.15,1.87,0,2.94.95,2.94,2.61v5.44h-1.19v-1.19h-.12c-.38.85-1.25,1.33-2.4,1.33-1.52,0-2.53-.95-2.53-2.39ZM75.4,339.19v-.94l-2.04.1c-1.11.05-1.7.53-1.7,1.35s.62,1.35,1.63,1.35c1.2,0,2.12-.8,2.12-1.86Z"/>
        <path class="st4" d="M84.88,340.78c-.41.88-1.25,1.35-2.38,1.35-1.84,0-3.04-1.33-3.04-3.37v-1.48c0-2.04,1.2-3.36,3.04-3.36,1.15,0,2,.49,2.34,1.36h.13v-4.35h1.27v11.07h-1.22v-1.22h-.14ZM80.71,338.59c0,1.46.84,2.41,2.15,2.41s2.15-.94,2.15-2.41v-1.14c0-1.46-.84-2.4-2.15-2.4s-2.15.94-2.15,2.4v1.14Z"/>
        <path class="st4" d="M95.63,339.95c-.24,1.31-1.5,2.2-3.17,2.2-2.18,0-3.45-1.31-3.45-3.57v-1.19c0-2.1,1.34-3.47,3.36-3.47s3.28,1.37,3.28,3.67v.78h-5.41v.32c0,1.46.86,2.4,2.22,2.4,1,0,1.74-.43,1.96-1.12h1.21ZM90.23,337.41h4.18c0-1.52-.78-2.43-2.06-2.43s-2.12.91-2.12,2.43Z"/>
        <path class="st4" d="M103.43,340.78c-.41.88-1.25,1.35-2.38,1.35-1.84,0-3.04-1.33-3.04-3.37v-1.48c0-2.04,1.2-3.36,3.04-3.36,1.15,0,2,.49,2.34,1.36h.13v-4.35h1.27v11.07h-1.22v-1.22h-.14ZM99.26,338.59c0,1.46.84,2.41,2.15,2.41s2.15-.94,2.15-2.41v-1.14c0-1.46-.84-2.4-2.15-2.4s-2.15.94-2.15,2.4v1.14Z"/>
        <path class="st4" d="M122.17,336.53c-.15-.93-.93-1.52-1.96-1.52-1.38,0-2.15.94-2.15,2.65v.72c0,1.71.77,2.64,2.15,2.64,1.03,0,1.8-.58,1.96-1.49h1.23c-.2,1.62-1.41,2.61-3.16,2.61-2.16,0-3.42-1.33-3.42-3.6v-1.04c0-2.28,1.26-3.6,3.42-3.6,1.76,0,2.96,1,3.16,2.63h-1.23Z"/>
        <path class="st4" d="M125.92,338.63v-1.2c0-2.15,1.34-3.52,3.44-3.52s3.44,1.37,3.44,3.52v1.2c0,2.15-1.34,3.52-3.44,3.52s-3.44-1.37-3.44-3.52ZM127.15,337.54v.97c0,1.57.85,2.53,2.21,2.53s2.21-.96,2.21-2.53v-.97c0-1.56-.85-2.53-2.21-2.53s-2.21.97-2.21,2.53Z"/>
        <path class="st4" d="M135.38,334.05h1.19v1.4h.1c.42-.99,1.33-1.55,2.54-1.55,1.73,0,2.67,1.03,2.67,2.94v5.16h-1.25v-4.84c0-1.44-.59-2.11-1.82-2.11-1.31,0-2.19.92-2.19,2.27v4.68h-1.25v-7.95Z"/>
        <path class="st4" d="M147.78,331.92v2.15h3.22v1.06h-3.21v4.48c0,.87.61,1.33,1.73,1.33.45,0,1.25-.02,1.46-.04v1.05c-.2.04-1.16.07-1.55.07-1.97,0-2.89-.75-2.89-2.4v-4.5h-2.12v-1.06h2.12v-2.15h1.23Z"/>
        <path class="st4" d="M160.53,339.95c-.24,1.31-1.5,2.2-3.17,2.2-2.18,0-3.45-1.31-3.45-3.57v-1.19c0-2.1,1.34-3.47,3.36-3.47s3.28,1.37,3.28,3.67v.78h-5.41v.32c0,1.46.86,2.4,2.22,2.4,1,0,1.74-.43,1.96-1.12h1.21ZM155.14,337.41h4.18c0-1.52-.78-2.43-2.06-2.43s-2.12.91-2.12,2.43Z"/>
        <path class="st4" d="M163.2,334.05h1.19v1.4h.1c.42-.99,1.33-1.55,2.54-1.55,1.73,0,2.67,1.03,2.67,2.94v5.16h-1.25v-4.84c0-1.44-.59-2.11-1.82-2.11-1.31,0-2.19.92-2.19,2.27v4.68h-1.25v-7.95Z"/>
        <path class="st4" d="M175.6,331.92v2.15h3.22v1.06h-3.21v4.48c0,.87.61,1.33,1.73,1.33.45,0,1.25-.02,1.46-.04v1.05c-.2.04-1.16.07-1.55.07-1.97,0-2.89-.75-2.89-2.4v-4.5h-2.12v-1.06h2.12v-2.15h1.23Z"/>
        <path class="st4" d="M191.16,342v-1.03h2.72v-5.88h-2.7v-1.03h3.93v6.91h2.63v1.03h-6.58ZM193.37,331.08c0-.58.45-1.02,1.03-1.02s1.03.44,1.03,1.02-.45,1.03-1.03,1.03-1.03-.44-1.03-1.03Z"/>
        <path class="st4" d="M200.29,334.05h1.19v1.4h.1c.42-.99,1.33-1.55,2.54-1.55,1.73,0,2.67,1.03,2.67,2.94v5.16h-1.25v-4.84c0-1.44-.59-2.11-1.82-2.11-1.31,0-2.19.92-2.19,2.27v4.68h-1.25v-7.95Z"/>
        <path class="st4" d="M210.56,334.05l2.22,6.61h.1l2.2-6.61h1.33l-2.9,7.95h-1.37l-2.91-7.95h1.33Z"/>
        <path class="st4" d="M225.44,339.95c-.24,1.31-1.5,2.2-3.17,2.2-2.18,0-3.45-1.31-3.45-3.57v-1.19c0-2.1,1.34-3.47,3.36-3.47s3.28,1.37,3.28,3.67v.78h-5.41v.32c0,1.46.86,2.4,2.22,2.4,1,0,1.74-.43,1.96-1.12h1.21ZM220.05,337.41h4.18c0-1.52-.78-2.43-2.06-2.43s-2.12.91-2.12,2.43Z"/>
        <path class="st4" d="M228.11,334.05h1.19v1.4h.1c.42-.99,1.33-1.55,2.54-1.55,1.73,0,2.67,1.03,2.67,2.94v5.16h-1.25v-4.84c0-1.44-.59-2.11-1.82-2.11-1.31,0-2.19.92-2.19,2.27v4.68h-1.25v-7.95Z"/>
        <path class="st4" d="M240.51,331.92v2.15h3.22v1.06h-3.21v4.48c0,.87.61,1.33,1.73,1.33.45,0,1.25-.02,1.46-.04v1.05c-.2.04-1.16.07-1.55.07-1.97,0-2.89-.75-2.89-2.4v-4.5h-2.12v-1.06h2.12v-2.15h1.23Z"/>
        <path class="st4" d="M246.46,338.63v-1.2c0-2.15,1.34-3.52,3.44-3.52s3.44,1.37,3.44,3.52v1.2c0,2.15-1.34,3.52-3.44,3.52s-3.44-1.37-3.44-3.52ZM247.69,337.54v.97c0,1.57.85,2.53,2.21,2.53s2.21-.96,2.21-2.53v-.97c0-1.56-.85-2.53-2.21-2.53s-2.21.97-2.21,2.53Z"/>
        <path class="st4" d="M259.01,336.08c.29-1.47,1.28-2.23,2.81-2.23.45,0,.89.07,1.15.18v1.4c-.37-.13-.88-.22-1.31-.22-1.76,0-2.8,1.22-2.8,3.24v2.56h2.46v1h-5.28v-1h1.6v-5.96h-1.77v-1h2.97v2.03h.16Z"/>
        <path class="st4" d="M265.69,344.8v-1.09c.1.02.32.03.44.03.75,0,1.16-.34,1.49-1.26l.14-.43-2.92-8h1.35l2.23,6.65h.1l2.22-6.65h1.33l-3,8.24c-.7,1.96-1.36,2.53-2.83,2.53-.18,0-.42,0-.53-.02Z"/>
      </g>
    </g>
    <g class="st5">
      <g class="st5">
        <path class="st10" d="M32,361.12l.8-.85,2.58,2.53,5.1-5.07.8.85-5.9,5.91-3.38-3.37Z"/>
      </g>
      <g class="st5">
        <path class="st4" d="M52.43,366h-1.16v-10.57h1.43l2.44,6.54h.1l2.43-6.54h1.43v10.57h-1.16v-4.05l.07-4.28h-.1l-2.23,5.85h-1.01l-2.23-5.85h-.1l.07,4.28v4.05Z"/>
        <path class="st4" d="M61.12,363.74c0-1.41,1.01-2.24,2.82-2.34l2.18-.11v-.72c0-1-.61-1.54-1.71-1.54-.92,0-1.56.39-1.77,1.07h-1.22c.15-1.27,1.38-2.15,3-2.15,1.87,0,2.94.95,2.94,2.61v5.44h-1.19v-1.19h-.12c-.38.85-1.25,1.33-2.4,1.33-1.52,0-2.53-.95-2.53-2.39ZM66.12,363.19v-.94l-2.04.1c-1.11.05-1.7.53-1.7,1.35s.62,1.35,1.63,1.35c1.2,0,2.12-.8,2.12-1.86Z"/>
        <path class="st4" d="M77.26,361.29v1.48c0,2.04-1.2,3.36-3.04,3.36-1.15,0-1.99-.49-2.34-1.36h-.14v3.91h-1.27v-10.63h1.23v1.22h.13c.42-.88,1.25-1.35,2.38-1.35,1.84,0,3.04,1.33,3.04,3.37ZM71.72,361.47v1.14c0,1.47.83,2.41,2.15,2.41s2.15-.94,2.15-2.41v-1.14c0-1.46-.83-2.4-2.15-2.4s-2.15.94-2.15,2.4Z"/>
        <path class="st4" d="M86.54,361.29v1.48c0,2.04-1.2,3.36-3.04,3.36-1.15,0-1.99-.49-2.34-1.36h-.14v3.91h-1.27v-10.63h1.23v1.22h.13c.42-.88,1.25-1.35,2.38-1.35,1.84,0,3.04,1.33,3.04,3.37ZM80.99,361.47v1.14c0,1.47.83,2.41,2.15,2.41s2.15-.94,2.15-2.41v-1.14c0-1.46-.83-2.4-2.15-2.4s-2.15.94-2.15,2.4Z"/>
        <path class="st4" d="M95.63,363.95c-.24,1.31-1.5,2.2-3.17,2.2-2.18,0-3.45-1.31-3.45-3.57v-1.19c0-2.1,1.34-3.47,3.36-3.47s3.28,1.37,3.28,3.67v.78h-5.41v.32c0,1.46.86,2.4,2.22,2.4,1,0,1.74-.43,1.96-1.12h1.21ZM90.23,361.41h4.18c0-1.52-.78-2.43-2.06-2.43s-2.12.91-2.12,2.43Z"/>
        <path class="st4" d="M103.43,364.78c-.41.88-1.25,1.35-2.38,1.35-1.84,0-3.04-1.33-3.04-3.37v-1.48c0-2.04,1.2-3.36,3.04-3.36,1.15,0,2,.49,2.34,1.36h.13v-4.35h1.27v11.07h-1.22v-1.22h-.14ZM99.26,362.59c0,1.46.84,2.41,2.15,2.41s2.15-.94,2.15-2.41v-1.14c0-1.46-.84-2.4-2.15-2.4s-2.15.94-2.15,2.4v1.14Z"/>
        <path class="st4" d="M119.96,355.92v2.15h3.22v1.06h-3.21v4.48c0,.87.61,1.33,1.73,1.33.45,0,1.25-.02,1.46-.04v1.05c-.2.04-1.16.07-1.55.07-1.97,0-2.89-.75-2.89-2.4v-4.5h-2.12v-1.06h2.12v-2.15h1.23Z"/>
        <path class="st4" d="M125.92,362.63v-1.2c0-2.15,1.34-3.52,3.44-3.52s3.44,1.37,3.44,3.52v1.2c0,2.15-1.34,3.52-3.44,3.52s-3.44-1.37-3.44-3.52ZM127.15,361.54v.97c0,1.57.85,2.53,2.21,2.53s2.21-.96,2.21-2.53v-.97c0-1.56-.85-2.53-2.21-2.53s-2.21.97-2.21,2.53Z"/>
        <path class="st4" d="M142.17,361.29v1.48c0,2.04-1.2,3.36-3.04,3.36-1.15,0-1.99-.49-2.34-1.36h-.14v3.91h-1.27v-10.63h1.23v1.22h.13c.42-.88,1.25-1.35,2.38-1.35,1.84,0,3.04,1.33,3.04,3.37ZM136.63,361.47v1.14c0,1.47.83,2.41,2.15,2.41s2.15-.94,2.15-2.41v-1.14c0-1.46-.83-2.4-2.15-2.4s-2.15.94-2.15,2.4Z"/>
        <path class="st4" d="M144.79,366v-1.03h2.72v-5.88h-2.7v-1.03h3.93v6.91h2.63v1.03h-6.58ZM147.01,355.08c0-.58.45-1.02,1.03-1.02s1.03.44,1.03,1.02-.45,1.03-1.03,1.03-1.03-.44-1.03-1.03Z"/>
        <path class="st4" d="M159.26,360.53c-.15-.93-.93-1.52-1.96-1.52-1.38,0-2.15.94-2.15,2.65v.72c0,1.71.77,2.64,2.15,2.64,1.03,0,1.8-.58,1.96-1.49h1.23c-.2,1.62-1.41,2.61-3.16,2.61-2.16,0-3.42-1.33-3.42-3.6v-1.04c0-2.28,1.26-3.6,3.42-3.6,1.76,0,2.96,1,3.16,2.63h-1.23Z"/>
        <path class="st4" d="M177.8,360.53c-.15-.93-.93-1.52-1.96-1.52-1.38,0-2.15.94-2.15,2.65v.72c0,1.71.77,2.64,2.15,2.64,1.03,0,1.8-.58,1.96-1.49h1.23c-.2,1.62-1.41,2.61-3.16,2.61-2.16,0-3.42-1.33-3.42-3.6v-1.04c0-2.28,1.26-3.6,3.42-3.6,1.76,0,2.96,1,3.16,2.63h-1.23Z"/>
        <path class="st4" d="M181.88,366v-1.03h2.72v-9h-2.7v-1.03h3.94v10.03h2.62v1.03h-6.58Z"/>
        <path class="st4" d="M197.52,366h-1.19v-1.4h-.1c-.42.99-1.33,1.54-2.54,1.54-1.73,0-2.67-1.03-2.67-2.94v-5.16h1.25v4.84c0,1.44.59,2.11,1.82,2.11,1.31,0,2.19-.92,2.19-2.27v-4.68h1.25v7.95Z"/>
        <path class="st4" d="M203.57,357.9c1.66,0,2.78.83,2.92,2.15h-1.2c-.15-.7-.81-1.12-1.74-1.12-1.01,0-1.66.47-1.66,1.19,0,.61.41.95,1.41,1.17l1.12.26c1.55.35,2.25,1.03,2.25,2.17,0,1.46-1.22,2.42-3.11,2.42s-3-.84-3.13-2.21h1.27c.18.73.89,1.16,1.91,1.16,1.08,0,1.77-.49,1.77-1.25,0-.63-.39-.97-1.4-1.19l-1.18-.27c-1.44-.33-2.15-1.05-2.15-2.18,0-1.38,1.17-2.3,2.92-2.3Z"/>
        <path class="st4" d="M212.69,355.92v2.15h3.22v1.06h-3.21v4.48c0,.87.61,1.33,1.73,1.33.45,0,1.25-.02,1.46-.04v1.05c-.2.04-1.16.07-1.55.07-1.97,0-2.89-.75-2.89-2.4v-4.5h-2.12v-1.06h2.12v-2.15h1.23Z"/>
        <path class="st4" d="M225.44,363.95c-.24,1.31-1.5,2.2-3.17,2.2-2.18,0-3.45-1.31-3.45-3.57v-1.19c0-2.1,1.34-3.47,3.36-3.47s3.28,1.37,3.28,3.67v.78h-5.41v.32c0,1.46.86,2.4,2.22,2.4,1,0,1.74-.43,1.96-1.12h1.21ZM220.05,361.41h4.18c0-1.52-.78-2.43-2.06-2.43s-2.12.91-2.12,2.43Z"/>
        <path class="st4" d="M231.19,360.08c.29-1.47,1.28-2.23,2.81-2.23.45,0,.89.07,1.15.18v1.4c-.37-.13-.88-.22-1.31-.22-1.76,0-2.8,1.22-2.8,3.24v2.56h2.46v1h-5.28v-1h1.6v-5.96h-1.77v-1h2.97v2.03h.16Z"/>
        <path class="st4" d="M240.66,357.9c1.66,0,2.78.83,2.92,2.15h-1.2c-.15-.7-.81-1.12-1.74-1.12-1.01,0-1.66.47-1.66,1.19,0,.61.41.95,1.41,1.17l1.12.26c1.55.35,2.25,1.03,2.25,2.17,0,1.46-1.22,2.42-3.11,2.42s-3-.84-3.13-2.21h1.27c.18.73.89,1.16,1.91,1.16,1.08,0,1.77-.49,1.77-1.25,0-.63-.39-.97-1.4-1.19l-1.18-.27c-1.44-.33-2.15-1.05-2.15-2.18,0-1.38,1.17-2.3,2.92-2.3Z"/>
      </g>
    </g>
    <g class="st5">
      <g class="st5">
        <path class="st10" d="M32,385.12l.8-.85,2.58,2.53,5.1-5.07.8.85-5.9,5.91-3.38-3.37Z"/>
      </g>
      <g class="st5">
        <path class="st4" d="M52.4,390v-1.15h2.14v-8.27h-2.14v-1.15h5.57v1.15h-2.14v8.27h2.14v1.15h-5.57Z"/>
        <path class="st4" d="M66.34,388.78c-.41.88-1.25,1.35-2.38,1.35-1.84,0-3.04-1.33-3.04-3.37v-1.48c0-2.04,1.2-3.36,3.04-3.36,1.15,0,2,.49,2.34,1.36h.13v-4.35h1.27v11.07h-1.22v-1.22h-.14ZM62.17,386.59c0,1.46.84,2.41,2.15,2.41s2.15-.94,2.15-2.41v-1.14c0-1.46-.84-2.4-2.15-2.4s-2.15.94-2.15,2.4v1.14Z"/>
        <path class="st4" d="M77.08,387.95c-.24,1.31-1.5,2.2-3.17,2.2-2.18,0-3.45-1.31-3.45-3.57v-1.19c0-2.1,1.34-3.47,3.36-3.47s3.28,1.37,3.28,3.67v.78h-5.41v.32c0,1.46.86,2.4,2.22,2.4,1,0,1.74-.43,1.96-1.12h1.21ZM71.69,385.41h4.18c0-1.52-.78-2.43-2.06-2.43s-2.12.91-2.12,2.43Z"/>
        <path class="st4" d="M79.75,382.05h1.19v1.4h.1c.42-.99,1.33-1.55,2.54-1.55,1.73,0,2.67,1.03,2.67,2.94v5.16h-1.25v-4.84c0-1.44-.59-2.11-1.82-2.11-1.31,0-2.19.92-2.19,2.27v4.68h-1.25v-7.95Z"/>
        <path class="st4" d="M92.15,379.92v2.15h3.22v1.06h-3.21v4.48c0,.87.61,1.33,1.73,1.33.45,0,1.25-.02,1.46-.04v1.05c-.2.04-1.16.07-1.55.07-1.97,0-2.89-.75-2.89-2.4v-4.5h-2.12v-1.06h2.12v-2.15h1.23Z"/>
        <path class="st4" d="M98.43,390v-1.03h2.72v-5.88h-2.7v-1.03h3.93v6.91h2.63v1.03h-6.58ZM100.65,379.08c0-.58.45-1.02,1.03-1.02s1.03.44,1.03,1.02-.45,1.03-1.03,1.03-1.03-.44-1.03-1.03Z"/>
        <path class="st4" d="M109.64,383.14h-2.13v-1.06h2.13v-.8c0-1.54.95-2.26,2.91-2.26.46,0,1.57.04,1.83.07v1.02c-.34-.04-1.37-.07-1.82-.07-1.11,0-1.69.41-1.69,1.21v.82h3.51v1.06h-3.49v6.86h-1.25v-6.86Z"/>
        <path class="st4" d="M116.98,390v-1.03h2.72v-5.88h-2.7v-1.03h3.93v6.91h2.63v1.03h-6.58ZM119.19,379.08c0-.58.45-1.02,1.03-1.02s1.03.44,1.03,1.02-.45,1.03-1.03,1.03-1.03-.44-1.03-1.03Z"/>
        <path class="st4" d="M132.72,387.95c-.24,1.31-1.5,2.2-3.17,2.2-2.18,0-3.45-1.31-3.45-3.57v-1.19c0-2.1,1.34-3.47,3.36-3.47s3.28,1.37,3.28,3.67v.78h-5.41v.32c0,1.46.86,2.4,2.22,2.4,1,0,1.74-.43,1.96-1.12h1.21ZM127.32,385.41h4.18c0-1.52-.78-2.43-2.06-2.43s-2.12.91-2.12,2.43Z"/>
        <path class="st4" d="M140.52,388.78c-.41.88-1.25,1.35-2.38,1.35-1.84,0-3.04-1.33-3.04-3.37v-1.48c0-2.04,1.2-3.36,3.04-3.36,1.15,0,2,.49,2.34,1.36h.13v-4.35h1.27v11.07h-1.22v-1.22h-.14ZM136.35,386.59c0,1.46.84,2.41,2.15,2.41s2.15-.94,2.15-2.41v-1.14c0-1.46-.84-2.4-2.15-2.4s-2.15.94-2.15,2.4v1.14Z"/>
        <path class="st4" d="M153.71,390.86h1.23c.16.66.96,1.09,2.02,1.09,1.39,0,2.16-.7,2.16-1.98v-1.24h-.13c-.35.84-1.23,1.34-2.39,1.34-1.84,0-3.05-1.33-3.05-3.36v-1.43c0-2.04,1.22-3.36,3.08-3.36,1.15,0,2.02.5,2.37,1.36h.14v-1.23h1.23v7.95c0,1.87-1.27,2.98-3.43,2.98-1.84,0-3.07-.8-3.23-2.12ZM156.98,388.95c1.31,0,2.15-.95,2.15-2.41v-1.09c0-1.46-.84-2.4-2.15-2.4s-2.17.94-2.17,2.4v1.09c0,1.46.85,2.41,2.17,2.41Z"/>
        <path class="st4" d="M163.12,387.74c0-1.41,1.01-2.24,2.82-2.34l2.18-.11v-.72c0-1-.61-1.54-1.71-1.54-.92,0-1.56.39-1.77,1.07h-1.22c.15-1.27,1.38-2.15,3-2.15,1.87,0,2.94.95,2.94,2.61v5.44h-1.19v-1.19h-.12c-.38.85-1.25,1.33-2.4,1.33-1.52,0-2.53-.95-2.53-2.39ZM168.12,387.19v-.94l-2.04.1c-1.11.05-1.7.53-1.7,1.35s.62,1.35,1.63,1.35c1.2,0,2.12-.8,2.12-1.86Z"/>
        <path class="st4" d="M179.26,385.29v1.48c0,2.04-1.2,3.36-3.04,3.36-1.15,0-1.99-.49-2.34-1.36h-.14v3.91h-1.27v-10.63h1.23v1.22h.13c.42-.88,1.25-1.35,2.38-1.35,1.84,0,3.04,1.33,3.04,3.37ZM173.72,385.47v1.14c0,1.47.83,2.41,2.15,2.41s2.15-.94,2.15-2.41v-1.14c0-1.46-.83-2.4-2.15-2.4s-2.15.94-2.15,2.4Z"/>
        <path class="st4" d="M185.02,381.9c1.66,0,2.78.83,2.92,2.15h-1.2c-.15-.7-.81-1.12-1.74-1.12-1.01,0-1.66.47-1.66,1.19,0,.61.41.95,1.41,1.17l1.12.26c1.55.35,2.25,1.03,2.25,2.17,0,1.46-1.22,2.42-3.11,2.42s-3-.84-3.13-2.21h1.27c.18.73.89,1.16,1.91,1.16,1.08,0,1.77-.49,1.77-1.25,0-.63-.39-.97-1.4-1.19l-1.18-.27c-1.44-.33-2.15-1.05-2.15-2.18,0-1.38,1.17-2.3,2.92-2.3Z"/>
        <path class="st4" d="M200.21,387.74c0-1.41,1.01-2.24,2.82-2.34l2.18-.11v-.72c0-1-.61-1.54-1.71-1.54-.92,0-1.56.39-1.77,1.07h-1.22c.15-1.27,1.38-2.15,3-2.15,1.87,0,2.94.95,2.94,2.61v5.44h-1.19v-1.19h-.12c-.38.85-1.25,1.33-2.4,1.33-1.52,0-2.53-.95-2.53-2.39ZM205.21,387.19v-.94l-2.04.1c-1.11.05-1.7.53-1.7,1.35s.62,1.35,1.63,1.35c1.2,0,2.12-.8,2.12-1.86Z"/>
        <path class="st4" d="M209.56,382.05h1.19v1.4h.1c.42-.99,1.33-1.55,2.54-1.55,1.73,0,2.67,1.03,2.67,2.94v5.16h-1.25v-4.84c0-1.44-.59-2.11-1.82-2.11-1.31,0-2.19.92-2.19,2.27v4.68h-1.25v-7.95Z"/>
        <path class="st4" d="M223.97,388.78c-.41.88-1.25,1.35-2.38,1.35-1.84,0-3.04-1.33-3.04-3.37v-1.48c0-2.04,1.2-3.36,3.04-3.36,1.15,0,2,.49,2.34,1.36h.13v-4.35h1.27v11.07h-1.22v-1.22h-.14ZM219.8,386.59c0,1.46.84,2.41,2.15,2.41s2.15-.94,2.15-2.41v-1.14c0-1.46-.84-2.4-2.15-2.4s-2.15.94-2.15,2.4v1.14Z"/>
        <path class="st4" d="M237.19,386.63v-1.2c0-2.15,1.34-3.52,3.44-3.52s3.44,1.37,3.44,3.52v1.2c0,2.15-1.34,3.52-3.44,3.52s-3.44-1.37-3.44-3.52ZM238.42,385.54v.97c0,1.57.85,2.53,2.21,2.53s2.21-.96,2.21-2.53v-.97c0-1.56-.85-2.53-2.21-2.53s-2.21.97-2.21,2.53Z"/>
        <path class="st4" d="M253.44,385.29v1.48c0,2.04-1.2,3.36-3.04,3.36-1.15,0-1.99-.49-2.34-1.36h-.14v3.91h-1.27v-10.63h1.23v1.22h.13c.42-.88,1.25-1.35,2.38-1.35,1.84,0,3.04,1.33,3.04,3.37ZM247.9,385.47v1.14c0,1.47.83,2.41,2.15,2.41s2.15-.94,2.15-2.41v-1.14c0-1.46-.83-2.4-2.15-2.4s-2.15.94-2.15,2.4Z"/>
        <path class="st4" d="M262.71,385.29v1.48c0,2.04-1.2,3.36-3.04,3.36-1.15,0-1.99-.49-2.34-1.36h-.14v3.91h-1.27v-10.63h1.23v1.22h.13c.42-.88,1.25-1.35,2.38-1.35,1.84,0,3.04,1.33,3.04,3.37ZM257.17,385.47v1.14c0,1.47.83,2.41,2.15,2.41s2.15-.94,2.15-2.41v-1.14c0-1.46-.83-2.4-2.15-2.4s-2.15.94-2.15,2.4Z"/>
        <path class="st4" d="M265.01,386.63v-1.2c0-2.15,1.34-3.52,3.44-3.52s3.44,1.37,3.44,3.52v1.2c0,2.15-1.34,3.52-3.44,3.52s-3.44-1.37-3.44-3.52ZM266.24,385.54v.97c0,1.57.85,2.53,2.21,2.53s2.21-.96,2.21-2.53v-.97c0-1.56-.85-2.53-2.21-2.53s-2.21.97-2.21,2.53Z"/>
        <path class="st4" d="M277.55,384.08c.29-1.47,1.28-2.23,2.81-2.23.45,0,.89.07,1.15.18v1.4c-.37-.13-.88-.22-1.31-.22-1.76,0-2.8,1.22-2.8,3.24v2.56h2.46v1h-5.28v-1h1.6v-5.96h-1.77v-1h2.97v2.03h.16Z"/>
        <path class="st4" d="M286.87,379.92v2.15h3.22v1.06h-3.21v4.48c0,.87.61,1.33,1.73,1.33.45,0,1.25-.02,1.46-.04v1.05c-.2.04-1.16.07-1.55.07-1.97,0-2.89-.75-2.89-2.4v-4.5h-2.12v-1.06h2.12v-2.15h1.23Z"/>
        <path class="st4" d="M299.52,390h-1.19v-1.4h-.1c-.42.99-1.33,1.54-2.54,1.54-1.73,0-2.67-1.03-2.67-2.94v-5.16h1.25v4.84c0,1.44.59,2.11,1.82,2.11,1.31,0,2.19-.92,2.19-2.27v-4.68h1.24v7.95Z"/>
        <path class="st4" d="M302.29,382.05h1.19v1.4h.1c.42-.99,1.33-1.55,2.54-1.55,1.73,0,2.67,1.03,2.67,2.94v5.16h-1.25v-4.84c0-1.44-.59-2.11-1.82-2.11-1.31,0-2.19.92-2.19,2.27v4.68h-1.24v-7.95Z"/>
        <path class="st4" d="M311.7,390v-1.03h2.72v-5.88h-2.7v-1.03h3.93v6.91h2.63v1.03h-6.58ZM313.92,379.08c0-.58.45-1.02,1.03-1.02s1.03.44,1.03,1.02-.45,1.03-1.03,1.03-1.03-.44-1.03-1.03Z"/>
        <path class="st4" d="M323.96,379.92v2.15h3.22v1.06h-3.21v4.48c0,.87.61,1.33,1.73,1.33.45,0,1.25-.02,1.46-.04v1.05c-.2.04-1.17.07-1.55.07-1.97,0-2.89-.75-2.89-2.4v-4.5h-2.12v-1.06h2.12v-2.15h1.23Z"/>
        <path class="st4" d="M330.24,390v-1.03h2.72v-5.88h-2.7v-1.03h3.93v6.91h2.63v1.03h-6.58ZM332.46,379.08c0-.58.45-1.02,1.03-1.02s1.03.44,1.03,1.02-.45,1.03-1.03,1.03-1.03-.44-1.03-1.03Z"/>
        <path class="st4" d="M345.98,387.95c-.24,1.31-1.5,2.2-3.17,2.2-2.18,0-3.45-1.31-3.45-3.57v-1.19c0-2.1,1.34-3.47,3.36-3.47s3.28,1.37,3.28,3.67v.78h-5.41v.32c0,1.46.87,2.4,2.22,2.4,1,0,1.74-.43,1.96-1.12h1.21ZM340.59,385.41h4.18c0-1.52-.78-2.43-2.06-2.43s-2.12.91-2.12,2.43Z"/>
        <path class="st4" d="M351.93,381.9c1.66,0,2.78.83,2.92,2.15h-1.2c-.15-.7-.81-1.12-1.74-1.12-1.01,0-1.66.47-1.66,1.19,0,.61.41.95,1.41,1.17l1.12.26c1.55.35,2.25,1.03,2.25,2.17,0,1.46-1.22,2.42-3.11,2.42s-3-.84-3.13-2.21h1.27c.18.73.89,1.16,1.91,1.16,1.08,0,1.77-.49,1.77-1.25,0-.63-.39-.97-1.4-1.19l-1.18-.27c-1.44-.33-2.15-1.05-2.15-2.18,0-1.38,1.17-2.3,2.92-2.3Z"/>
      </g>
    </g>
    <g class="st5">
      <g class="st5">
        <path class="st9" d="M34.61,429.79v4.21h-1.27v-10.57h3.54c2.09,0,3.41,1.21,3.41,3.18,0,1.38-.77,2.52-1.97,2.92l2.15,4.47h-1.46l-1.97-4.21h-2.43ZM34.61,428.7h2.09c1.46,0,2.28-.74,2.28-2.06s-.81-2.06-2.22-2.06h-2.15v4.12Z"/>
        <path class="st9" d="M49.26,431.95c-.24,1.31-1.5,2.2-3.17,2.2-2.18,0-3.45-1.31-3.45-3.57v-1.19c0-2.1,1.34-3.47,3.36-3.47s3.28,1.37,3.28,3.67v.78h-5.41v.32c0,1.46.86,2.4,2.22,2.4,1,0,1.74-.43,1.96-1.12h1.21ZM43.87,429.41h4.18c0-1.52-.78-2.43-2.06-2.43s-2.12.91-2.12,2.43Z"/>
        <path class="st9" d="M51.85,431.74c0-1.41,1.01-2.24,2.82-2.34l2.18-.11v-.72c0-1-.61-1.54-1.71-1.54-.92,0-1.56.39-1.77,1.07h-1.22c.15-1.27,1.38-2.15,3-2.15,1.87,0,2.94.95,2.94,2.61v5.44h-1.19v-1.19h-.12c-.38.85-1.25,1.33-2.4,1.33-1.52,0-2.53-.95-2.53-2.39ZM56.85,431.19v-.94l-2.04.1c-1.11.05-1.7.53-1.7,1.35s.62,1.35,1.63,1.35c1.2,0,2.12-.8,2.12-1.86Z"/>
        <path class="st9" d="M66.34,432.78c-.41.88-1.25,1.35-2.38,1.35-1.84,0-3.04-1.33-3.04-3.37v-1.48c0-2.04,1.2-3.36,3.04-3.36,1.15,0,2,.49,2.34,1.36h.13v-4.35h1.27v11.07h-1.22v-1.22h-.14ZM62.17,430.59c0,1.46.84,2.41,2.15,2.41s2.15-.94,2.15-2.41v-1.14c0-1.46-.84-2.4-2.15-2.4s-2.15.94-2.15,2.4v1.14Z"/>
        <path class="st9" d="M70.96,436.8v-1.09c.1.02.32.03.44.03.75,0,1.16-.34,1.49-1.26l.14-.43-2.92-8h1.35l2.23,6.65h.1l2.22-6.65h1.33l-3,8.24c-.7,1.96-1.36,2.53-2.83,2.53-.18,0-.42,0-.53-.02Z"/>
        <path class="st9" d="M82,433.1c0-.58.45-1.04,1-1.04s1,.46,1,1.04-.45,1.04-1,1.04-1-.46-1-1.04ZM83.73,423.43l-.12,7.28h-1.22l-.12-7.28h1.46Z"/>
      </g>
      <g class="st5">
        <path class="st4" d="M99.51,429.79v4.21h-1.27v-10.57h3.54c2.09,0,3.41,1.21,3.41,3.18,0,1.38-.77,2.52-1.97,2.92l2.15,4.47h-1.46l-1.97-4.21h-2.43ZM99.51,428.7h2.09c1.46,0,2.28-.74,2.28-2.06s-.81-2.06-2.22-2.06h-2.15v4.12Z"/>
        <path class="st4" d="M114.07,434h-1.19v-1.4h-.1c-.42.99-1.33,1.54-2.54,1.54-1.73,0-2.67-1.03-2.67-2.94v-5.16h1.25v4.84c0,1.44.59,2.11,1.82,2.11,1.31,0,2.19-.92,2.19-2.27v-4.68h1.25v7.95Z"/>
        <path class="st4" d="M116.84,426.05h1.19v1.4h.1c.42-.99,1.33-1.55,2.54-1.55,1.73,0,2.67,1.03,2.67,2.94v5.16h-1.25v-4.84c0-1.44-.59-2.11-1.82-2.11-1.31,0-2.19.92-2.19,2.27v4.68h-1.25v-7.95Z"/>
      </g>
      <g class="st5">
        <path class="st9" d="M135.45,435l5.15-12.58h1.22l-5.16,12.58h-1.22Z"/>
        <path class="st9" d="M149.99,428.53c-.15-.93-.93-1.52-1.96-1.52-1.38,0-2.15.94-2.15,2.65v.72c0,1.71.77,2.64,2.15,2.64,1.03,0,1.8-.58,1.96-1.49h1.23c-.2,1.62-1.41,2.61-3.16,2.61-2.16,0-3.42-1.33-3.42-3.6v-1.04c0-2.28,1.26-3.6,3.42-3.6,1.76,0,2.96,1,3.16,2.63h-1.23Z"/>
        <path class="st9" d="M153.74,430.63v-1.2c0-2.15,1.34-3.52,3.44-3.52s3.44,1.37,3.44,3.52v1.2c0,2.15-1.34,3.52-3.44,3.52s-3.44-1.37-3.44-3.52ZM154.97,429.54v.97c0,1.57.85,2.53,2.21,2.53s2.21-.96,2.21-2.53v-.97c0-1.56-.85-2.53-2.21-2.53s-2.21.97-2.21,2.53Z"/>
        <path class="st9" d="M163.2,426.05h1.19v1.4h.1c.42-.99,1.33-1.55,2.54-1.55,1.73,0,2.67,1.03,2.67,2.94v5.16h-1.25v-4.84c0-1.44-.59-2.11-1.82-2.11-1.31,0-2.19.92-2.19,2.27v4.68h-1.25v-7.95Z"/>
        <path class="st9" d="M175.6,423.92v2.15h3.22v1.06h-3.21v4.48c0,.87.61,1.33,1.73,1.33.45,0,1.25-.02,1.46-.04v1.05c-.2.04-1.16.07-1.55.07-1.97,0-2.89-.75-2.89-2.4v-4.5h-2.12v-1.06h2.12v-2.15h1.23Z"/>
        <path class="st9" d="M188.35,431.95c-.24,1.31-1.5,2.2-3.17,2.2-2.18,0-3.45-1.31-3.45-3.57v-1.19c0-2.1,1.34-3.47,3.36-3.47s3.28,1.37,3.28,3.67v.78h-5.41v.32c0,1.46.86,2.4,2.22,2.4,1,0,1.74-.43,1.96-1.12h1.21ZM182.96,429.41h4.18c0-1.52-.78-2.43-2.06-2.43s-2.12.91-2.12,2.43Z"/>
        <path class="st9" d="M191.02,426.05h1.19v1.4h.1c.42-.99,1.33-1.55,2.54-1.55,1.73,0,2.67,1.03,2.67,2.94v5.16h-1.25v-4.84c0-1.44-.59-2.11-1.82-2.11-1.31,0-2.19.92-2.19,2.27v4.68h-1.25v-7.95Z"/>
        <path class="st9" d="M203.42,423.92v2.15h3.22v1.06h-3.21v4.48c0,.87.61,1.33,1.73,1.33.45,0,1.25-.02,1.46-.04v1.05c-.2.04-1.16.07-1.55.07-1.97,0-2.89-.75-2.89-2.4v-4.5h-2.12v-1.06h2.12v-2.15h1.23Z"/>
        <path class="st9" d="M208.94,429.89v-1.16h7.75v1.16h-7.75Z"/>
        <path class="st9" d="M225.92,434h-1.12v-5.49c0-.97-.35-1.47-1.02-1.47s-1.12.61-1.12,1.6v5.36h-1.11v-5.49c0-.96-.35-1.46-1.03-1.46s-1.14.61-1.14,1.6v5.36h-1.12v-7.95h1.11v1.12h.13c.2-.8.77-1.27,1.52-1.27s1.27.46,1.44,1.25h.13c.21-.76.84-1.25,1.64-1.25,1.11,0,1.68.77,1.68,2.24v5.85Z"/>
        <path class="st9" d="M228.03,431.74c0-1.41,1.01-2.24,2.82-2.34l2.18-.11v-.72c0-1-.61-1.54-1.71-1.54-.92,0-1.56.39-1.77,1.07h-1.22c.15-1.27,1.38-2.15,3-2.15,1.87,0,2.94.95,2.94,2.61v5.44h-1.19v-1.19h-.12c-.38.85-1.25,1.33-2.4,1.33-1.52,0-2.53-.95-2.53-2.39ZM233.03,431.19v-.94l-2.04.1c-1.11.05-1.7.53-1.7,1.35s.62,1.35,1.63,1.35c1.2,0,2.12-.8,2.12-1.86Z"/>
        <path class="st9" d="M244.17,429.29v1.48c0,2.04-1.2,3.36-3.04,3.36-1.15,0-1.99-.49-2.34-1.36h-.14v3.91h-1.27v-10.63h1.23v1.22h.13c.42-.88,1.25-1.35,2.38-1.35,1.84,0,3.04,1.33,3.04,3.37ZM238.62,429.47v1.14c0,1.47.83,2.41,2.15,2.41s2.15-.94,2.15-2.41v-1.14c0-1.46-.83-2.4-2.15-2.4s-2.15.94-2.15,2.4Z"/>
        <path class="st4" d="M259.05,423.92v2.15h3.22v1.06h-3.21v4.48c0,.87.61,1.33,1.73,1.33.45,0,1.25-.02,1.46-.04v1.05c-.2.04-1.16.07-1.55.07-1.97,0-2.89-.75-2.89-2.4v-4.5h-2.12v-1.06h2.12v-2.15h1.23Z"/>
        <path class="st4" d="M265.01,430.63v-1.2c0-2.15,1.34-3.52,3.44-3.52s3.44,1.37,3.44,3.52v1.2c0,2.15-1.34,3.52-3.44,3.52s-3.44-1.37-3.44-3.52ZM266.24,429.54v.97c0,1.57.85,2.53,2.21,2.53s2.21-.96,2.21-2.53v-.97c0-1.56-.85-2.53-2.21-2.53s-2.21.97-2.21,2.53Z"/>
        <path class="st4" d="M283.53,434.86h1.23c.16.66.96,1.09,2.02,1.09,1.39,0,2.16-.7,2.16-1.98v-1.24h-.13c-.35.84-1.23,1.34-2.39,1.34-1.84,0-3.05-1.33-3.05-3.36v-1.43c0-2.04,1.22-3.36,3.08-3.36,1.15,0,2.02.5,2.37,1.36h.14v-1.23h1.23v7.95c0,1.87-1.27,2.98-3.43,2.98-1.84,0-3.07-.8-3.23-2.12ZM286.79,432.95c1.31,0,2.15-.95,2.15-2.41v-1.09c0-1.46-.84-2.4-2.15-2.4s-2.17.94-2.17,2.4v1.09c0,1.46.85,2.41,2.17,2.41Z"/>
        <path class="st4" d="M299.62,431.95c-.24,1.31-1.5,2.2-3.17,2.2-2.18,0-3.45-1.31-3.45-3.57v-1.19c0-2.1,1.34-3.47,3.36-3.47s3.28,1.37,3.28,3.67v.78h-5.41v.32c0,1.46.86,2.4,2.22,2.4,1,0,1.74-.43,1.96-1.12h1.21ZM294.23,429.41h4.18c0-1.52-.78-2.43-2.06-2.43s-2.12.91-2.12,2.43Z"/>
        <path class="st4" d="M305.41,423.92v2.15h3.22v1.06h-3.21v4.48c0,.87.61,1.33,1.73,1.33.45,0,1.25-.02,1.46-.04v1.05c-.2.04-1.16.07-1.55.07-1.97,0-2.89-.75-2.89-2.4v-4.5h-2.12v-1.06h2.12v-2.15h1.23Z"/>
        <path class="st4" d="M324.11,425.9c1.66,0,2.78.83,2.92,2.15h-1.2c-.15-.7-.81-1.12-1.74-1.12-1.01,0-1.66.47-1.66,1.19,0,.61.41.95,1.41,1.17l1.12.26c1.55.35,2.25,1.03,2.25,2.17,0,1.46-1.22,2.42-3.11,2.42s-3-.84-3.13-2.21h1.27c.18.73.89,1.16,1.91,1.16,1.08,0,1.77-.49,1.77-1.25,0-.63-.39-.97-1.4-1.19l-1.18-.27c-1.44-.33-2.15-1.05-2.15-2.18,0-1.38,1.17-2.3,2.92-2.3Z"/>
        <path class="st4" d="M333.23,423.92v2.15h3.22v1.06h-3.21v4.48c0,.87.61,1.33,1.73,1.33.45,0,1.25-.02,1.46-.04v1.05c-.2.04-1.16.07-1.55.07-1.97,0-2.89-.75-2.89-2.4v-4.5h-2.12v-1.06h2.12v-2.15h1.23Z"/>
        <path class="st4" d="M339.29,431.74c0-1.41,1.01-2.24,2.82-2.34l2.18-.11v-.72c0-1-.61-1.54-1.71-1.54-.92,0-1.56.39-1.77,1.07h-1.22c.15-1.27,1.38-2.15,3-2.15,1.87,0,2.94.95,2.94,2.61v5.44h-1.19v-1.19h-.12c-.38.85-1.25,1.33-2.4,1.33-1.52,0-2.53-.95-2.53-2.39ZM344.3,431.19v-.94l-2.04.1c-1.11.05-1.7.53-1.7,1.35s.62,1.35,1.63,1.35c1.2,0,2.12-.8,2.12-1.86Z"/>
        <path class="st4" d="M351.73,428.08c.29-1.47,1.28-2.23,2.81-2.23.45,0,.89.07,1.15.18v1.4c-.37-.13-.88-.22-1.31-.22-1.76,0-2.8,1.22-2.8,3.24v2.56h2.46v1h-5.28v-1h1.6v-5.96h-1.77v-1h2.97v2.03h.16Z"/>
        <path class="st4" d="M361.05,423.92v2.15h3.22v1.06h-3.21v4.48c0,.87.61,1.33,1.73,1.33.45,0,1.25-.02,1.46-.04v1.05c-.2.04-1.16.07-1.55.07-1.97,0-2.89-.75-2.89-2.4v-4.5h-2.12v-1.06h2.12v-2.15h1.23Z"/>
        <path class="st4" d="M373.8,431.95c-.24,1.31-1.5,2.2-3.17,2.2-2.18,0-3.45-1.31-3.45-3.57v-1.19c0-2.1,1.34-3.47,3.36-3.47s3.28,1.37,3.28,3.67v.78h-5.41v.32c0,1.46.86,2.4,2.22,2.4,1,0,1.74-.43,1.96-1.12h1.21ZM368.41,429.41h4.18c0-1.52-.78-2.43-2.06-2.43s-2.12.91-2.12,2.43Z"/>
        <path class="st4" d="M381.6,432.78c-.41.88-1.25,1.35-2.38,1.35-1.84,0-3.04-1.33-3.04-3.37v-1.48c0-2.04,1.2-3.36,3.04-3.36,1.15,0,2,.49,2.34,1.36h.13v-4.35h1.27v11.07h-1.22v-1.22h-.14ZM377.43,430.59c0,1.46.84,2.41,2.15,2.41s2.15-.94,2.15-2.41v-1.14c0-1.46-.84-2.4-2.15-2.4s-2.15.94-2.15,2.4v1.14Z"/>
        <path class="st4" d="M387.66,432.69c0-.74.6-1.35,1.33-1.35s1.33.61,1.33,1.35-.6,1.35-1.33,1.35-1.33-.61-1.33-1.35Z"/>
      </g>
    </g>
    <g class="st5">
      <path class="st6" d="M33.03,477.93s0-.13,0-.17c0-1.44.83-2.39,2.07-2.39.71,0,1.24.26,1.88.92.51.54.81.72,1.18.72.57,0,.9-.46.95-1.31h1.15v.16c0,1.44-.81,2.39-2.04,2.39-.72,0-1.25-.26-1.88-.91-.51-.54-.81-.72-1.14-.72-.61,0-.94.44-1,1.31h-1.16Z"/>
    </g>
    <g class="st5">
      <path class="st1" d="M53.43,476.18c2.1.52,2.96,1.39,2.96,2.97,0,1.74-1.25,2.92-3.2,3.08v.81h-.87v-.81c-1.93-.15-3.2-1.27-3.31-3.01h1.17c.12,1.05.94,1.77,2.14,1.91v-4.01l-.15-.04c-1.99-.49-2.89-1.41-2.89-2.93,0-1.65,1.19-2.78,3.05-2.93v-.81h.87v.82c1.74.15,2.93,1.26,3.02,2.87h-1.16c-.12-.98-.82-1.64-1.86-1.78v3.8l.24.07ZM52.31,472.3c-1.15.13-1.85.8-1.85,1.8,0,.9.52,1.42,1.85,1.78v-3.58ZM53.19,481.12c1.21-.15,2.01-.88,2.01-1.92,0-.96-.59-1.51-2.01-1.88v3.79Z"/>
    </g>
    <g class="st5">
      <path class="st4" d="M68,470.4h4.64v15h-4.64v-15Z"/>
    </g>
  </g>
</svg>